<?xml version="1.0" encoding="utf-8"?>
<!-- Generator: Adobe Illustrator 16.0.0, SVG Export Plug-In . SVG Version: 6.00 Build 0)  -->
<!DOCTYPE svg PUBLIC "-//W3C//DTD SVG 1.1//EN" "http://www.w3.org/Graphics/SVG/1.1/DTD/svg11.dtd">
<svg version="1.1" id="Layer_1" xmlns="http://www.w3.org/2000/svg" xmlns:xlink="http://www.w3.org/1999/xlink" x="0px" y="0px"
	 width="1669px" height="1162px" viewBox="0 0 1669 1162" enable-background="new 0 0 1669 1162" xml:space="preserve">
<g>
	<polygon fill-rule="evenodd" clip-rule="evenodd" fill="#1C3664" points="1511.621,953.486 822.665,1074.641 157.217,953.486 
		157.217,110.71 1511.621,110.71 	"/>
	<path fill-rule="evenodd" clip-rule="evenodd" fill="#FFFFFF" d="M1253.563,496.143c1.364,0,2.73-0.061,4.092,0.011
		c2.072,0.108,2.787,1.197,1.831,3.067c-0.736,1.431-1.579,2.829-2.541,4.116c-2.45,3.279-4.932,6.532-7.525,9.694
		c-0.834,1.015-1.934,1.992-3.114,2.504c-1.777,0.762-3.561-0.39-3.304-2.191c0.679-4.704,1.505-9.403,2.588-14.03
		c0.543-2.294,2.439-3.388,4.9-3.245c1.025,0.059,2.048,0.011,3.073,0.011C1253.563,496.101,1253.563,496.119,1253.563,496.143z"/>
	<path fill-rule="evenodd" clip-rule="evenodd" fill="#FFFFFF" d="M268.591,619.324c0.821-4.084,1.446-8.219,2.506-12.236
		c4.477-17.076,14.293-30.426,28.873-40.219c11.872-7.967,25.048-11.797,39.383-11.625c6.999,0.084,14.002-0.082,21,0.068
		c2.321,0.047,2.869-0.727,2.84-2.922c-0.111-8.791-0.045-17.586-0.045-26.38c0-1.017,0-2.034,0-3.374c10.921,0,21.622,0,32.557,0
		c0.059-1.304,0.141-2.295,0.144-3.285c0.011-8.879-0.048-17.76,0.071-26.64c0.013-1.199,0.602-2.683,1.433-3.541
		c20.661-21.302,41.396-42.53,62.1-63.79c2.008-2.065,3.91-4.238,5.859-6.362c0.17,0,0.342,0,0.515,0
		c6.688,6.924,13.355,13.864,20.067,20.762c11.057,11.369,22.139,22.711,33.217,34.064c4.938,5.06,9.933,10.065,14.77,15.223
		c0.869,0.928,1.497,2.475,1.516,3.748c0.13,8.874,0.068,17.748,0.068,26.626c0,0.922,0,1.847,0,3.01c10.887,0,21.515,0,32.454,0
		c0.059,1.213,0.144,2.193,0.146,3.178c0.014,8.965,0.061,17.926-0.034,26.887c-0.021,2.104,0.604,2.781,2.744,2.787
		c9.98,0.041,20.021-0.383,29.932,0.529c19.12,1.764,34.87,10.664,46.609,25.715c16.763,21.492,19.774,45.396,9.928,70.682
		c-9.837,25.262-36.278,42.926-63.397,42.945c-7.682,0.006-15.363,0.063-23.045-0.039c-2.113-0.031-2.797,0.619-2.773,2.76
		c0.104,8.875,0.045,17.754,0.045,26.633c0,1.006,0,2.012,0,3.258c-10.897,0-21.529,0-32.607,0c0,1.219,0,2.203,0,3.182
		c0,8.875,0.063,17.754-0.068,26.633c-0.021,1.271-0.646,2.852-1.531,3.762c-17.928,18.473-35.945,36.865-53.917,55.295
		c-4.755,4.875-9.417,9.836-14.121,14.76c-0.173,0-0.345,0-0.515,0c-3.475-3.732-6.887-7.537-10.441-11.186
		c-14.516-14.908-29.084-29.77-43.627-44.646c-4.582-4.691-9.218-9.338-13.673-14.15c-0.927-1-1.621-2.631-1.643-3.986
		c-0.143-9.219-0.074-18.438-0.085-27.66c0-0.504-0.09-1.01-0.164-1.836c-10.72,0-21.424,0-32.358,0
		c-0.069-1.301-0.164-2.291-0.164-3.281c-0.013-8.965-0.058-17.93,0.026-26.891c0.021-1.975-0.517-2.68-2.58-2.645
		c-6.998,0.111-14.002,0.158-21,0.02c-31.013-0.602-52.985-15.188-65.665-43.355c-2.543-5.646-3.248-12.123-4.794-18.223
		c-0.207-0.816-0.371-1.648-0.551-2.467C268.591,627.182,268.591,623.254,268.591,619.324z M564.908,692.064
		c1.255,0,2.177,0,3.099,0c8.535,0,17.08,0.191,25.614-0.039c21.94-0.592,39.972-9.471,52.773-27.273
		c16.225-22.557,17.888-46.91,4.897-71.402c-10.786-20.326-28.374-32.043-51.353-34.436c-10.482-1.09-21.141-0.469-31.721-0.619
		c-0.998-0.016-2.002-0.006-3.311-0.006c0-1.172,0-2.092,0-3.008c0-8.709,0.002-17.416,0-26.126c0-3.542-0.003-3.547-3.436-3.547
		c-8.622-0.005-17.244,0-25.869-0.011c-0.993,0-1.986-0.08-3.25-0.138c0-1.251,0-2.255,0-3.259c0-9.393,0.051-18.785-0.063-28.175
		c-0.016-1.197-0.606-2.67-1.434-3.536c-6.715-7.035-13.554-13.949-20.34-20.916c-10.526-10.81-21.006-21.67-31.574-32.438
		c-4.403-4.487-8.99-8.794-13.685-13.366c-0.574,0.651-1.213,1.446-1.923,2.172c-20.958,21.478-41.937,42.938-62.839,64.474
		c-0.935,0.964-1.581,2.636-1.6,3.989c-0.138,9.303-0.072,18.61-0.074,27.915c-0.003,3.277-0.008,3.283-3.388,3.283
		c-8.795,0.005-17.589,0.063-26.383-0.04c-2.136-0.024-2.766,0.649-2.739,2.765c0.101,9.052,0.048,18.1,0.037,27.154
		c-0.002,0.898-0.084,1.801-0.133,2.807c-9.432,0-18.563-0.031-27.695,0.014c-9.155,0.045-17.986,1.842-26.381,5.486
		c-38.972,16.947-52.664,65.006-28.223,99.762c11.785,16.756,28.136,26.436,48.63,28.088c10.185,0.82,20.473,0.322,30.714,0.43
		c0.979,0.01,1.959,0.084,3.094,0.135c0,1.25,0,2.186,0,3.111c0,8.965,0.053,17.934-0.043,26.896
		c-0.019,2.004,0.557,2.66,2.599,2.633c8.879-0.094,17.761-0.037,26.64-0.037c0.99,0,1.984,0,3.273,0c0,1.367,0,2.375,0,3.379
		c0,9.305-0.05,18.613,0.062,27.92c0.013,1.215,0.548,2.725,1.375,3.582c18.923,19.537,37.926,39.004,56.907,58.486
		c2.766,2.834,5.525,5.668,8.736,8.969c0.848-1.127,1.34-1.951,1.986-2.617c20.942-21.498,41.908-42.969,62.791-64.516
		c0.933-0.961,1.576-2.625,1.601-3.973c0.135-9.303,0.071-18.611,0.071-27.918c0-0.996,0-1.992,0-3.313c1.327,0,2.326,0,3.321,0
		c8.879,0,17.761-0.047,26.64,0.037c1.997,0.02,2.657-0.588,2.636-2.625c-0.096-8.961-0.042-17.926-0.042-26.889
		C564.908,694.324,564.908,693.322,564.908,692.064z"/>
	<path fill-rule="evenodd" clip-rule="evenodd" fill="#FFFFFF" d="M1400.245,662.867c-0.262,0.201-0.495,0.486-0.792,0.582
		c-7.779,2.574-9.952,9.809-13.196,16.063c-13.708,26.398-27.328,52.846-40.988,79.27c-3.242,6.268-7.473,11.674-14.031,14.717
		c-2.048,0.951-4.371,1.402-6.617,1.781c-0.998,0.168-2.15-0.328-3.168-0.699c-0.347-0.127-0.721-0.816-0.67-1.193
		c0.045-0.324,0.662-0.789,1.046-0.818c5.854-0.426,9.06-4.283,11.578-8.945c2.597-4.799,5.126-9.637,7.539-14.525
		c0.41-0.83,0.442-2.172,0.063-3.016c-7.957-17.641-16.002-35.24-24.012-52.859c-3.351-7.369-6.617-14.777-10.008-22.135
		c-1.473-3.189-3.146-6.264-6.871-7.49c-0.562-0.186-1.022-1.059-1.227-1.711c-0.063-0.195,0.888-1.035,1.381-1.039
		c6.291-0.076,12.579-0.053,18.873-0.053c0.153,0.232,0.313,0.461,0.463,0.684c-0.529,0.707-0.93,1.6-1.618,2.074
		c-2.543,1.742-3.332,3.107-2.342,5.969c1.195,3.447,2.707,6.801,4.22,10.133c8.704,19.174,17.445,38.324,26.174,57.486
		c0.108,0.238,0.209,0.482,0.514,1.17c2.305-4.271,4.342-7.967,6.299-11.707c7.952-15.172,15.894-30.355,23.808-45.559
		c2.241-4.307,4.365-8.68,6.546-13.018c0.775-1.543,1.144-2.869-0.487-4.316c-1.441-1.279-0.965-2.83,0.744-2.863
		c5.287-0.09,10.577,0.006,15.866,0.061c0.308,0.006,0.612,0.275,0.914,0.428C1400.245,661.85,1400.245,662.357,1400.245,662.867z"
		/>
	<path fill-rule="evenodd" clip-rule="evenodd" fill="#FFFFFF" d="M1115.244,707.135c3.394,4.762,6.644,9.344,9.912,13.912
		c4.863,6.789,9.533,13.736,14.667,20.316c6.771,8.682,19.869,11.957,29.927,7.92c8.939-3.582,12.574-13.305,8.341-22.039
		c-2.866-5.906-7.878-9.699-12.783-13.707c-5.854-4.787-11.88-9.479-17.085-14.918c-8.27-8.65-8.477-21.824-1.145-30.365
		c4.082-4.758,9.578-6.637,15.583-7.332c7.1-0.813,13.663,1.398,20.158,3.789c0.602,0.223,1.123,1.402,1.187,2.184
		c0.167,2.037,0.167,4.104,0.014,6.145c-0.074,0.975-0.644,1.912-0.991,2.865c-0.795-0.533-1.774-0.922-2.36-1.631
		c-2.641-3.205-5.663-5.881-9.512-7.561c-8.27-3.611-18.107,0.129-21.159,8.252c-2.331,6.221-0.384,11.877,4.008,16.207
		c5.009,4.938,10.667,9.248,16.237,13.578c5.2,4.045,10.519,7.91,14.095,13.594c6.866,10.902,4.715,22.785-5.507,30.637
		c-16.06,12.322-37.344,8.932-49.689-8.041c-6.972-9.584-13.77-19.301-20.571-29c-1.033-1.473-2.051-2.162-3.963-2.008
		c-3.309,0.26-6.651,0.211-9.979,0.156c-1.573-0.023-2.079,0.568-2.071,2.096c0.04,11.014,0,22.021,0.054,33.035
		c0.01,2.914,0.89,5.521,3.258,7.492c0.519,0.432,0.699,1.268,1.033,1.918c-0.716,0.35-1.426,0.979-2.148,0.998
		c-4.262,0.092-8.535,0.076-12.8-0.008c-0.667-0.014-1.697-0.422-1.886-0.912c-0.19-0.482,0.297-1.514,0.8-1.922
		c2.795-2.289,3.444-5.373,3.444-8.721c0.005-23.902,0.005-47.813,0-71.715c0-3.348-0.646-6.432-3.449-8.715
		c-0.509-0.414-0.636-1.295-0.938-1.963c0.659-0.291,1.309-0.803,1.983-0.846c7.576-0.455,15.149-1.021,22.73-1.191
		c11.021-0.248,20.735,5.832,23.693,14.939c3.375,10.393,1.073,23.924-10.732,31.166
		C1116.947,706.139,1116.291,706.52,1115.244,707.135z M1092.721,706.252c2.469,0,4.668,0.061,6.863-0.014
		c12.654-0.428,20.021-6.619,21.268-18.609c1.444-13.834-5.612-24.371-20.335-23.564c-6.357,0.344-7.917,1.891-7.936,8.295
		c-0.043,10.4-0.017,20.799-0.011,31.193C1092.573,704.311,1092.655,705.063,1092.721,706.252z"/>
	<path fill-rule="evenodd" clip-rule="evenodd" fill="#FFFFFF" d="M915.768,590.434c-11.054-23.883-22.11-47.762-33.435-72.227
		c-0.429,1.1-0.736,1.637-0.853,2.215c-3.735,18.904-7.478,37.813-11.157,56.73c-0.8,4.129-0.416,8.002,3.285,10.863
		c0.461,0.355,0.979,1.355,0.797,1.666c-0.323,0.549-1.152,1.109-1.78,1.123c-5.372,0.109-10.746,0.135-16.115,0.051
		c-0.684-0.008-1.356-0.801-2.034-1.23c0.498-0.619,0.868-1.525,1.515-1.816c4.543-2.072,6.18-5.82,7.072-10.494
		c3.253-17.092,6.787-34.125,10.206-51.188c0.991-4.932,1.979-9.867,2.922-14.812c1.147-6.031-1.081-9.779-6.879-11.931
		c-1.097-0.408-2.031-1.25-3.041-1.894c0.062-0.271,0.122-0.541,0.183-0.809c0.919-0.201,1.833-0.563,2.752-0.577
		c4.609-0.059,9.221-0.021,13.83-0.026c1.83-0.005,3.507,0.532,3.245,2.654c-0.779,6.294,2.384,11.396,4.808,16.703
		c8.177,17.911,16.441,35.788,24.677,53.677c0.384,0.836,0.829,1.643,1.525,3.01c2.071-4.133,3.947-7.789,5.745-11.477
		c8.376-17.164,16.741-34.331,25.077-51.514c0.778-1.6,1.669-3.282,1.865-4.999c0.185-1.623-0.295-3.403-0.819-5.001
		c-0.474-1.43-1.197-2.89,1.039-2.942c5.199-0.133,10.409-0.008,15.612,0.074c0.519,0.005,1.033,0.413,1.973,0.821
		c-0.771,0.63-1.194,1.123-1.734,1.393c-4.521,2.257-6.339,5.436-5.616,10.776c1.587,11.755,3.298,23.492,5.025,35.224
		c1.756,11.898,3.595,23.787,5.388,35.68c0.517,3.434,1.643,6.422,5.072,8.066c0.597,0.283,0.864,1.252,1.285,1.902
		c-0.651,0.305-1.301,0.865-1.958,0.877c-4.439,0.076-8.879,0.078-13.318-0.012c-0.726-0.016-1.671-0.455-2.074-1.02
		c-0.222-0.311,0.498-1.27,0.736-1.951c0.597-1.691,1.757-3.439,1.624-5.082c-0.444-5.43-1.29-10.834-2.108-16.232
		c-2.469-16.359-4.998-32.718-7.51-49.072c-0.045-0.302-0.148-0.588-0.415-1.605c-11.992,25.291-23.702,49.984-35.413,74.68
		C916.435,590.617,916.101,590.527,915.768,590.434z"/>
	<path fill-rule="evenodd" clip-rule="evenodd" fill="#FFFFFF" d="M875.963,736.094c0-0.988,0-1.979,0-2.969
		c0-19.205,0.013-38.414-0.011-57.615c-0.008-4.5,0.408-9.109-3.881-12.373c-1.012-0.768-0.794-2.223,0.909-2.252
		c4.688-0.096,9.379-0.063,14.073-0.01c0.481,0.01,1.311,0.471,1.354,0.805c0.077,0.58-0.148,1.479-0.577,1.797
		c-3.587,2.664-3.666,6.525-3.666,10.404c-0.017,25.857,0.002,51.725-0.04,77.584c-0.006,1.674,0.808,4.287-1.404,4.588
		c-1.465,0.207-3.615-1.281-4.763-2.611c-8.916-10.324-17.678-20.777-26.456-31.219c-11.74-13.965-23.45-27.961-35.18-41.938
		c-0.36-0.424-0.811-0.773-1.728-1.631c0,1.568,0,2.543,0,3.512c0,20.402,0.027,40.797-0.023,61.205
		c-0.014,3.721,0.395,7.143,3.629,9.625c0.427,0.324,0.758,1.314,0.569,1.748c-0.19,0.453-1.075,0.848-1.658,0.859
		c-4.434,0.068-8.879,0.068-13.313,0.002c-0.582-0.008-1.6-0.479-1.647-0.834c-0.076-0.641,0.226-1.613,0.718-1.992
		c2.991-2.314,3.486-5.592,3.492-8.963c0.045-23.729,0.045-47.457,0-71.186c-0.006-3.369-0.496-6.648-3.483-8.959
		c-0.504-0.389-0.928-1.436-0.753-1.973c0.148-0.457,1.203-0.861,1.865-0.873c4.521-0.07,9.043-0.047,13.567-0.018
		c1.573,0.008,2.684,0.871,2.045,2.408c-1.401,3.365,0.249,5.848,2.13,8.168c9.496,11.725,19.051,23.406,28.645,35.051
		c7.694,9.344,15.475,18.615,23.225,27.916c0.564,0.676,1.188,1.305,1.783,1.955C875.576,736.234,875.77,736.166,875.963,736.094z"
		/>
	<path fill-rule="evenodd" clip-rule="evenodd" fill="#FFFFFF" d="M782.484,745.162c-4.69,2.813-8.987,5.953-13.729,8.125
		c-11.642,5.33-23.567,6.512-35.121-0.186c-10.331-5.986-15.634-15.268-15.734-27.221c-0.143-17.586-0.053-35.17-0.021-52.758
		c0.006-3.701-0.371-7.162-3.615-9.645c-0.435-0.336-0.766-1.279-0.612-1.771c0.138-0.424,1.036-0.838,1.605-0.848
		c4.519-0.07,9.043-0.07,13.564,0c0.569,0.01,1.476,0.434,1.608,0.863c0.153,0.482-0.207,1.43-0.652,1.754
		c-3.269,2.361-3.649,5.83-3.66,9.377c-0.04,15.709-0.153,31.42,0.029,47.127c0.141,12.064,4.664,22.084,14.944,28.986
		c8.559,5.752,17.47,4.719,26.391,0.984c5.07-2.119,9.78-4.898,13.456-9.076c0.832-0.938,1.565-2.363,1.568-3.568
		c0.074-21.766,0.029-43.539,0-65.305c-0.003-3.271-0.699-6.238-3.449-8.441c-0.474-0.385-0.73-1.355-0.638-1.992
		c0.05-0.328,1.089-0.721,1.682-0.73c4.435-0.053,8.874-0.059,13.313,0.016c0.572,0.01,1.48,0.424,1.615,0.848
		c0.162,0.492-0.175,1.459-0.617,1.779c-3.351,2.447-3.604,6.045-3.61,9.66c-0.045,23.387-0.039,46.783,0,70.172
		c0,3.621,0.286,7.205,3.624,9.658c0.429,0.316,0.76,1.318,0.575,1.779c-0.173,0.445-1.073,0.838-1.656,0.848
		c-4.439,0.068-8.879,0.068-13.313,0.006c-0.575-0.012-1.65-0.609-1.621-0.826c0.09-0.756,0.381-1.68,0.932-2.156
		C781.682,750.607,782.339,748,782.484,745.162z"/>
	<path fill-rule="evenodd" clip-rule="evenodd" fill="#FFFFFF" d="M1121.501,542.598c5.107,7.166,10.108,14.166,15.102,21.172
		c2.373,3.336,4.707,6.699,7.106,10.016c5.266,7.266,11.861,12.646,20.822,14.721c0.734,0.172,1.298,1.045,1.942,1.598
		c-0.745,0.426-1.46,1.164-2.23,1.229c-8.235,0.709-15.861-1.34-21.665-7.17c-5.075-5.1-9.343-11.039-13.671-16.818
		c-5.009-6.689-9.727-13.592-14.494-20.455c-0.832-1.191-1.653-1.609-3.132-1.516c-3.488,0.219-6.998,0.213-10.494,0.191
		c-1.499-0.014-2.153,0.451-2.138,2.039c0.104,11.1,0.138,22.193,0.225,33.291c0.021,2.752,0.883,5.156,3.067,7.031
		c0.562,0.484,0.745,1.408,1.103,2.129c-0.726,0.328-1.446,0.922-2.183,0.936c-4.183,0.09-8.365,0.08-12.548,0
		c-0.681-0.014-1.886-0.475-1.915-0.814c-0.063-0.711,0.286-1.727,0.832-2.18c2.373-1.973,3.229-4.539,3.269-7.473
		c0.063-4.865,0.098-9.73,0.101-14.594c0.011-18.955,0-37.911,0.008-56.866c0-3.841-0.313-7.525-3.674-10.18
		c-0.432-0.336-0.792-1.575-0.617-1.724c0.591-0.498,1.422-0.928,2.19-0.97c6.726-0.382,13.462-0.609,20.187-1.007
		c5.767-0.342,11.21,0.642,16.28,3.465c6.839,3.814,10.296,9.79,10.831,17.445C1136.454,525.375,1134.146,535.396,1121.501,542.598z
		 M1098.946,541.543c2.792,0,5.496,0.387,8.039-0.086c3.793-0.707,7.812-1.383,11.141-3.177
		c10.961-5.909,11.017-22.675,6.021-30.711c-4.439-7.141-11.337-8.73-19.12-7.866c-4.733,0.524-6.018,1.703-6.107,6.484
		c-0.207,11.326-0.17,22.658-0.223,33.99C1098.697,540.506,1098.813,540.832,1098.946,541.543z"/>
	<path fill-rule="evenodd" clip-rule="evenodd" fill="#FFFFFF" d="M1186.159,573.74c2.522-4.77,4.718-8.885,6.882-13.014
		c8.421-16.084,16.845-32.168,25.238-48.265c1.613-3.096,3.12-6.248,4.644-9.396c0.681-1.406,0.808-2.715-0.599-3.909
		c-0.487-0.413-0.964-1.595-0.733-1.929c0.399-0.577,1.354-1.067,2.087-1.08c4.606-0.102,9.216-0.102,13.822-0.011
		c0.728,0.016,1.438,0.673,2.155,1.038c-0.399,0.707-0.778,1.431-1.216,2.116c-0.121,0.199-0.392,0.353-0.627,0.421
		c-4.938,1.441-7.081,5.489-9.227,9.647c-14.314,27.808-28.692,55.577-43.027,83.376c-3.211,6.221-6.982,11.936-13.316,15.434
		c-2.95,1.629-6.034,2.943-9.488,2.398c-0.922-0.146-1.724-1.061-2.58-1.621c0.816-0.422,1.603-1.121,2.456-1.219
		c5.162-0.594,7.79-4.324,10.076-8.254c2.741-4.707,5.244-9.563,7.618-14.469c0.537-1.107,0.566-2.893,0.056-4.018
		c-8.223-18.264-16.577-36.473-24.889-54.691c-3.112-6.823-6.19-13.662-9.287-20.491c-1.375-3.035-3.266-5.563-6.498-6.887
		c-0.585-0.241-0.939-1.036-1.4-1.573c0.574-0.403,1.144-1.145,1.727-1.155c5.717-0.096,11.433-0.101,17.151-0.042
		c0.557,0.005,1.457,0.506,1.568,0.938c0.113,0.45-0.402,1.261-0.866,1.632c-3.433,2.726-3.902,4.237-2.101,8.222
		c9.117,20.107,18.264,40.199,27.399,60.293C1184.062,569.16,1184.943,571.084,1186.159,573.74z"/>
	<path fill-rule="evenodd" clip-rule="evenodd" fill="#FFFFFF" d="M1058.432,590.242c0.254-0.67,0.353-1.518,0.813-2.045
		c2.087-2.389,1.522-4.785,0.405-7.365c-2.032-4.693-3.955-9.438-5.817-14.203c-0.58-1.488-1.393-2.051-3.024-2.041
		c-13.748,0.059-27.49,0.063-41.232-0.004c-1.711-0.008-2.646,0.566-3.313,2.107c-1.937,4.455-3.934,8.885-5.986,13.287
		c-1.404,3.01-1.563,5.705,1.224,8.084c0.575,0.492,0.811,1.391,1.312,2.299c-0.835,0.293-1.37,0.637-1.905,0.643
		c-4.523,0.045-9.048,0.066-13.569-0.018c-0.642-0.01-1.505-0.486-1.823-1.014c-0.203-0.348,0.204-1.471,0.649-1.734
		c7.623-4.547,8.948-13.043,12.319-20.1c7.388-15.453,14.15-31.209,21.151-46.848c3.486-7.783,6.935-15.578,10.402-23.365
		c0.104-0.236,0.172-0.504,0.334-0.691c0.747-0.869,1.521-1.72,2.285-2.575c0.713,0.898,1.675,1.69,2.101,2.707
		c6.39,15.252,12.699,30.541,19.04,45.815c5.431,13.068,10.855,26.133,16.314,39.186c1.007,2.412,2.45,4.457,4.978,5.6
		c0.537,0.244,1.044,1.137,1.064,1.75c0.014,0.381-0.897,1.143-1.401,1.148c-5.191,0.059-10.386,0.006-15.58-0.047
		C1058.975,590.818,1058.781,590.523,1058.432,590.242z M1050.612,559.021c-6.543-15.688-12.935-31.019-19.32-46.345
		c-0.229,0.005-0.459,0.011-0.687,0.019c-6.895,15.382-13.787,30.766-20.757,46.326
		C1023.578,559.021,1036.841,559.021,1050.612,559.021z"/>
	<path fill-rule="evenodd" clip-rule="evenodd" fill="#FFFFFF" d="M967.009,740.844c5.74-11.342,11.298-22.277,16.813-33.238
		c6.095-12.102,12.15-24.229,18.214-36.348c0.611-1.219,1.417-2.438,1.621-3.732c0.18-1.156-0.311-2.439-0.577-3.646
		c-0.173-0.785-0.756-1.584-0.628-2.281c0.071-0.385,1.231-0.787,1.904-0.803c4.352-0.068,8.707-0.068,13.059,0
		c0.673,0.016,1.335,0.512,2.005,0.781c-0.405,0.781-0.611,1.838-1.25,2.297c-1.65,1.176-3.904,1.732-5.16,3.184
		c-1.965,2.287-3.522,5.002-4.882,7.719c-9.612,19.209-19.124,38.473-28.684,57.709c-3.452,6.949-6.985,13.857-10.405,20.82
		c-0.729,1.482-1.401,2.447-3.351,2.484c-2.077,0.041-2.596-1.223-3.224-2.623c-6.272-13.906-12.532-27.824-18.807-41.727
		c-6.275-13.916-12.529-27.832-18.887-41.699c-1.253-2.73-3.02-5.137-6.18-6.129c-0.585-0.184-0.89-1.248-1.324-1.904
		c0.63-0.313,1.261-0.896,1.896-0.9c5.889-0.072,11.782-0.072,17.67-0.006c0.623,0.01,1.24,0.578,1.86,0.885
		c-0.393,0.609-0.654,1.4-1.206,1.795c-3.144,2.264-3.708,3.717-2.055,7.57c3.363,7.83,6.879,15.598,10.372,23.375
		c6.678,14.85,13.38,29.688,20.087,44.523C966.127,739.477,966.475,739.949,967.009,740.844z"/>
	<path fill-rule="evenodd" clip-rule="evenodd" fill="#FFFFFF" d="M1064.593,669.705c-0.951-0.434-1.403-0.486-1.528-0.715
		c-1.74-3.23-4.73-3.109-7.782-3.063c-4.948,0.08-9.904,0.139-14.847-0.027c-2.233-0.074-3.118,0.924-3.375,2.857
		c-0.146,1.1-0.235,2.211-0.238,3.316c-0.016,8.963-0.023,17.928-0.003,26.891c0.006,3.531,1.404,4.936,4.98,4.961
		c5.462,0.037,10.939,0.213,16.383-0.104c1.82-0.105,3.57-1.525,5.343-2.361c0.71-0.334,1.401-0.711,2.104-1.07
		c0.249,0.684,0.699,1.359,0.718,2.045c0.076,3.074,0.071,6.148-0.008,9.217c-0.019,0.6-0.498,1.188-0.766,1.777
		c-0.569-0.277-1.364-0.404-1.674-0.859c-1.664-2.422-4.008-2.871-6.724-2.816c-5.038,0.102-10.07,0.014-15.106,0.035
		c-3.988,0.021-5.25,1.26-5.255,5.164c-0.008,9.732-0.008,19.459,0.008,29.191c0.003,1.191,0.048,2.402,0.257,3.57
		c0.318,1.785,1.359,2.953,3.295,2.951c8.62-0.016,17.239,0.031,25.855-0.164c3.211-0.07,5.844-1.691,7.74-4.383
		c0.435-0.611,0.928-1.271,1.553-1.646c1.128-0.678,1.926-0.445,2.031,1.092c0.376,5.455-3.605,10.07-9.072,10.102
		c-13.827,0.086-27.654,0.053-41.483-0.004c-0.909-0.006-1.814-0.609-2.718-0.934c0.472-0.836,0.784-1.846,1.448-2.479
		c2.175-2.061,2.773-4.678,2.776-7.459c0.029-24.41,0.032-48.824-0.003-73.236c-0.005-2.879-0.683-5.557-3.032-7.602
		c-0.615-0.531-0.816-1.537-1.205-2.326c0.837-0.291,1.674-0.826,2.508-0.832c10.757-0.047,21.512-0.074,32.266,0.016
		c4.512,0.037,5.555,1.238,5.555,5.689C1064.593,667.402,1064.593,668.303,1064.593,669.705z"/>
	<path fill-rule="evenodd" clip-rule="evenodd" fill="#FFFFFF" d="M1255.676,573.047c0.679,0.973,1.545,1.859,2,2.922
		c2.233,5.238,6.005,8.633,11.626,9.748c6.667,1.324,13.159,0.924,18.831-3.238c6.672-4.9,7.976-13.832,3.422-21.619
		c-3.052-5.219-7.764-8.75-12.447-12.328c-6.836-5.219-13.858-10.256-18.841-17.469c-7.236-10.466-4.371-25.156,6.079-31.458
		c5.054-3.043,10.664-3.852,16.301-3.097c4.925,0.657,9.734,2.241,14.548,3.587c0.63,0.175,1.329,1.341,1.388,2.096
		c0.183,2.291,0.153,4.608,0.016,6.905c-0.047,0.739-0.54,1.819-1.104,2.045c-0.489,0.196-1.589-0.427-2.047-0.991
		c-3.01-3.692-6.368-6.842-11.02-8.407c-9.645-3.242-19.631,2.337-20.796,11.756c-0.607,4.893,0.998,9.361,4.399,12.646
		c4.938,4.772,10.455,8.942,15.682,13.421c4.386,3.76,9.136,7.213,12.958,11.484c6.153,6.875,7.787,15.234,4.532,23.896
		c-3.46,9.205-10.484,14.602-20.304,15.801c-8.235,1.006-16.327-0.461-24.313-2.387c-0.755-0.182-1.857-1.145-1.879-1.775
		c-0.164-4.381-0.087-8.771-0.087-13.164C1254.972,573.299,1255.326,573.172,1255.676,573.047z"/>
	<path fill-rule="evenodd" clip-rule="evenodd" fill="#FFFFFF" d="M733.02,591.199c-4.778-0.832-10.229-1.77-15.681-2.717
		c-1.695-0.297-2.458-1.363-2.453-3.059c0.011-3.244-0.058-6.486,0.043-9.727c0.021-0.797,0.582-1.578,0.896-2.367
		c0.646,0.594,1.589,1.059,1.888,1.793c1.751,4.273,4.45,7.59,8.707,9.602c7.237,3.418,19.014,1.51,24.152-3.994
		c4.933-5.281,5.414-13.344,1.25-20.166c-3.046-4.998-7.591-8.436-12.126-11.93c-7.02-5.4-14.31-10.523-19.3-18.1
		c-6.808-10.33-3.954-24.448,6.278-30.856c3.719-2.325,7.872-3.097,12.192-3.351c6.553-0.387,12.675,1.321,18.64,3.725
		c0.652,0.262,1.33,1.324,1.383,2.058c0.175,2.376,0.133,4.776,0.021,7.163c-0.026,0.662-0.572,1.306-0.874,1.954
		c-0.705-0.352-1.613-0.526-2.077-1.078c-3.123-3.703-6.506-6.998-11.295-8.466c-6.129-1.869-11.708-0.863-16.417,3.508
		c-5.433,5.038-5.69,13.148-0.798,19.781c4.484,6.082,10.696,10.214,16.704,14.553c6.312,4.559,12.5,9.219,16.288,16.299
		c7.645,14.279-1.926,32.84-18.008,34.797C739.568,590.971,736.665,590.986,733.02,591.199z"/>
	<path fill-rule="evenodd" clip-rule="evenodd" fill="#FFFFFF" d="M794.709,589.996c0.602-0.777,0.999-1.527,1.598-2.029
		c2.45-2.039,3.216-4.756,3.224-7.766c0.011-24.326,0.008-48.66,0.003-72.986c0-0.509-0.037-1.022-0.085-1.531
		c-0.393-3.807-0.769-4.185-4.487-4.147c-6.998,0.065-13.994,0.042-20.981,0.32c-2.896,0.113-5.772,0.829-7.324,3.88
		c-0.218,0.43-1.208,0.795-1.69,0.663c-0.418-0.117-1.006-1.134-0.866-1.5c0.994-2.59,1.814-5.361,3.409-7.554
		c0.843-1.155,3.126-1.76,4.758-1.757c15.273,0.016,30.547,0.273,45.819,0.337c5.547,0.026,11.089-0.303,16.635-0.413
		c4.339-0.091,9.067,5.758,8.059,9.948c-0.096,0.403-0.583,0.97-0.911,0.988c-0.509,0.026-1.312-0.212-1.519-0.591
		c-2.19-3.963-6.113-4.135-9.816-4.265c-6.481-0.223-12.972-0.021-19.461-0.093c-1.669-0.019-2.636,0.609-2.853,2.215
		c-0.247,1.854-0.512,3.727-0.512,5.592c-0.04,22.79-0.016,45.581-0.031,68.378c-0.006,3.998,0.209,7.846,3.75,10.645
		c1.081,0.854,1.341,2.459-0.551,2.521c-4.932,0.168-9.877-0.004-14.817-0.092C795.708,590.756,795.358,590.379,794.709,589.996z"/>
	<path fill-rule="evenodd" clip-rule="evenodd" fill="#FFFFFF" d="M1256.836,708.287c0,11.445-0.005,22.883,0,34.322
		c0,3.902,0.207,7.658,3.717,10.398c1.366,1.07,0.826,2.506-0.917,2.555c-4.608,0.137-9.221,0.146-13.821,0
		c-1.833-0.061-2.271-1.334-0.818-2.518c3.258-2.646,3.597-6.156,3.592-9.924c-0.024-23.309-0.008-46.613-0.011-69.924
		c0-7.141-0.011-7.141-6.945-7.141c-5.035,0-10.076-0.096-15.109,0.025c-4.19,0.105-8.458,0.223-11.032,4.482
		c-0.207,0.348-1.145,0.578-1.525,0.396c-0.39-0.186-0.718-0.932-0.727-1.436c-0.095-5.975,3.854-9.371,9.873-9.336
		c19.882,0.113,39.762,0.057,59.642-0.082c5.083-0.037,9.827,4.619,9.223,9.662c-0.058,0.475-0.548,1.145-0.967,1.262
		c-0.442,0.127-1.324-0.145-1.525-0.512c-2.167-3.91-6.008-4.289-9.742-4.406c-6.569-0.201-13.149-0.01-19.721-0.09
		c-1.611-0.021-2.411,0.609-2.599,2.104c-0.236,1.854-0.554,3.723-0.562,5.582C1256.807,685.236,1256.836,696.764,1256.836,708.287z
		"/>
	<path fill-rule="evenodd" clip-rule="evenodd" fill="#FFFFFF" d="M904.555,660.811c2.22,0,4.442-0.055,6.656,0.041
		c0.586,0.023,1.491,0.404,1.64,0.834c0.167,0.479-0.167,1.441-0.602,1.779c-3.4,2.623-3.737,6.311-3.737,10.145
		c0.006,23.131,0,46.266,0.006,69.4c0,3.752,0.368,7.348,3.689,9.902c0.442,0.338,0.795,1.287,0.636,1.771
		c-0.146,0.443-1.038,0.898-1.607,0.904c-4.522,0.074-9.044,0.076-13.567,0c-0.57-0.006-1.452-0.467-1.611-0.922
		c-0.156-0.445,0.263-1.354,0.708-1.707c2.993-2.381,3.57-5.613,3.567-9.164c-0.029-23.729-0.029-47.463,0-71.191
		c0.003-3.555-0.591-6.777-3.589-9.154c-0.448-0.352-0.911-1.441-0.721-1.684c0.397-0.504,1.213-0.895,1.878-0.922
		c2.215-0.111,4.435-0.043,6.654-0.043C904.555,660.807,904.555,660.811,904.555,660.811z"/>
	<path fill-rule="evenodd" clip-rule="evenodd" fill="#FFFFFF" d="M1199.253,660.795c2.135-0.002,4.27-0.074,6.396,0.039
		c0.662,0.037,1.508,0.416,1.865,0.926c0.204,0.291-0.226,1.383-0.67,1.721c-3.189,2.4-3.603,5.834-3.605,9.398
		c-0.021,23.543-0.021,47.086-0.005,70.629c0.005,3.566,0.399,7.004,3.581,9.412c0.444,0.338,0.823,1.264,0.678,1.742
		c-0.138,0.443-1.022,0.914-1.587,0.92c-4.516,0.082-9.037,0.082-13.554,0.01c-0.567-0.01-1.457-0.473-1.605-0.93
		c-0.153-0.453,0.265-1.348,0.707-1.717c2.898-2.428,3.526-5.604,3.519-9.184c-0.051-23.633-0.054-47.254,0.002-70.889
		c0.011-3.66-0.551-6.936-3.544-9.424c-0.445-0.367-0.903-1.457-0.71-1.697c0.397-0.502,1.216-0.881,1.884-0.914
		C1194.816,660.732,1197.036,660.795,1199.253,660.795z"/>
	<path fill-rule="evenodd" clip-rule="evenodd" fill="#FFFFFF" d="M816.901,583.824c-0.056-4.746,3.457-8.727,7.793-8.842
		c4.381-0.105,7.944,3.678,8.028,8.535c0.085,4.773-3.43,8.799-7.734,8.869C820.699,592.457,816.957,588.492,816.901,583.824z"/>
	<path fill-rule="evenodd" clip-rule="evenodd" fill="#FFFFFF" d="M380.352,572.35c0-11.043,0-21.684,0-32.564
		c1.232-0.064,2.228-0.15,3.224-0.154c8.879-0.01,17.758-0.082,26.634,0.049c2.318,0.033,2.855-0.732,2.84-2.93
		c-0.09-12.207-0.098-24.412,0.029-36.618c0.016-1.436,0.649-3.221,1.627-4.232c12.012-12.472,24.075-24.895,36.275-37.18
		c4.858-4.89,10.082-9.422,15.269-14.235c1.372,1.338,3.459,3.29,5.456,5.335c15.062,15.425,30.123,30.852,45.11,46.355
		c0.823,0.853,1.351,2.362,1.361,3.575c0.098,12.121,0.059,24.242,0.059,36.366c0,1.081,0,2.159,0,3.511c1.329,0,2.249,0,3.173,0
		c8.879,0,17.758,0.057,26.632-0.043c2.093-0.021,2.803,0.551,2.776,2.715c-0.109,9.049,0.039,18.1-0.102,27.145
		c-0.039,2.432,0.764,2.971,3.047,2.955c12.72-0.102,25.439-0.129,38.159-0.033c19.357,0.146,34.536,8.275,45.271,24.381
		c12.845,19.268,10.636,46.467-5.062,63.637c-10.778,11.787-24.237,17.625-40.184,17.691c-12.635,0.055-25.27,0.008-37.905,0.012
		c-3.263,0-3.269,0.004-3.269,3.387c-0.005,8.625-0.002,17.244-0.002,25.869c0,0.926,0,1.854,0,3.066
		c-1.084,0.084-1.979,0.201-2.869,0.207c-4.101,0.021-8.201-0.041-12.296,0.021c-5.68,0.09-11.361,0.264-17.04,0.402
		c-0.109,5.695-0.273,11.391-0.315,17.09c-0.059,7.34-0.053,14.68,0.013,22.023c0.017,1.814-0.469,3.141-1.804,4.496
		c-16.394,16.758-32.705,33.588-49.051,50.393c-0.522,0.541-1.145,0.975-1.304,1.107c-4.879-4.625-9.761-9.012-14.364-13.674
		c-12.039-12.184-23.917-24.525-35.953-36.715c-1.992-2.016-2.896-4.031-2.853-6.932c0.172-11.783,0.019-23.564,0.119-35.342
		c0.016-2.23-0.599-2.945-2.883-2.912c-8.791,0.125-17.585,0.051-26.377,0.051c-1.012,0-2.026,0-3.351,0c0-10.855,0-21.482,0-32.385
		c-1.279-0.059-2.265-0.15-3.25-0.15c-12.55-0.008-25.101-0.004-37.648-0.004c-22.666-0.004-41.582-12.674-50.137-33.586
		c-9.136-22.32-0.66-49.625,19.451-62.98c9.308-6.182,19.498-9.199,30.642-9.18c12.466,0.029,24.931,0.01,37.394,0.01
		C377.906,572.35,378.918,572.35,380.352,572.35z M540.682,664.297c0.654,0.09,1.067,0.186,1.478,0.186
		c16.905,0.045,33.813,0.365,50.71,0.045c17.111-0.326,29.514-8.725,36.194-24.361c10.981-25.727-8.379-54.322-36.396-54.35
		c-22.539-0.021-45.078-0.006-67.62-0.006c-4.948,0-9.904,0.055-14.854-0.025c-1.674-0.027-2.268,0.568-2.226,2.225
		c0.085,3.07,0.021,6.146,0.024,9.219c0.002,3.957,0.002,3.957,4.063,3.957c26.552,0,53.106,0.111,79.658-0.037
		c16.492-0.096,28.267,14.494,24.067,30.361c-2.865,10.828-12.33,17.705-23.802,17.73c-15.962,0.029-31.93,0.008-47.896,0.008
		c-1.092,0-2.183,0-3.401,0C540.682,654.385,540.682,659.217,540.682,664.297z M423.374,664.354c0-3.902,0-7.479-0.002-11.055
		c-0.003-4.047-0.006-4.051-4.04-4.051c-26.722-0.004-53.44,0.041-80.16-0.018c-18.324-0.039-29.859-17.965-22.035-34.516
		c4.359-9.217,12.219-13.469,22.312-13.512c15.877-0.066,31.755-0.012,47.634-0.029c1.147,0,2.297-0.143,3.647-0.232
		c0-4.197-0.143-8.119,0.051-12.025c0.124-2.484-0.696-3.17-3.16-3.158c-16.134,0.104-32.269,0.088-48.402,0.037
		c-5.279-0.018-10.323,0.938-15.244,2.818c-21.403,8.176-31.35,34.986-20.187,54.961c7.838,14.021,19.984,21.033,36.063,21.033
		c26.889,0,53.777-0.066,80.666-0.115C421.351,664.492,422.185,664.414,423.374,664.354z M464.988,463.609
		c0.132-0.108-0.23,0.13-0.525,0.429c-12.067,12.392-24.109,24.81-36.226,37.153c-1.377,1.404-1.87,2.832-1.864,4.752
		c0.053,21.85,0.031,43.705,0.031,65.557c0,2.99,0.069,5.979-0.019,8.963c-0.048,1.68,0.606,2.254,2.257,2.215
		c3.24-0.088,6.487-0.018,9.729-0.027c3.576-0.008,3.584-0.016,3.584-3.498c0.003-22.451-0.016-44.903,0.05-67.354
		c0.006-1.248,0.34-2.829,1.134-3.688c4.164-4.503,8.477-8.874,12.837-13.191c3.253-3.216,6.659-6.278,10.087-9.502
		c-0.032-0.023,0.251,0.159,0.481,0.396c7.205,7.377,14.437,14.729,21.557,22.187c0.769,0.808,1.229,2.235,1.24,3.38
		c0.09,11.781,0.053,23.559,0.053,35.34c0,0.996,0,1.99,0,2.971c5.287,0,10.243,0,15.252,0c0.051-0.771,0.114-1.277,0.116-1.783
		c0.026-14.428,0.082-28.852,0.011-43.276c-0.005-1.022-0.73-2.236-1.48-3.02c-7.316-7.635-14.619-15.281-22.107-22.746
		C476.002,473.696,470.534,468.812,464.988,463.609z M441.959,700.482c-4.752,0-9.012,0.066-13.266-0.033
		c-1.813-0.043-2.323,0.629-2.315,2.383c0.056,14.172,0,28.344,0.09,42.514c0.011,1.129,0.609,2.518,1.396,3.338
		c9.109,9.465,18.279,18.873,27.503,28.227c3.391,3.438,6.961,6.699,10.542,10.125c0.44-0.387,1.047-0.848,1.571-1.389
		c11.713-12.025,23.381-24.1,35.158-36.063c1.637-1.666,2.26-3.311,2.252-5.615c-0.109-24.412-0.111-48.832-0.141-73.246
		c-0.003-0.906,0-1.809,0-2.951c-4.305,0-8.228,0.145-12.135-0.053c-2.559-0.133-3.298,0.615-3.284,3.27
		c0.113,22.619,0.082,45.242,0.016,67.865c-0.003,1.148-0.413,2.58-1.165,3.381c-4.789,5.1-9.711,10.063-14.617,15.049
		c-2.611,2.652-5.279,5.254-7.951,7.908c-0.43-0.33-0.801-0.551-1.092-0.852c-6.823-7.037-13.563-14.162-20.513-21.076
		c-1.647-1.637-2.098-3.246-2.085-5.402c0.072-11.354,0.035-22.707,0.035-34.064C441.959,702.787,441.959,701.783,441.959,700.482z
		 M393.935,697.209c1.113,0,1.961,0,2.803,0c14.336,0,28.671,0.045,43.004-0.014c9.74-0.039,17.136-4.408,21.623-12.977
		c4.238-8.098,3.771-16.309-1.145-24.08c-3.47-5.486-8.471-8.891-15.21-10.459c0,5.398-0.026,10.488,0.037,15.57
		c0.006,0.51,0.456,1.086,0.843,1.5c2.686,2.885,3.634,6.123,2.023,9.859c-1.669,3.883-4.874,5.229-8.863,5.223
		c-9.218-0.006-18.433,0-27.648-0.006c-0.651-0.004-1.303-0.115-2.246-0.211c0-4.602,0-9.078,0-13.697c-5.218,0-10.124,0-15.221,0
		C393.935,677.637,393.935,687.229,393.935,697.209z M508.164,697.209c9.144,0,17.925-0.072,26.7,0.051
		c2.223,0.031,2.679-0.758,2.668-2.793c-0.071-14.5,0.039-29-0.062-43.498c-0.124-18.154-19.045-29.658-35.155-21.34
		c-6.524,3.369-10.633,8.803-12.418,16.33c5.388,0,10.479,0.035,15.573-0.039c0.563-0.012,1.188-0.564,1.668-0.994
		c2.854-2.572,6.071-3.486,9.671-1.91c3.571,1.568,5.174,4.473,5.163,8.355c-0.029,9.297-0.006,18.594-0.019,27.893
		c0,0.807-0.116,1.615-0.196,2.67c-4.662,0-9.059,0-13.594,0C508.164,687.098,508.164,692.004,508.164,697.209z M423.221,553.303
		c-0.97-0.057-1.801-0.141-2.628-0.141c-8.023-0.012-16.047,0.084-24.062-0.064c-2.342-0.041-2.838,0.764-2.824,2.93
		c0.082,14.248-0.021,28.496,0.101,42.748c0.024,2.77,0.355,5.684,1.259,8.285c5.856,16.873,26.231,21.92,39.324,9.748
		c3.508-3.256,5.989-7.258,6.71-12.143c-0.438-0.141-0.599-0.238-0.758-0.238c-4.265-0.02-8.534-0.154-12.794,0.029
		c-1.367,0.055-2.951,0.66-4.01,1.525c-5.073,4.15-13.6,1.697-13.992-4.729c-0.656-10.77-0.18-21.604-0.18-32.732
		c4.71,0,9.269,0,13.854,0C423.221,563.285,423.221,558.381,423.221,553.303z M486.248,600.623c0-5.43,0.021-10.373-0.032-15.313
		c-0.005-0.527-0.318-1.174-0.699-1.555c-2.896-2.861-3.952-6.156-2.257-9.986c1.732-3.92,4.959-5.252,9.117-5.203
		c8.964,0.111,17.928,0.029,26.891,0.041c0.819,0,1.635,0.098,2.697,0.162c0,3.951,0.085,7.697-0.035,11.432
		c-0.058,1.924,0.639,2.543,2.517,2.484c3.584-0.111,7.171-0.111,10.755-0.002c1.836,0.055,2.331-0.682,2.317-2.408
		c-0.061-8.189-0.087-16.389,0.017-24.582c0.026-2.066-0.687-2.584-2.654-2.574c-14.686,0.068-29.371-0.047-44.051,0.111
		c-2.84,0.029-5.849,0.566-8.466,1.643c-13.215,5.42-18.854,19.641-12.897,32.629C472.664,594.469,478.232,598.791,486.248,600.623z
		 M394.459,645.98c4.747,0,9.256,0.107,13.753-0.066c1.282-0.053,2.75-0.633,3.759-1.441c3.102-2.469,6.811-2.938,10.238-0.939
		c3.041,1.771,4.186,4.574,4.19,7.943c0.016,8.279,0.053,16.555-0.026,24.824c-0.019,1.893,0.554,2.555,2.479,2.48
		c3.578-0.139,7.165-0.064,10.749-0.027c1.536,0.012,2.384-0.461,2.367-2.193c-0.079-9.037,0.165-18.092-0.201-27.121
		c-0.405-10.1-7.56-18.783-17.156-21.627c-9.507-2.818-19.933,0.641-25.996,8.709C396.568,639.246,394.986,642.225,394.459,645.98z
		 M486.264,696.359c0-4.35-0.037-8.51,0.016-12.672c0.026-1.916-0.082-3.592-1.727-5.047c-0.938-0.83-1.489-2.307-1.807-3.59
		c-1.394-5.566,2.818-10.479,9.048-10.531c8.271-0.072,16.542-0.059,24.814,0.01c1.788,0.02,2.411-0.582,2.36-2.352
		c-0.098-3.412-0.122-6.826,0.003-10.232c0.082-2.143-0.736-2.764-2.824-2.738c-8.356,0.1-16.717-0.08-25.068,0.113
		c-2.848,0.064-5.854,0.471-8.479,1.5c-11.874,4.648-17.744,16.451-14.629,28.852C470.058,687.961,478.179,695.549,486.264,696.359z
		 M444.979,553.787c0,4.729-0.106,9.229,0.068,13.715c0.048,1.293,0.646,2.76,1.452,3.789c2.302,2.945,2.826,6.479,1.176,9.826
		c-1.844,3.752-5.117,4.707-8.938,4.699c-7.94-0.016-15.882,0.059-23.818-0.043c-2.039-0.025-2.707,0.631-2.622,2.645
		c0.138,3.326,0.122,6.662,0.005,9.986c-0.068,2.088,0.663,2.844,2.803,2.818c8.452-0.096,16.916,0.195,25.353-0.154
		c3.485-0.148,7.226-0.939,10.309-2.508c8.898-4.52,13.264-11.992,13.282-22.131C464.066,566.182,455.624,555.635,444.979,553.787z
		 M536.875,604.385c-4.019,0-7.589,0.049-11.159-0.016c-2.821-0.051-5.632-0.277-7.672,2.314c-0.328,0.42-1.022,0.594-1.578,0.779
		c-6.09,2.014-11.607-1.813-11.687-8.242c-0.102-8.369-0.08-16.736,0.01-25.102c0.021-1.906-0.535-2.549-2.46-2.469
		c-3.409,0.143-6.832,0.146-10.243,0c-2.193-0.09-2.744,0.795-2.727,2.85c0.088,8.451-0.053,16.906,0.094,25.355
		c0.042,2.434,0.437,4.969,1.231,7.27c4.599,13.277,18.521,19.785,31.693,14.586C529.953,618.727,534.796,613.008,536.875,604.385z"
		/>
	<polygon fill="#F2BF48" points="1468.223,109.018 1468.223,917.053 822.798,1030.555 200.616,917.273 200.616,109.018 
		189.767,109.018 189.767,926.326 821.81,1041.4 822.766,1041.574 1479.072,926.162 1479.072,109.018 	"/>
</g>
</svg>
