<svg width="264" height="100" xmlns="http://www.w3.org/2000/svg"><g fill="none"><path d="M124.945 64.628c-.786 0-1.58-.112-2.382-.332-.802-.224-1.534-.65-2.195-1.282-.66-.632-1.196-1.494-1.605-2.586-.408-1.092-.612-2.52-.612-4.295V41.09c0-1.74.205-3.164.614-4.272.408-1.107.944-1.97 1.604-2.585a5.228 5.228 0 012.195-1.258 8.964 8.964 0 012.382-.333 8.79 8.79 0 012.337.333c.802.22 1.532.64 2.193 1.258.662.616 1.197 1.478 1.605 2.585.408 1.108.613 2.532.613 4.27v.76h-1.51v-.76c0-2.435-.44-4.206-1.32-5.313-.914-1.107-2.218-1.662-3.918-1.662-1.73 0-3.05.555-3.963 1.662-.882 1.105-1.32 2.878-1.32 5.314V56.13c0 2.436.455 4.223 1.367 5.363.85 1.106 2.153 1.66 3.915 1.66 1.7 0 3.004-.552 3.917-1.66.88-1.17 1.322-2.958 1.322-5.363v-.76h1.51v.76c0 1.773-.206 3.202-.615 4.294-.41 1.092-.943 1.954-1.605 2.587-.66.632-1.392 1.06-2.193 1.282a8.752 8.752 0 01-2.337.33v.003zm19.77-27.952l-3.82 16.704h7.69l-3.868-16.704zm-6.37 27.952h-1.508l2.5-11.106v-.142l4.813-20.738h1.182l7.264 31.986h-1.51l-2.17-9.777h-8.4l-2.17 9.778zm25.105-16.515c2.105 0 3.603-.538 4.483-1.613.943-1.14 1.416-2.942 1.416-5.41 0-2.5-.458-4.287-1.37-5.364-.914-1.075-2.423-1.613-4.53-1.613h-4.247v14h4.247zm5.332 1.946c1.414 1.358 2.123 3.243 2.123 5.645v8.875h-1.51v-8.875c0-1.93-.52-3.423-1.558-4.484-1.037-1.058-2.5-1.588-4.387-1.588h-4.247V64.58h-1.464V32.596h5.71c2.547 0 4.41.687 5.59 2.064 1.18 1.377 1.772 3.52 1.772 6.43 0 2.848-.583 4.968-1.748 6.36-.502.6-1.13 1.09-1.886 1.47a5.706 5.706 0 011.605 1.14zm7.406 14.568V32.642h1.51v30.515h10.665v1.47h-12.175zm18.026-30.515v13.763h9.956v1.47h-9.956v13.81h9.956v1.472h-11.417V32.642h11.417v1.47h-9.956zm31.662 0h-7.643V64.58h-1.463V34.113h-7.598v-1.517h16.704v1.517zm11.56 0c-1.79 0-3.098.555-3.915 1.662-.913 1.17-1.367 2.942-1.367 5.314V56.13c0 2.405.454 4.192 1.368 5.363.85 1.106 2.154 1.66 3.917 1.66 1.73 0 3.05-.552 3.963-1.66.882-1.108 1.322-2.895 1.322-5.363V41.09c0-2.437-.442-4.208-1.322-5.315-.88-1.107-2.203-1.662-3.963-1.662zm0 30.513a8.718 8.718 0 01-2.333-.33c-.804-.224-1.536-.65-2.195-1.282-.662-.632-1.197-1.494-1.605-2.586-.408-1.092-.615-2.52-.615-4.295V41.09c0-2.72.55-4.808 1.653-6.264 1.164-1.455 2.863-2.184 5.097-2.184 2.264 0 3.963.73 5.096 2.184 1.13 1.423 1.7 3.51 1.7 6.263V56.13c0 1.773-.207 3.202-.615 4.294-.407 1.092-.944 1.954-1.605 2.587-.66.632-1.39 1.06-2.193 1.282a8.846 8.846 0 01-2.382.33zm13.873.002h-1.51V32.642h1.272l10.948 27.382V32.642h1.51v31.986h-1.227L251.31 37.246v27.382zM23.636 37.526c.028-.02.06-.034.086-.055-.026.022-.058.037-.086.056zm-.29.145c.037-.012.075-.02.112-.038-.037.017-.075.026-.113.04zm-.297.076c.04-.007.083-.01.124-.018-.04.01-.083.013-.125.018zm-.618-.045a1.432 1.432 0 000 .001zm-.29-.112c.06.03.116.06.176.082-.06-.023-.117-.053-.175-.082zm.576.166c.053.005.107.01.16.01l-.028.002c-.043 0-.087-.008-.132-.012zm6.464-12.79l-.07.014.07-.014zm.26-.028h-.024.024zm.274.035l-.062-.013.062.014zm.416.176c-.02-.013-.04-.022-.06-.034.02.013.04.022.06.034zm1.784 2.662l-.002-.016a15.42 15.42 0 00-.248-1.296c-.21-.75-.553-1.303-1.017-1.653-.39-.302-.788-.452-1.212-.452a2.122 2.122 0 00-.808.172l-.02.01-.022.01c-.168.085-.332.18-.49.284l-.04.026-.034.036-.346.335-.04.04-.033.047-.404.603-.012.018-.01.02-.802 1.442-.74 1.436-.38.69a37.68 37.68 0 01-3.986 5.317 2.182 2.182 0 00-.515 1.42c0 .577.25 1.106.7 1.49.396.34.892.526 1.395.526.592 0 1.132-.25 1.518-.71a41.882 41.882 0 003.51-4.457c-.007.29-.015.586-.025.89l-.056 1.842c-.04 3.692-.123 8.708-.255 15.342-.135 6.724-.218 11.354-.256 14.154 0 .546.192 1.042.556 1.443.387.424.9.648 1.48.648.55 0 1.052-.194 1.45-.563.42-.386.64-.91.64-1.513.038-2.67.12-7.154.256-14.098.127-6.298.215-11.614.257-15.374l.055-1.823c.04-1.26.058-2.282.058-3.12 0-1.28-.04-2.34-.12-3.148l-.002-.014zm5.235 9.718c.032-.02.062-.034.09-.055-.028.022-.058.037-.09.055zm-.288.145c.037-.012.076-.02.113-.038-.037.017-.076.026-.114.04h.002zm-.296.076c.042-.007.084-.01.125-.018-.04.01-.082.013-.124.018zm-.617-.045c.054.017.108.033.164.043-.056-.01-.11-.026-.165-.042zm-.29-.112c.058.03.115.06.176.082-.06-.023-.118-.053-.175-.082zm.576.166c.053.005.106.01.16.01l-.03.002c-.042 0-.086-.008-.13-.012zm6.464-12.79c-.023.004-.047.008-.07.014l.07-.014zm.26-.028h-.023.024zm.277.035l-.063-.013.063.014zm.414.176c-.02-.013-.04-.022-.06-.034.02.013.04.022.06.034zm1.783 2.66v-.014c-.088-.547-.167-.96-.25-1.3-.213-.75-.554-1.3-1.016-1.65-.384-.3-.784-.45-1.21-.45-.264 0-.528.055-.81.17l-.022.01-.02.01c-.17.086-.332.18-.49.284l-.04.026-.034.034-.345.337-.04.04-.437.65-.013.018-.01.02-.802 1.442-.74 1.436-.38.69a37.738 37.738 0 01-3.986 5.317c-.346.42-.513.892-.513 1.42 0 .58.247 1.108.697 1.49.4.34.896.526 1.397.526.59 0 1.13-.25 1.52-.71a42.23 42.23 0 003.51-4.46l-.026.892-.057 1.842c-.038 3.668-.12 8.684-.254 15.344-.13 6.556-.217 11.316-.256 14.153 0 .547.192 1.043.555 1.443.38.417.904.648 1.478.648.553 0 1.054-.194 1.45-.563.422-.39.655-.94.642-1.513.04-2.863.13-7.742.256-14.098.13-6.57.217-11.74.256-15.374l.055-1.82c.04-1.322.058-2.313.058-3.12 0-1.315-.04-2.346-.12-3.15v-.014h-.002zm17.495 37.97l.276.027-.276-.027zm-1.498-.118l.202.013-.202-.012zm-1.505-.08c.088.004.175.01.263.013l-.263-.012zm-1.737-.052l.32.006-.32-.006zm-8.125.388c.042-.003.082-.003.125-.01-.043.007-.083.007-.125.01zm-1.2-.228l.02.014-.02-.014zm.904.244c.02 0 .036.004.055.004h-.015l-.04-.004zm-1.295-.57l.078.08a1.97 1.97 0 01-.078-.08zm1.616-25.642c.087.012.17.014.257.01l-.056.004c-.068 0-.135-.005-.202-.014zm7.39-14.836c-.058.004-.115.006-.174.013.06-.007.116-.01.175-.013zm.57-.02h-.18c.033 0 .07-.005.104-.005.025 0 .05.004.075.005zm.56.03l-.078-.006.08.006zm.69.122c-.05-.013-.1-.026-.15-.035.05.01.1.023.15.034zm.548.158l-.154-.048.154.048zm-5.9 37.303zm-.6 3.09l-.504.017.503-.016zm1.705-.04l-.464.008.465-.01zm1.75-.014h-.163.164zm-.017-3.072l-.582.003.39-.003h.193zm2.185.033c-.07-.002-.135-.006-.206-.007.07 0 .137.005.206.008zm2.26.097l-.562-.03.563.03zm1.844.132l-.522-.042.522.04zm1.766-.37c-2.452-.29-5.227-.438-8.247-.438-1.29 0-2.64.026-4.032.08l.697-1.59 2.215-4.866c.598-1.354 1.488-3.17 2.65-5.4l2.796-5.807c2.276-5.02 3.506-9.255 3.664-12.603a6.89 6.89 0 00-1.052-4.128c-.773-1.237-1.765-2.144-2.95-2.698a6.124 6.124 0 00-2.607-.57c-.43 0-.88.043-1.328.127-1.438.267-2.717 1.047-3.8 2.315-.97 1.14-1.93 2.906-2.856 5.244-.912 2.305-1.494 4.286-1.732 5.884a2.141 2.141 0 00.39 1.532c.37.544.988.867 1.645.86.442 0 .86-.14 1.24-.413a1.97 1.97 0 00.834-1.384c.177-1.287.654-2.938 1.422-4.905.752-1.934 1.48-3.316 2.164-4.11.553-.643 1.155-.95 1.9-.964h.062c.716 0 1.3.263 1.83.826.544.577.77 1.263.712 2.162-.143 2.85-1.242 6.57-3.267 11.06-.584 1.286-1.524 3.22-2.795 5.747-1.267 2.516-2.162 4.38-2.66 5.537l-2.21 4.8a56.314 56.314 0 00-1.37 3.223 9.362 9.362 0 00-.476 1.198c-.08.194-.133.397-.16.605a1.73 1.73 0 00-.066.46c0 .375.092.753.276 1.123.44.806 1.178 1.24 2.08 1.24.29 0 .595-.047.903-.138.177-.042.332-.09.465-.143 1.8-.095 3.604-.143 5.408-.146 2.917 0 5.545.145 7.806.426a2.005 2.005 0 001.5-.412 2.06 2.06 0 00.785-1.41c.07-.546-.078-1.1-.413-1.538a2.042 2.042 0 00-1.424-.79zm4.29-7.085c.023 0 .044.005.067.006a1.522 1.522 0 00-.253.008c.063-.008.125-.013.187-.013zm3.885 7.548c-.03-.026-.064-.05-.095-.08.03.03.064.053.095.08zm.323.245l-.114-.08.114.08zm.653.336l-.107-.044.106.044zm.342.1c-.012-.002-.02-.006-.03-.008l.028.008h.002zm.46.06c-.034 0-.07 0-.105-.005.034.003.07.003.105.004zm3.49-26.098l.07.022-.072-.022h.002zm-.862-.07c-.052.005-.102.006-.153.013.053-.008.1-.01.153-.013zm-4.834 4.648c.032-.015.065-.026.098-.044-.03.017-.066.03-.098.044zm-.966.083c.044.012.09.027.135.033-.046-.006-.09-.022-.135-.033zm-.252-.088c.05.02.098.044.148.06-.05-.016-.1-.038-.148-.06zm.495.13c.044.003.087.01.13.01h-.002c-.04 0-.083-.007-.127-.01zm.367-.01c-.033.006-.066.006-.097.008.03-.002.066-.002.097-.008zm.232-.06c-.033.01-.066.016-.1.025.034-.01.067-.013.1-.027v.002zM80.5 25.108l.13-.003-.13.003zm-.662.013h.024-.024zm-.87 0h.185-.185zm-1.946 9.19l-.17.018c.056-.007.112-.01.17-.016zm.6-.024l-.172.002c.037 0 .07-.005.107-.005l.065.003zm1.982.336l-.18-.052.18.052zm-1.74 2.742l-.082-.005.082.004zm7.495 7.954c-.198-2.44-.62-4.53-1.25-6.204-.83-2.26-2.055-3.86-3.638-4.747l-.026-.016-.03-.012c-.967-.397-1.928-.6-2.86-.6-.47 0-.936.053-1.39.154a7.92 7.92 0 00-1.846.674c.223-3.987.285-4.684.302-4.796l.003-.02v-.016c.045-.51.108-.785.15-.923.172-.034.53-.084 1.217-.11.207 0 .95.01 2.212.03.434.006.845.008 1.226.008.75 0 1.39-.013 1.908-.038h.004c.534 0 1.036-.224 1.42-.645.362-.4.562-.922.556-1.463a1.98 1.98 0 00-.644-1.495 2.144 2.144 0 00-1.494-.56h-.03c-.49.027-1.088.04-1.775.04-.37 0-.77-.003-1.2-.01-1.27-.02-2-.03-2.208-.03h-.004c-1.79.046-3.033.377-3.813 1.014-.883.742-1.417 1.964-1.637 3.742-.02.113-.063.37-.35 5.633-.004.04-.045.397-.335 2.632-.077.736-.135 1.307-.17 1.71a5.268 5.268 0 00-.065.69v.556l.033.088.274.764.024.04.06.107.02.04.03.036c.237.29.463.513.687.68.406.284.84.43 1.27.43.43 0 .853-.146 1.22-.42.38-.264.67-.64.828-1.075.07-.153.15-.384.208-.555.19-.637.482-1.17.874-1.592a3.672 3.672 0 011.77-1.052c.27-.068.523-.104.753-.104.32 0 .602.066.858.204.69.35 1.3 1.2 1.768 2.466.46 1.318.787 3.034.973 5.09.33 3.59.2 6.912-.387 9.87-.387 2.167-1.14 3.927-2.237 5.242-1.063 1.27-2.137 2.01-3.192 2.2-.146.02-.293.032-.44.032-.737 0-1.38-.31-1.96-.945-.992-1.1-1.62-2.944-1.862-5.48a2.138 2.138 0 00-.75-1.387 1.947 1.947 0 00-1.538-.47 2.076 2.076 0 00-1.36.753c-.377.448-.54.983-.468 1.54.316 3.418 1.296 6.066 2.908 7.856 1.392 1.516 3.042 2.283 4.907 2.283.403 0 .808-.036 1.203-.103 2.065-.297 3.96-1.465 5.62-3.473 1.61-1.948 2.706-4.382 3.264-7.235.623-3.327.76-7.033.412-11.022z" fill="#111"/><path d="M101.212 39.16C97.382 22.592 80.717 9.692 60.014 7.644A56.275 56.275 0 0048.628 6.46c-1.666 0-3.31.08-4.932.228 3.133-1.24 6.37-2.2 9.67-2.874.29-.003.58-.01.87-.01 18.306 0 34.453 7.635 43.865 19.185 2.28 4.948 3.33 10.43 3.112 16.17zm-6.607-9.084c-4.7-7.07-11.42-12.93-19.42-17.065 13.68 5.66 23.453 16.672 25.072 29.615-1.083-4.28-2.966-8.51-5.652-12.55zM36.26 10.226c.713-.4 1.434-.785 2.162-1.156a48.75 48.75 0 015.78-.842 55.443 55.443 0 00-7.94 1.998zm-5.176 1.346a65.195 65.195 0 00-3.03 2.18c-7.087 3.803-12.867 9.105-16.666 15.348 3.78-8.368 11.308-14.833 20.86-18.284-.39.25-.78.497-1.164.756zM9.18 37.95c1.71-5.972 5.18-11.397 9.948-15.903-4.264 4.833-7.64 10.22-9.948 15.903zm-.612-5.805a32.499 32.499 0 00-1.335 7.096 32.225 32.225 0 00-.803 8.03c-1.158 6.18-.942 12.263.577 17.85C3.6 59.477 1.68 53.133 1.68 46.434 1.68 25.4 20.557 7.88 45.29 4.425a61.718 61.718 0 00-7.324 3.122c-5.283 1.106-10.2 3.04-14.537 5.757-7.347 4.6-12.485 11.117-14.862 18.842zm5.296 30.642c2.837 4.266 6.408 8.093 10.553 11.368-8.938-5.82-14.92-14.22-16.19-23.858 1.086 4.258 2.964 8.47 5.637 12.49zM42.75 83.753c5.628 1.76 11.376 2.65 17.086 2.65 1.663 0 3.305-.078 4.923-.225a57.585 57.585 0 01-9.688 2.876c-.28.004-.558.008-.838.008-18.312 0-34.462-7.637-43.873-19.19-2.246-4.925-3.29-10.446-3.084-16.19C10.39 66.66 21.758 77.092 37.13 81.667a59.196 59.196 0 005.62 2.086zm2.167 6.335c-13.017 0-24.19-5.147-30.974-14.188 8.104 7.386 19.198 12.538 31.71 14.174-.245.004-.49.014-.736.014zM63.55 2.774c13.024 0 24.2 5.154 30.986 14.204C86.42 9.58 75.31 4.42 62.78 2.788c.254-.002.512-.014.767-.014h.002zm26.625 67.07c3.947-4.67 7.08-9.843 9.25-15.314-1.553 5.807-4.757 11.013-9.25 15.316zm9.267-47.664c-.73-1.58-1.578-3.1-2.537-4.552-6.93-10.44-19.09-16.424-33.356-16.424-3.42 0-6.887.355-10.337 1.042C23.846 2.696.125 22.342.125 46.432c0 8.954 3.28 17.29 8.9 24.26a34.36 34.36 0 002.537 4.545c6.93 10.434 19.09 16.42 33.355 16.42 3.408 0 6.862-.354 10.303-1.036a65.637 65.637 0 009.826-.88 17.92 17.92 0 01-.184-1.564c-.57.095-1.142.19-1.72.27.57-.2 1.136-.41 1.7-.625a20.83 20.83 0 01.078-3.237c-1.69.17-3.387.254-5.084.254-3.053 0-6.12-.273-9.17-.795a64.97 64.97 0 004.14.133c3.516 0 6.958-.3 10.29-.86.09-.556.203-1.098.338-1.62-3.51.612-7.066.916-10.63.912-6.11 0-11.904-.87-17.21-2.445-9.356-4.03-17.198-10.37-22.44-18.25-3.805-5.723-5.953-11.836-6.383-17.9 2.994-11.015 10.14-21.286 20.127-28.937 7.285-3.882 15.987-6.15 25.337-6.15 1.904 0 3.778.107 5.623.288 1.81.38 3.614.84 5.406 1.4 11.83 3.7 21.79 10.923 28.05 20.337 3.8 5.716 5.946 11.82 6.38 17.88-.135.5-.268.998-.423 1.496-2.644 8.563-7.72 16.517-14.62 23.103.52.467 1.004 1.008 1.45 1.617a42.9 42.9 0 002.157-1.588c3.69-2.91 6.68-6.27 8.93-9.946-2.21 5.014-5.77 9.348-10.292 12.78.267.48.5.988.698 1.518 5.986-4.444 10.214-10.3 12.303-17.092a32.56 32.56 0 001.336-7.08c.6-2.635.87-5.334.802-8.035 1.17-6.188.982-12.217-.53-17.79 3.38 5.628 5.282 11.947 5.282 18.618 0 13.088-7.312 24.816-18.794 32.64a14.5 14.5 0 01.324 1.657c12.21-8.108 20.023-20.47 20.023-34.296 0-8.95-3.277-17.285-8.898-24.252v-.002z" fill="#D12138"/><path d="M80.413 80.696a.249.249 0 00-.063.13.671.671 0 00-.02.17c-.226.85-.326 1.884-.296 3.1-.1.672-.227 1.34-.38 2-.476 1.9-1.236 3.558-2.274 4.976-.562.764-1.116 1.246-1.663 1.444-.55.197-1.105.058-1.666-.425-.897-.736-1.333-2.082-1.304-4.04.026-1.954.478-3.853 1.35-5.696.867-1.842 1.85-2.974 2.946-3.4 1.15-.426 2.29.126 3.413 1.658a.11.11 0 00-.042.084zm9.013 9.12a.766.766 0 00-.506-.404.824.824 0 00-.632.087.78.78 0 00-.376.55c-.537 2.013-1.45 3.686-2.74 5.017-1.292 1.333-2.743 2.226-4.36 2.68a10.07 10.07 0 01-4.95.125 9.355 9.355 0 01-3.453-1.38 10.79 10.79 0 01-2.803-2.658c-.798-1.076-1.382-2.408-1.748-3.996-.336-1.616-.378-3.372-.126-5.272.42-3.204 1.53-5.725 3.327-7.566 1.853-1.816 3.918-2.836 6.194-3.064 2.246-.168 4.184.484 5.813 1.957 1.628 1.474 2.5 3.67 2.612 6.59.082 2.663-.1 4.62-.55 5.867-.252.68-.605 1.05-1.052 1.105-.48.058-.9-.213-1.265-.808-.674-1.047-1.04-2.606-1.095-4.676.057-.452.112-.977.17-1.573 0-.056.013-.197.04-.425.03-.226.043-.41.043-.552.03-.2.044-.34.044-.425 0-.06-.015-.12-.043-.17 0-.17-.04-.297-.125-.383V80.4c.225-.368.21-.71-.042-1.02-1.63-2.212-3.4-2.962-5.308-2.255-1.517.567-2.81 1.955-3.875 4.167-1.012 2.097-1.532 4.237-1.56 6.42-.027 2.495.632 4.293 1.98 5.4 1.04.85 2.107 1.08 3.202.68.842-.312 1.657-.98 2.444-2 .757-.992 1.418-2.237 1.98-3.74a8.97 8.97 0 00.716 1.573c.786 1.25 1.754 1.772 2.906 1.572 1.123-.14 1.938-.892 2.445-2.25.53-1.42.74-3.6.63-6.55-.083-2.322-.63-4.308-1.643-5.952-1.01-1.645-2.26-2.807-3.75-3.487-1.486-.65-3.102-.905-4.844-.763-2.668.226-5.068 1.417-7.202 3.57-2.136 2.124-3.427 4.96-3.874 8.503-.253 2.154-.184 4.152.21 5.995.39 1.842 1.053 3.395 1.98 4.655a12.342 12.342 0 003.263 3.104c1.24.804 2.62 1.374 4.065 1.68 1.908.368 3.8.297 5.666-.214 1.87-.508 3.566-1.545 5.096-3.104 1.53-1.556 2.59-3.53 3.18-5.91a.892.892 0 00-.084-.657z" fill="#D12138"/></g></svg>