<svg width="375" height="100" xmlns="http://www.w3.org/2000/svg"><g fill="none" fill-rule="evenodd"><path d="M0 22.341h25.381L12.698.313zm68.19-10.895c0 3.116-1.1 5.79-3.302 8.013-2.2 2.218-4.844 3.33-7.925 3.33-3.084 0-5.723-1.112-7.917-3.33-2.197-2.223-3.296-4.897-3.296-8.013 0-3.117 1.1-5.79 3.296-8.017C51.24 1.203 53.879.09 56.963.09c3.081 0 5.724 1.112 7.925 3.338 2.202 2.226 3.303 4.9 3.303 8.017m41.739 10.896H88.316V.477h21.614z" fill="#E31936"/><path d="M6.523 56.208h9.557l-4.762-11.53-4.795 11.53zM3.256 64.02H.64l9.588-21.943h2.178l9.585 21.943h-2.614l-2.429-5.765H5.683L3.256 64.02zm32.869-13.019l-8.53 11.16h8.84v1.859H24.61v-1.488l8.527-11.16h-8.091v-1.859h11.08zm4.356 3.038c0-1.3-.061-2.418-.125-4.526h2.022v2.697h.065c.591-1.549 2.116-3.068 4.667-3.068.592 0 1.09.062 1.525.186l-.402 2.014c-.25-.092-.623-.152-1.185-.152-3.111 0-4.514 2.694-4.514 4.647v8.183h-2.053v-9.981zm13.663 9.981h-2.053V49.513h2.053V64.02zm-1.027-18.596c-.745 0-1.493-.62-1.493-1.488 0-.869.748-1.488 1.493-1.488.747 0 1.494.62 1.494 1.488 0 .869-.747 1.488-1.494 1.488zM70.774 55.65c0-2.76-1.774-4.65-4.731-4.65-2.678 0-5.107 2.263-5.107 4.648h9.838zm-9.899 1.675c.25 2.91 2.46 5.207 5.354 5.207 2.178 0 3.859-1.21 4.668-2.51l1.589 1.3c-1.712 2.17-3.86 3.069-6.257 3.069-4.325 0-7.532-3.256-7.532-7.625 0-4.367 3.207-7.624 7.346-7.624 4.42.031 6.97 3.286 6.97 7.254v.93H60.875zm19.079 6.695H77.9V40.589h2.054zm8.679 0H86.58V49.513h2.053V64.02zm-1.028-18.596c-.744 0-1.492-.62-1.492-1.488 0-.869.748-1.488 1.492-1.488.748 0 1.495.62 1.495 1.488 0 .869-.747 1.488-1.495 1.488zm28.394.28c-.967-1.428-2.398-2.138-4.265-2.138-2.303 0-4.701 1.208-4.701 3.966 0 5.918 11.299 2.789 11.299 10.693 0 3.997-3.767 6.351-7.254 6.351-2.675 0-5.26-.96-6.94-3.253l2.023-1.458c.933 1.613 2.708 2.667 5.012 2.667 2.209 0 4.73-1.428 4.73-3.998 0-6.199-11.298-2.758-11.298-10.786 0-4.246 3.548-6.23 7.129-6.23 2.49 0 4.481.681 6.223 2.667l-1.958 1.519zm17.616 7.22c-.686-1.054-2.023-1.923-3.642-1.923-3.392-.06-5.479 2.449-5.479 5.766 0 3.316 2.087 5.826 5.479 5.765 1.62 0 2.956-.869 3.642-1.923l1.68 1.272a7.065 7.065 0 01-5.322 2.51c-4.762.06-7.718-3.256-7.718-7.624s2.956-7.686 7.718-7.625a7.068 7.068 0 015.323 2.509l-1.68 1.273zm5.775-12.335h2.053v11.25h.061c.903-1.579 2.958-2.697 4.887-2.697 3.703 0 5.478 2.078 5.478 5.671v9.207h-2.052v-8.028c0-3.223-.903-4.99-3.954-4.99-.436 0-4.42.279-4.42 5.576v7.442h-2.053V40.589zm24.417 10.412c-3.363 0-5.48 2.51-5.48 5.766 0 3.255 2.117 5.765 5.48 5.765 3.392 0 5.509-2.51 5.509-5.765 0-3.256-2.117-5.766-5.51-5.766m0 13.39c-4.512 0-7.718-3.256-7.718-7.624s3.206-7.625 7.719-7.625c4.544 0 7.75 3.257 7.75 7.625s-3.206 7.624-7.75 7.624m19.328-13.39c-3.362 0-5.48 2.51-5.48 5.766 0 3.255 2.118 5.765 5.48 5.765 3.391 0 5.509-2.51 5.509-5.765 0-3.256-2.118-5.766-5.51-5.766m0 13.39c-4.512 0-7.718-3.256-7.718-7.624s3.206-7.625 7.719-7.625c4.545 0 7.75 3.257 7.75 7.625s-3.205 7.624-7.75 7.624m14.877-.371h-2.053V40.589h2.053zm20.928-13.019c-3.362 0-5.48 2.51-5.48 5.766 0 3.255 2.118 5.765 5.48 5.765 3.39 0 5.508-2.51 5.508-5.765 0-3.256-2.117-5.766-5.509-5.766m0 13.39c-4.512 0-7.718-3.256-7.718-7.624s3.206-7.625 7.718-7.625c4.546 0 7.751 3.257 7.751 7.625s-3.205 7.624-7.75 7.624m19.142-13.018h-3.456V64.02h-2.054V51.373h-3.081v-1.86h3.081v-3.967c0-3.84 1.93-5.328 4.887-5.328.592 0 1.183.092 1.773.216l-.373 1.859a6.741 6.741 0 00-1.586-.216c-2.273 0-2.647 1.61-2.647 3.718v3.718h3.456v1.86zm-223.191 39.7L11.5 82.148l-3.456 8.925h6.848zM9.913 77.5h3.391l9.494 21.943h-4.484l-2.053-5.023H6.706l-1.992 5.023H.324L9.913 77.5zm15.933 7.066h3.734v2.357h.063c.809-1.706 2.46-2.728 4.418-2.728.467 0 .903.092 1.339.216v3.593c-.622-.151-1.214-.278-1.805-.278-3.518 0-4.015 2.946-4.015 3.753v7.965h-3.734V84.566zM48.52 89.03c-.87-.899-1.836-1.487-2.83-1.487-2.74 0-4.39 2.137-4.39 4.46 0 2.325 1.65 4.464 4.39 4.464 1.15 0 2.208-.498 2.894-1.394l2.49 2.664c-1.525 1.518-4.079 2.077-5.385 2.077-4.515 0-8.124-3.129-8.124-7.811 0-4.68 3.61-7.808 8.124-7.808 1.897 0 3.984.68 5.415 2.26l-2.584 2.576zm9.463-2.387h.064c.589-1.239 2.084-2.448 4.387-2.448 4.015 0 5.447 2.82 5.447 5.856v9.393h-3.735V91.91c0-1.64-.123-4.368-2.737-4.368-2.462 0-3.426 1.799-3.426 3.778v8.123H54.25v-23.43h3.734v10.63zm15.125-2.077h3.737v14.878h-3.737V84.566zm1.836-7.284c1.37 0 2.428.96 2.428 2.233 0 1.27-1.058 2.232-2.428 2.232-1.37 0-2.364-1.057-2.364-2.232 0-1.179.995-2.233 2.364-2.233zm5.385 10.444v-3.16h3.083V80.26h3.734v4.307h4.11v3.16h-4.11v6.511c0 1.486.436 2.415 2.087 2.415.653 0 1.556-.124 2.023-.464v3.128c-.779.374-2.087.498-2.96.498-3.95 0-4.884-1.767-4.884-5.267v-6.821H80.33zm25.429 2.791c-.03-2.17-1.462-3.533-3.798-3.533-2.208 0-3.578 1.394-3.859 3.533h7.657zm-7.657 2.79c.25 2.2 1.93 3.53 4.017 3.53 1.867 0 3.081-.868 4.015-2.013l2.675 2.013c-1.742 2.14-3.953 2.977-6.318 2.977-4.514 0-8.123-3.129-8.123-7.811 0-4.679 3.609-7.808 8.123-7.808 4.17 0 7.004 2.91 7.004 8.086v1.027H98.101zm26.021-4.277c-.87-.899-1.836-1.487-2.831-1.487-2.74 0-4.39 2.137-4.39 4.46 0 2.325 1.65 4.464 4.39 4.464 1.15 0 2.209-.498 2.894-1.394l2.49 2.664c-1.526 1.518-4.079 2.077-5.384 2.077-4.512 0-8.124-3.129-8.124-7.811 0-4.68 3.612-7.808 8.124-7.808 1.898 0 3.984.68 5.415 2.26l-2.584 2.576zm3.981-1.304v-3.16h3.084V80.26h3.734v4.307h4.11v3.16h-4.11v6.511c0 1.486.436 2.415 2.087 2.415.652 0 1.555-.124 2.022-.464v3.128c-.778.374-2.086.498-2.959.498-3.95 0-4.884-1.767-4.884-5.267v-6.821h-3.084zm28.419 11.718h-3.548v-2.388h-.064c-.683 1.488-2.084 2.758-4.576 2.758-4.014 0-5.445-2.82-5.445-5.856v-9.392h3.734V92.1c0 1.64.125 4.368 2.74 4.368 2.458 0 3.422-1.798 3.422-3.782v-8.119h3.737v14.878zm5.168-14.878h3.734v2.357h.064c.807-1.706 2.458-2.728 4.417-2.728.467 0 .903.092 1.339.216v3.593c-.622-.151-1.214-.278-1.806-.278-3.517 0-4.014 2.946-4.014 3.753v7.965h-3.735V84.566zm22.814 5.951c-.03-2.17-1.461-3.533-3.798-3.533-2.208 0-3.578 1.394-3.859 3.533h7.657zm-7.657 2.79c.25 2.2 1.931 3.53 4.017 3.53 1.868 0 3.081-.868 4.015-2.013l2.675 2.013c-1.741 2.14-3.953 2.977-6.317 2.977-4.515 0-8.123-3.129-8.123-7.811 0-4.679 3.608-7.808 8.123-7.808 4.17 0 7.003 2.91 7.003 8.086v1.027h-11.393zm31.095-10.818c0 1.148 1.119 2.295 2.083 3.195 1.278-.684 2.99-1.738 2.99-3.348 0-1.179-1.09-2.048-2.428-2.048-1.432 0-2.645.9-2.645 2.2zm1.15 7.097c-1.462.867-3.018 1.86-3.018 3.752 0 1.92 1.618 3.315 3.484 3.315 1.712 0 2.926-1.085 4.049-2.17l-4.515-4.897zm9.245 4.681l4.762 5.177h-4.825l-2.334-2.513c-1.775 2.075-3.704 3.069-6.504 3.069-3.892 0-7.47-2.263-7.47-6.446 0-2.944 2.116-5.145 4.761-6.169-1.4-1.55-2.522-2.88-2.522-5.05 0-3.595 2.99-5.393 6.32-5.393 3.299 0 6.223 1.61 6.223 5.206 0 2.698-2.208 4.557-4.387 5.673l3.548 3.81 2.459-3.717h4.387l-4.418 6.353zm35.257-2.885c0 5.303-3.829 8.618-8.871 8.618s-8.87-3.315-8.87-8.618V77.501h3.922v13.76c0 2.168 1.183 5.02 4.948 5.02 3.767 0 4.95-2.852 4.95-5.02V77.5h3.92v13.881zm4.856-6.816h3.734v2.357h.064c.808-1.706 2.459-2.728 4.418-2.728.467 0 .903.092 1.339.216v3.593c-.623-.151-1.214-.278-1.806-.278-3.517 0-4.015 2.946-4.015 3.753v7.965h-3.733V84.566zm21.025 2.977c-2.74 0-4.39 2.138-4.39 4.46 0 2.325 1.65 4.464 4.39 4.464 2.739 0 4.39-2.139 4.39-4.464 0-2.322-1.651-4.46-4.39-4.46zm-7.999-11.53h3.735v10.443h.093c.779-.96 2.273-2.261 5.073-2.261 4.265 0 7.222 3.408 7.222 7.808 0 4.403-2.77 7.81-7.378 7.81-2.085 0-4.047-.807-5.136-2.602h-.062v2.233h-3.547V76.012zm29.44 16.767h-.776c-2.054 0-5.602.154-5.602 2.293 0 1.363 1.4 1.952 2.615 1.952 2.549 0 3.763-1.333 3.763-3.407v-.838zm.22 4.616h-.093c-1.06 1.674-2.8 2.418-4.793 2.418-2.77 0-5.448-1.518-5.448-4.465 0-4.832 5.664-5.173 9.4-5.173h.934v-.404c0-1.828-1.434-2.788-3.423-2.788a5.9 5.9 0 00-3.986 1.548l-1.958-1.952c1.647-1.674 3.983-2.385 6.346-2.385 6.382 0 6.382 4.587 6.382 6.695v8.554h-3.361v-2.048zm8.279-12.83h3.55v2.387h.06c.685-1.488 2.087-2.758 4.577-2.758 4.015 0 5.448 2.82 5.448 5.856v9.393h-3.74V91.91c0-1.64-.122-4.367-2.734-4.367-2.464 0-3.427 1.798-3.427 3.779v8.122h-3.734V84.566zm18.828 0h3.74v14.878h-3.74V84.566zm1.837-7.284c1.37 0 2.427.96 2.427 2.233 0 1.27-1.056 2.232-2.427 2.232-1.368 0-2.362-1.057-2.362-2.232 0-1.179.994-2.233 2.362-2.233zm15.068 11.406c-.72-.993-1.653-1.519-2.928-1.519-.994 0-2.179.464-2.179 1.583 0 2.664 8.06.492 8.06 6.288 0 3.535-3.392 4.774-6.442 4.774-2.3 0-4.295-.59-5.82-2.293l2.49-2.323c.968 1.05 1.963 1.827 3.55 1.827 1.091 0 2.489-.527 2.489-1.705 0-3.068-8.06-.652-8.06-6.322 0-3.314 2.99-4.803 6.004-4.803 1.994 0 4.112.62 5.325 2.26l-2.489 2.233zm6.596-4.122h3.544v2.323h.062c.658-1.394 2.087-2.694 4.576-2.694 2.305 0 3.893.899 4.673 2.758 1.086-1.89 2.672-2.758 4.917-2.758 3.984 0 5.382 2.82 5.382 6.384v8.865h-3.735v-8.432c0-1.86-.56-3.47-2.769-3.47-2.337 0-3.203 1.921-3.203 3.84v8.062h-3.74v-8.865c0-1.828-.744-3.036-2.55-3.036-2.46 0-3.423 1.798-3.423 3.779v8.122h-3.734V84.566z" fill="#231F20"/></g></svg>