<svg width="288" height="100" xmlns="http://www.w3.org/2000/svg"><g fill="none" fill-rule="evenodd"><path d="M42.46 100C13.906 74.053.436 40.492 0 6.295 12.85 8.39 27.564 6.417 42.46 0c14.892 6.417 29.605 8.39 42.456 6.295C84.48 40.492 71.012 74.053 42.46 100zm0-36.883V30.992c-3.693 7.333-10.902 13.383-20.193 17.35C33.057 52.913 41.715 68.47 42.46 83.7c.742-15.23 9.402-30.786 20.19-35.355-9.128 2.86-16.467 8.233-20.19 14.774zM27.322 32.413a5.028 5.028 0 01-3.464 1.38 5.056 5.056 0 01-5.056-5.058c0-.75.167-1.458.46-2.096l3.722-.693-5.58-2.313a8.193 8.193 0 00-1.778 5.1 8.234 8.234 0 008.234 8.236c2.68 0 5.057-1.29 6.56-3.274l-3.098-1.283z" fill="#000108"/><path d="M113.414 43.38c4.066 0 6.612-1.52 9.006-3.99l-3.306-3.914c-1.786 1.786-3.344 2.774-5.472 2.774-3.534 0-6.27-3.23-6.27-8.512v-.114c0-5.168 2.622-8.474 6.194-8.474 2.166 0 3.838 1.026 5.434 2.66l3.306-4.256c-2.052-2.09-4.598-3.534-8.55-3.534-7.03 0-12.046 5.472-12.046 13.528v.342c0 8.132 4.712 13.49 11.704 13.49zm10.754-.38l9.538-26.752h5.244L148.488 43h-5.7l-1.976-5.776h-9.158L129.716 43h-5.548zm9.158-10.64h5.814l-2.888-8.664-2.926 8.664zM151.794 43V16.4h9.994c3.078 0 5.548.874 7.22 2.546 1.444 1.444 2.242 3.534 2.242 6.156v.152c0 4.028-2.014 6.574-4.94 7.866l5.662 9.88h-6.308l-4.902-8.74h-3.458V43h-5.51zm5.51-13.604h4.066c2.812 0 4.332-1.596 4.332-3.99v-.038c0-2.66-1.634-3.99-4.446-3.99h-3.952v8.018zM175.62 43h16.264v-5.054H181.13V16.4h-5.51V43zm19.95 0h17.29v-4.978h-11.818v-5.928h10.26v-4.978h-10.26v-5.738h11.666V16.4H195.57V43zm26.714 0h5.472V21.492h6.688V16.4h-18.848v5.092h6.688V43zm25.916.456c-7.068 0-12.008-5.548-12.008-13.49v-.456c0-7.98 5.016-13.566 12.046-13.566 7.068 0 12.008 5.548 12.008 13.49v.456c0 7.942-5.016 13.566-12.046 13.566zm.038-5.092c3.686 0 6.308-3.268 6.308-8.512v-.266c0-5.244-2.66-8.55-6.346-8.55-3.724 0-6.346 3.268-6.346 8.512v.266c0 5.244 2.698 8.55 6.384 8.55zM264.616 43h5.396V26.926L280.538 43h4.712V16.4h-5.396v15.504L269.67 16.4h-5.054V43zm-163.97 38l9.538-26.752h5.244L124.966 81h-5.7l-1.976-5.776h-9.158L106.194 81h-5.548zm9.158-10.64h5.814l-2.888-8.664-2.926 8.664zM130.628 81V59.492h-6.688V54.4h18.848v5.092H136.1V81h-5.472zm15.884 0h5.51V70.17h8.74V81h5.51V54.4h-5.51v10.678h-8.74V54.4h-5.51V81zm25.08 0h16.264v-5.054h-10.754V54.4h-5.51V81zm19.95 0h17.29v-4.978h-11.818v-5.928h10.26v-4.978h-10.26v-5.738h11.666V54.4h-17.138V81zm26.714 0h5.472V59.492h6.688V54.4h-18.848v5.092h6.688V81zm16.074 0h5.51V54.4h-5.51V81zm21.774.38c4.066 0 6.612-1.52 9.006-3.99l-3.306-3.914c-1.786 1.786-3.344 2.774-5.472 2.774-3.534 0-6.27-3.23-6.27-8.512v-.114c0-5.168 2.622-8.474 6.194-8.474 2.166 0 3.838 1.026 5.434 2.66l3.306-4.256c-2.052-2.09-4.598-3.534-8.55-3.534-7.03 0-12.046 5.472-12.046 13.528v.342c0 8.132 4.712 13.49 11.704 13.49zm20.672-.038c5.168 0 8.93-3.04 8.93-7.98v-.076c0-4.142-2.508-6.118-7.144-7.942-4.142-1.71-5.054-2.432-5.054-3.952v-.038c0-1.368 1.178-2.318 3.078-2.318 2.052 0 3.99 1.102 5.662 2.47l3.078-4.18c-2.432-2.204-5.472-3.268-8.588-3.268-5.13 0-8.702 3.154-8.702 7.79v.076c0 4.56 2.926 6.346 7.638 8.17 3.8 1.444 4.56 2.28 4.56 3.61v.038c0 1.558-1.292 2.622-3.42 2.622-2.66 0-4.826-1.444-6.612-3.002l-3.268 4.066c2.926 2.736 6.46 3.914 9.842 3.914z" fill="#000"/></g></svg>