<svg class="c-culogo" viewBox="0 0 336 91" xmlns="http://www.w3.org/2000/svg" xmlns:xlink="http://www.w3.org/1999/xlink"><defs><path id="a" d="M0 0h31.141v30.065H0z"/></defs><g fill="none" fill-rule="evenodd"><path d="M131.154 16.4l-6.772.019-.954-6.051c-.898-.892-2.03-1.597-3.393-2.113-1.364-.516-2.972-.772-4.824-.766-3.953.011-6.992 1.456-9.116 4.334-2.124 2.878-3.18 6.626-3.166 11.245l.005 1.591c.014 4.62 1.086 8.372 3.217 11.257 2.13 2.887 5.13 4.323 9.001 4.312 1.79-.005 3.427-.27 4.913-.795 1.486-.523 2.634-1.234 3.442-2.132l.919-6.058 6.772-.02.027 8.989c-1.825 2.128-4.155 3.824-6.992 5.092-2.836 1.267-6.012 1.906-9.529 1.917-6.096.018-11.096-2.08-15-6.292-3.902-4.212-5.864-9.626-5.883-16.243l-.005-1.529c-.019-6.595 1.9-12.021 5.757-16.277 3.858-4.256 8.855-6.393 14.993-6.411 3.516-.01 6.691.62 9.525 1.891 2.833 1.271 5.179 2.955 7.037 5.05l.026 8.99m17.019 24.164c1.335-.004 2.549-.295 3.64-.875 1.091-.58 1.939-1.307 2.543-2.179l-.015-5.009-4.523.014c-1.881.006-3.307.45-4.276 1.332-.969.884-1.452 1.944-1.448 3.178.004 1.114.365 1.981 1.086 2.607.72.625 1.718.936 2.993.932zm7.697 5.897a15.822 15.822 0 01-.642-1.683 13.203 13.203 0 01-.43-1.744 12.218 12.218 0 01-3.832 2.956c-1.505.752-3.23 1.133-5.172 1.139-3.218.01-5.775-.859-7.673-2.603-1.897-1.746-2.85-4.126-2.86-7.141-.008-3.076 1.22-5.457 3.683-7.145 2.464-1.687 6.084-2.537 10.86-2.552l4.523-.013-.01-3.218c-.004-1.579-.463-2.801-1.376-3.669-.913-.867-2.26-1.299-4.041-1.294-1.012.004-1.912.123-2.701.358-.789.235-1.426.516-1.91.84l-.567 3.524-6.678.02.01-7.286c1.615-1.098 3.47-2.024 5.561-2.78 2.093-.754 4.373-1.135 6.842-1.143 4.068-.012 7.374.976 9.92 2.96 2.546 1.987 3.824 4.822 3.835 8.505l.04 13.569c.002.506.008.982.02 1.427.01.445.048.87.11 1.274l2.702.357.017 5.312-10.23.03zm13.32-5.353l4.247-.924-.06-20.369-4.708-.897-.016-5.342 12.962-.038.409 4.795c.763-1.702 1.752-3.03 2.963-3.986 1.211-.955 2.616-1.434 4.215-1.439.466-.001.956.033 1.473.102.516.07.946.154 1.29.254l-.916 8.078-3.644-.081c-1.295.004-2.367.261-3.215.77-.849.508-1.494 1.227-1.937 2.16l.047 15.967 4.253.899.016 5.311-17.363.051-.016-5.311m23.92-35.533l-.016-5.343 13.6-.04.121 39.896 4.283.9.016 5.311-17.424.051-.016-5.312 4.277-.924-.103-33.642-4.738-.897m35.538 14.049c-1.639.005-2.933.636-3.88 1.894-.947 1.257-1.53 2.908-1.746 4.953l.091.15 10.867-.032-.002-.789c-.005-1.881-.45-3.383-1.333-4.503-.884-1.12-2.216-1.679-3.997-1.673zm0 27.258c-4.735.013-8.525-1.493-11.366-4.52-2.843-3.028-4.27-6.88-4.284-11.553l-.004-1.215c-.014-4.877 1.314-8.899 3.986-12.063 2.672-3.165 6.265-4.744 10.778-4.737 4.432-.013 7.876 1.312 10.333 3.977 2.456 2.663 3.692 6.272 3.705 10.826l.014 4.826-19.61.058-.06.182c.168 2.165.897 3.944 2.186 5.337 1.29 1.392 3.037 2.085 5.243 2.079 1.963-.006 3.592-.208 4.885-.607 1.295-.398 2.709-1.024 4.245-1.879l2.414 5.457c-1.353 1.076-3.105 1.982-5.259 2.717-2.153.734-4.555 1.107-7.206 1.115zm27.745-42.405l.024 8.831 5.769-.017.017 6.223-5.769.017.05 16.727c.005 1.275.27 2.184.797 2.729.53.545 1.239.816 2.127.813.609-.001 1.14-.028 1.596-.08.455-.052.965-.14 1.531-.263l.778 6.403c-.99.306-1.972.538-2.942.692a20.54 20.54 0 01-3.156.238c-3.058.008-5.411-.825-7.066-2.5-1.654-1.675-2.486-4.333-2.499-7.976l-.049-16.756-3.082.014-.019-6.223 3.084-.014-.025-8.831 8.834-.027m17.571 25.534c.01 2.995.541 5.398 1.6 7.206 1.058 1.808 2.76 2.708 5.108 2.701 2.288-.007 3.96-.922 5.015-2.747 1.059-1.824 1.583-4.224 1.574-7.2l-.003-.637c-.007-2.914-.551-5.29-1.63-7.129-1.078-1.838-2.77-2.754-5.076-2.747-2.307.007-3.986.933-5.033 2.777-1.046 1.846-1.565 4.224-1.555 7.138v.638zm-8.866-.611c-.015-4.897 1.344-8.913 4.077-12.048 2.735-3.135 6.52-4.71 11.355-4.724 4.857-.014 8.66 1.533 11.413 4.64 2.753 3.11 4.134 7.123 4.149 12.04l.002.638c.015 4.938-1.344 8.964-4.077 12.08-2.733 3.113-6.51 4.678-11.325 4.692-4.877.015-8.69-1.528-11.443-4.625-2.75-3.1-4.134-7.117-4.148-12.055l-.003-.638zm33.261 11.312l4.247-.924-.06-20.368-4.706-.897-.018-5.342 12.962-.039.41 4.705c1.087-1.683 2.43-2.993 4.024-3.928 1.596-.936 3.386-1.407 5.37-1.413 3.319-.01 5.911 1.025 7.78 3.104 1.868 2.079 2.809 5.344 2.821 9.797l.042 14.296 4.254.9.015 5.311-16.938.051-.015-5.312 3.791-.923-.041-14.266c-.008-2.206-.458-3.768-1.352-4.687-.891-.918-2.24-1.374-4.04-1.37-1.174.005-2.226.246-3.154.724a6.496 6.496 0 00-2.334 2.025l.052 17.607 3.587.9.015 5.313-16.695.048-.017-5.312M105.206 58.81l.009 2.971-2.632.515.038 12.826c.005 1.621.445 2.832 1.319 3.634.874.802 2.071 1.2 3.59 1.195 1.541-.004 2.75-.407 3.625-1.21.875-.8 1.31-2.017 1.306-3.648l-.038-12.827-2.618-.499-.008-2.97 10.176-.03.009 2.97-2.631.515.038 12.826c.008 2.757-.895 4.887-2.707 6.388-1.813 1.502-4.193 2.257-7.14 2.266-2.938.01-5.31-.732-7.121-2.224-1.81-1.49-2.72-3.615-2.728-6.371l-.038-12.827-2.617-.498-.009-2.97 2.616-.008 4.928-.014 2.633-.01m16.131 21.573l2.36-.513-.033-11.324-2.617-.498-.009-2.971 7.207-.022.227 2.616c.605-.936 1.35-1.663 2.238-2.184.887-.52 1.882-.782 2.985-.785 1.845-.006 3.287.57 4.326 1.725 1.038 1.156 1.56 2.972 1.568 5.447l.024 7.949 2.364.498.009 2.954-9.417.028-.01-2.953 2.11-.513-.025-7.931c-.003-1.227-.253-2.095-.75-2.606-.497-.51-1.245-.764-2.247-.761-.652.002-1.237.136-1.754.402a3.597 3.597 0 00-1.296 1.126l.03 9.789 1.992.5.009 2.953-9.283.028-.008-2.954m29.307-19.765l-4.928.015-.011-3.697 4.928-.014.011 3.696zm-7.25 19.7l2.379-.513-.034-11.324-2.634-.499-.009-2.97 7.561-.023.044 14.801 2.364.499.009 2.954-9.67.028-.01-2.953zm18.245-12.393l-1.72.325 2.437 8.162.326 1.72h.1l.35-1.722 2.356-8.159-1.757-.332-.008-2.971 8.286-.025.009 2.97-1.586.258-5.339 15.054-4.709.013-5.445-15.02-1.587-.248-.009-2.971 8.287-.025.009 2.97m19.277.431c-.911.003-1.63.354-2.157 1.052-.526.7-.85 1.617-.97 2.754l.05.085 6.042-.018v-.439c-.004-1.046-.251-1.881-.742-2.504-.492-.623-1.233-.933-2.223-.93zm.484 15.154c-2.632.007-4.74-.83-6.32-2.513-1.58-1.682-2.374-3.824-2.381-6.423l-.002-.675c-.008-2.711.73-4.947 2.216-6.707 1.486-1.759 3.483-2.638 5.992-2.633 2.464-.008 4.38.73 5.745 2.21 1.366 1.481 2.053 3.488 2.06 6.02l.008 2.683-10.903.032-.033.1c.093 1.205.498 2.194 1.215 2.968.717.774 1.689 1.16 2.915 1.156 1.091-.004 1.997-.116 2.716-.337.72-.221 1.506-.57 2.36-1.045l1.343 3.034c-.753.598-1.728 1.102-2.925 1.511-1.197.408-2.532.615-4.006.619zm9.275-3.339l2.362-.512-.034-11.324-2.617-.499-.009-2.97 7.207-.022.226 2.665c.425-.945.974-1.684 1.648-2.215.674-.53 1.455-.797 2.344-.8a6.246 6.246 0 011.536.198l-.51 4.491-2.025-.045c-.72.002-1.316.145-1.788.428-.472.282-.83.683-1.077 1.2l.027 8.878 2.364.5.008 2.954-9.653.027-.009-2.953m28.296-9.115l-3.308.01-.53-2.277c-.338-.269-.764-.492-1.276-.671a5.076 5.076 0 00-1.697-.265c-.867.002-1.552.198-2.057.588-.505.39-.757.878-.756 1.463.002.551.245 1.009.73 1.372.485.365 1.454.686 2.906.962 2.263.444 3.941 1.1 5.035 1.969 1.094.87 1.643 2.069 1.648 3.598.005 1.643-.698 2.986-2.106 4.03-1.41 1.046-3.267 1.572-5.573 1.58-1.407.003-2.699-.198-3.876-.606a9.89 9.89 0 01-3.135-1.754l-.063-4.101 3.443-.01.682 2.378c.293.246.693.428 1.2.545a7.009 7.009 0 001.587.172c1-.003 1.763-.184 2.285-.547.522-.362.782-.851.78-1.47-.001-.54-.267-1.007-.797-1.399-.53-.392-1.504-.738-2.923-1.038-2.15-.432-3.775-1.077-4.875-1.935-1.1-.858-1.651-2.028-1.656-3.513-.004-1.53.622-2.851 1.879-3.964 1.257-1.112 3.05-1.671 5.379-1.678 1.418-.004 2.76.183 4.027.561 1.267.38 2.26.866 2.983 1.46l.064 4.54m10.01-10.679l-4.928.014-.01-3.696 4.927-.014.011 3.696zm-7.25 19.7l2.379-.514-.034-11.323-2.634-.499-.009-2.97 7.561-.023.044 14.801 2.364.5.009 2.953-9.67.03-.01-2.955z" fill="#1A1919"/><g transform="translate(232.884 60.243)"><mask id="b" fill="#fff"><use xlink:href="#a"/></mask><path d="M6.597 0l.014 4.472 3.206-.01.01 3.46-3.206.01.027 9.3c.002.708.15 1.215.444 1.517.293.303.687.454 1.182.452a8.42 8.42 0 00.886-.044c.254-.03.537-.078.852-.146l.433 3.56c-.551.17-1.097.297-1.636.384-.54.085-1.125.13-1.755.131-1.7.005-3.009-.458-3.928-1.389-.92-.93-1.383-2.41-1.389-4.434L1.71 7.946l-1.7.01L0 4.494l1.7-.009-.015-4.47L6.597 0m24.544 7.37l-1.704.258-6.664 17.791c-.525 1.318-1.229 2.424-2.108 3.314-.881.892-2.21 1.341-3.988 1.347a6.386 6.386 0 01-1.172-.1c-.367-.066-.798-.16-1.292-.282l.563-3.597c.158.023.32.044.49.067.168.021.313.033.439.033.82-.003 1.45-.205 1.888-.606.438-.4.773-.9 1.007-1.496l.554-1.385-5.834-15.02-1.705-.266-.009-2.97 8.946-.027.008 2.97-2.041.345 2.518 7.283.259 1.315.1.017 2.861-8.633-2.06-.331-.01-2.971 8.947-.026.007 2.97" fill="#1A1919" mask="url(#b)"/></g><path d="M72.57 27.666L58.194 43.17l6.216-27.122-8.278 4.382-6.208-16.883-6.207 16.883-8.278-4.382 6.216 27.122L26.97 27.335l-.953 6.915-12.041-3.512 5.557 13.135-5.101 1.39 17.207 12.85c19.577-7.551 31.858-5.357 39.054-2.44-1.059 4.135-2.625 7.98-4.694 11.529a26.954 26.954 0 00-1.831-.918c-2.501-1.134-5.506-2.054-9.121-2.59a47.477 47.477 0 00-4.45-.436 59.197 59.197 0 00-4.02-.067c-4.065.07-8.674.541-13.912 1.546-.197.037-.39.07-.585.105-.951.173-1.878.317-2.782.435-13.148 1.72-21.264-2.173-26.13-6.614a46.545 46.545 0 01-1.298-4.425c4.878 5.09 13.476 9.55 27.725 4.624l-19.25-14.374 6.695-1.826-6.24-14.75 13.699 3.995 1.19-8.635 12.664 13.656-5.582-24.355 9.955 5.27 6.068-16.506c.798.106 1.593.22 2.388.345l5.941 16.16 9.954-5.27-5.581 24.356L72.58 24.972l-.01 2.694" fill="#FFFFFE"/><path d="M29.545 68.335C15.984 69.42 8.339 65.637 4.027 60.954a49.657 49.657 0 002.405 5.068c.048.088.098.172.146.259 4.038 2.964 10.822 5.778 22.222 6.7 11.966.969 19.839 4.191 25.015 7.882 3.131-2.416 5.875-5.07 8.228-7.957-5.86-3.341-15.767-5.908-32.498-4.57" fill="#FFFFFE"/><path d="M6.578 66.28C13.05 77.984 23.45 84.614 35.47 89.843c.714.31 1.49.327 2.2 0 3.525-1.633 7.44-3.26 10.744-5.273a59.901 59.901 0 005.4-3.706c-5.175-3.69-13.048-6.913-25.014-7.882-11.4-.922-18.184-3.736-22.222-6.7m26.086-1.545c-15.15 2.905-24.227-1.26-29.495-6.069.266.767.55 1.53.858 2.286 4.312 4.683 11.957 8.465 25.518 7.381 16.731-1.337 26.638 1.23 32.498 4.57A44.442 44.442 0 0066 67.198c-6.414-3.521-16.753-5.641-33.337-2.46" fill="#0A0B09"/><path d="M70.696 55.674c.911-3.563 1.446-7.342 1.588-11.34.197-5.553.261-11.11.287-16.668L58.193 43.17l6.216-27.122-8.278 4.382-6.208-16.883-6.207 16.883-8.278-4.382 6.216 27.122L26.97 27.335l-.953 6.915-12.041-3.512 5.557 13.135-5.101 1.39 17.207 12.85c19.58-7.552 31.862-5.357 39.058-2.439" fill="#D8232A"/><path d="M67.076 12.573l-5.581 24.355L72.58 24.972c.015-5.432.006-10.865.058-16.296.012-.987-.222-1.54-1.263-1.895-6.608-2.267-13.33-4.028-20.195-5.1l5.941 16.162 9.954-5.27M29.594 58.862l-19.25-14.374 6.695-1.826-6.24-14.75 13.699 3.995 1.19-8.635 12.664 13.656-5.582-24.355 9.955 5.27 6.068-16.506a97.497 97.497 0 00-5.025-.532C29.512-.325 15.7 1.914 2.234 6.595.932 7.052.484 7.633.5 9.016c.077 6.11.073 18.337.073 18.337 0 5.509-.057 11.018.012 16.526A46.94 46.94 0 001.87 54.243c4.878 5.091 13.476 9.546 27.724 4.62" fill="#0A0B09"/></g></svg>