<?xml version="1.0" encoding="UTF-8"?>
<svg width="336px" height="91px" viewBox="0 0 336 91" version="1.1" xmlns="http://www.w3.org/2000/svg" xmlns:xlink="http://www.w3.org/1999/xlink">
    <title>Artboard</title>
    <defs>
        <polygon id="path-1" points="0 0 31.1409658 0 31.1409658 30.0648472 0 30.0648472"></polygon>
    </defs>
    <g id="Artboard" stroke="none" stroke-width="1" fill="none" fill-rule="evenodd">
        <g id="Group" transform="translate(94.316084, 0.000000)">
            <path d="M37.3380841,16.2065278 L30.5655045,16.2262234 L29.611991,10.1749953 C28.7141177,9.28303059 27.5828514,8.57866655 26.219177,8.06214933 C24.8550103,7.5466169 23.246618,7.29082024 21.3952312,7.29623653 C17.4415849,7.3078077 14.4030456,8.75248026 12.2791209,11.6302542 C10.1547038,14.5080282 9.09951177,18.2563478 9.1130525,22.874967 L9.11773021,24.4668642 C9.13151713,29.0857295 10.2036966,32.8382345 12.3345147,35.7233943 C14.4653329,38.6107698 17.465712,40.0468256 21.3358982,40.0352544 C23.1249976,40.0308229 24.7626871,39.7654246 26.2489666,39.240783 C27.7347538,38.7173723 28.8825151,38.0061148 29.6912658,37.1084876 L30.6098196,31.0508584 L37.3823992,31.0309166 L37.4089883,40.0192517 C35.5836982,42.1473617 33.253462,43.8436456 30.417295,45.111304 C27.5806357,46.3779775 24.4044733,47.0178384 20.8880694,47.0285425 C14.7920337,47.0466433 9.79205845,44.9493076 5.88863592,40.7366641 C1.98595197,36.5240206 0.0240236087,31.1104376 0.00482039468,24.4934532 L0,22.964582 C-0.0190605253,16.3690165 1.9000299,10.9431238 5.75716776,6.68739617 C9.61455182,2.43092993 14.611819,0.294203086 20.7502002,0.276099637 C24.2658655,0.26564446 27.4410431,0.895657595 30.2745019,2.16774742 C33.1074684,3.43860628 35.4537072,5.12208803 37.311495,7.2181927 L37.3380841,16.2065278" id="Fill-3" fill="#FFFFFF"></path>
            <path d="M54.3568094,40.3715985 C55.6921714,40.3673715 56.905913,40.0761228 57.9968032,39.4963334 C59.0879397,38.9155593 59.9355893,38.1895301 60.5402443,37.3175072 L60.5252264,32.3084227 L56.0021309,32.3219635 C54.1204622,32.3281183 52.6949928,32.7729928 51.7259691,33.6546173 C50.7571916,34.5382113 50.2744031,35.598081 50.278075,36.8320106 C50.2817889,37.9460432 50.6432033,38.8138808 51.3638162,39.4392162 C52.0836905,40.0645516 53.0817652,40.3757422 54.3568094,40.3715985 Z M62.0543439,46.2681745 C61.809626,45.7228525 61.5954363,45.1617739 61.412021,44.5851851 C61.2278671,44.0085963 61.0843354,43.428807 60.9814258,42.8408932 C59.9326349,44.0583277 58.655375,45.0445851 57.1501384,45.7974496 C55.6449019,46.5493293 53.920798,46.9299468 51.9778266,46.9361765 C48.7603035,46.9454571 46.2025831,46.0773733 44.3051579,44.3330814 C42.4074864,42.5878047 41.4549578,40.2078371 41.4455547,37.1919478 C41.4367393,34.1159868 42.6640217,31.7350345 45.1281879,30.0478598 C47.592108,28.3604389 51.2119138,27.5100812 55.9880978,27.4955557 L60.5111933,27.482015 L60.5013455,24.2639994 C60.4966678,22.685643 60.0377602,21.4630383 59.1246228,20.595447 C58.2114853,19.7281018 56.8645522,19.2965219 55.0838234,19.301692 C54.0717155,19.3048925 53.1716264,19.4247895 52.3828175,19.6596596 C51.5942547,19.8945297 50.9573481,20.1749458 50.4730825,20.5001695 L49.9063415,24.0229745 L43.2283007,24.0426701 L43.2371637,16.7570199 C44.8526957,15.6597286 46.7070368,14.7330504 48.7992023,13.9779702 C50.8916141,13.2236286 53.1721188,12.8420262 55.641209,12.8345356 C59.7090898,12.822823 63.0152431,13.8100652 65.5611462,15.7948897 C68.1065568,17.7814376 69.3852939,20.6163736 69.3961265,24.2994515 L69.4360101,37.8682456 C69.4377334,38.3741764 69.4438883,38.8503176 69.4557057,39.2951921 C69.4667845,39.7400665 69.5034675,40.1652454 69.5657549,40.5697439 L72.2682379,40.9264805 L72.2844868,46.2381387 L62.0543439,46.2681745 L62.0543439,46.2681745 Z" id="Fill-4" fill="#FFFFFF"></path>
            <path d="M75.3734961,40.9149093 L79.6208531,39.9909393 L79.5605354,19.6227303 L74.8530398,18.7255956 L74.8367909,13.3834092 L87.7989603,13.3450027 L88.2076441,18.1398975 C88.9713412,16.4379512 89.9595681,15.1094827 91.1708478,14.1544921 C92.3821274,13.1997477 93.7874088,12.7201597 95.3859532,12.7154361 C95.8517543,12.7140048 96.3421748,12.7482259 96.858692,12.8176529 C97.3752092,12.8870799 97.8050658,12.971771 98.1497389,13.0712338 L97.2324161,21.1493859 L93.5892217,21.0683877 C92.2939896,21.072573 91.2223025,21.3293544 90.3739144,21.837501 C89.5250338,22.34614 88.8795104,23.0657681 88.4373441,23.9986012 L88.4843674,39.9650888 L92.7373869,40.8641931 L92.7528972,46.1758514 L75.3894988,46.2268137 L75.3734961,40.9149093" id="Fill-5" fill="#FFFFFF"></path>
            <polyline id="Fill-6" fill="#FFFFFF" points="99.2940535 5.38280859 99.2780508 0.0398835983 112.877373 0 112.99924 39.8956618 117.282295 40.7947661 117.297805 46.1064244 99.8738428 46.1573867 99.8578401 40.8454823 104.135233 39.9215123 104.031831 6.27945097 99.2940535 5.38280859"></polyline>
            <path d="M134.831817,19.4313941 C133.192896,19.4361145 131.899141,20.0671124 130.951783,21.3251691 C130.004424,22.5824872 129.422173,24.2329789 129.205767,26.2781212 L129.297106,26.4290387 L140.164401,26.3967872 L140.162186,25.6074858 C140.156523,23.7263094 139.712141,22.2247658 138.828547,21.1043322 C137.944953,19.9836523 136.612545,19.4257743 134.831817,19.4313941 Z M134.832309,46.6895014 C130.096501,46.7027088 126.307313,45.1959951 123.46573,42.1687807 C120.623162,39.1415664 119.194984,35.290091 119.18169,30.616078 L119.177879,29.4015978 C119.163471,24.5244738 120.49194,20.5026315 123.164387,17.3382865 C125.836342,14.1736953 129.42882,12.5941078 133.942068,12.601391 C138.373825,12.587953 141.817847,13.9137133 144.274628,16.5780361 C146.730916,19.2416204 147.966569,22.8505937 147.98011,27.4042173 L147.994143,32.2306251 L128.384461,32.2887271 L128.323651,32.4701729 C128.492294,34.6357045 129.220785,36.4142176 130.510355,37.806943 C131.799432,39.1996684 133.546925,39.8924613 135.752586,39.8863064 C137.715746,39.8799053 139.344572,39.678764 140.638327,39.2796818 C141.932574,38.8813382 143.346965,38.255018 144.882976,37.400475 L147.297164,42.8573883 C145.944323,43.933753 144.19166,44.8392584 142.038192,45.5743969 C139.885216,46.3087967 137.483091,46.6810436 134.832309,46.6895014 L134.832309,46.6895014 Z" id="Fill-7" fill="#FFFFFF"></path>
            <path d="M162.576522,4.28477867 L162.601141,13.1157951 L168.369491,13.0988077 L168.386725,19.3216338 L162.618375,19.3386213 L162.667614,36.0658516 C162.672538,37.3404034 162.938428,38.2498479 163.465286,38.7941852 C163.994605,39.3397534 164.703647,39.6103217 165.592411,39.6073674 C166.200513,39.6061364 166.732294,39.5793012 167.187755,39.527354 C167.643216,39.4756531 168.15284,39.3875152 168.719088,39.2639253 L169.497065,45.6677048 C168.507361,45.9737252 167.525042,46.2049024 166.555034,46.3595129 C165.582563,46.5141234 164.53131,46.5929058 163.398813,46.59715 C160.341071,46.6052155 157.987446,45.7725839 156.333015,44.0977189 C154.678585,42.422854 153.846445,39.7639475 153.834135,36.1217379 L153.784896,19.3649641 L150.703027,19.3789972 L150.684316,13.1561711 L153.767663,13.142138 L153.743043,4.31136773 L162.576522,4.28477867" id="Fill-8" fill="#FFFFFF"></path>
            <path d="M180.147463,29.8186522 C180.15731,32.813615 180.689092,35.2164787 181.74773,37.0240427 C182.806369,38.8325916 184.507577,39.7326807 186.856278,39.7255832 C189.14343,39.7181552 190.815094,38.8035406 191.871271,36.9782505 C192.92991,35.1541913 193.454305,32.7545282 193.444457,29.779261 L193.441995,29.1413696 C193.434609,26.2271588 192.890518,23.8518689 191.812184,22.0127919 C190.73385,20.1744534 189.04249,19.2588541 186.735642,19.2654654 C184.428794,19.2721486 182.749744,20.1983344 181.703415,22.0428277 C180.657086,23.8880596 180.137615,26.26655 180.147463,29.1807608 L180.147463,29.8186522 Z M171.28186,29.2071037 C171.267207,24.3102841 172.626204,20.2943504 175.358969,17.1593027 C178.094196,14.0247473 181.878214,12.4500837 186.713485,12.4354636 C191.570913,12.4215251 195.374626,13.968861 198.127087,17.0763349 C200.879548,20.185286 202.260702,24.1987578 202.275474,29.1155191 L202.278055,29.7531643 C202.292707,34.6915908 200.933711,38.7173723 198.200946,41.8327245 C195.468181,44.9461071 191.691548,46.5109228 186.875973,46.52555 C181.998849,46.5399738 178.185288,44.997808 175.432827,41.9001819 C172.682829,38.80034 171.299212,34.7829292 171.284441,29.8449951 L171.28186,29.2071037 L171.28186,29.2071037 Z" id="Fill-9" fill="#FFFFFF"></path>
            <path d="M204.54293,40.5197663 L208.789795,39.5957962 L208.730708,19.2275873 L204.023459,18.3306987 L204.006225,12.9882661 L216.968394,12.9498597 L217.377078,17.6539085 C218.46526,15.9714115 219.807023,14.6614077 221.402367,13.7261127 C222.997711,12.7905715 224.787549,12.3198465 226.771881,12.3136221 C230.090591,12.3038439 232.683024,13.3388479 234.551645,15.4174727 C236.420265,17.4963437 237.36073,20.7618748 237.37304,25.2145585 L237.414893,39.5108589 L241.669144,40.4099633 L241.683916,45.7216215 L224.745696,45.7725839 L224.730924,40.4606795 L228.522328,39.5376942 L228.480475,25.2711834 C228.473089,23.0652757 228.022552,21.5029219 227.128864,20.5846144 C226.237638,19.6663069 224.888489,19.2101074 223.088803,19.2152775 C221.914453,19.2189705 220.8632,19.4599954 219.935045,19.9381062 C219.004427,20.4167094 218.226451,21.0917762 217.601116,21.9637991 L217.652817,39.5699458 L221.239878,40.4712658 L221.25465,45.7829241 L204.560164,45.8316707 L204.54293,40.5197663" id="Fill-10" fill="#FFFFFF"></path>
            <path d="M11.3898643,58.618303 L11.3987274,61.5884001 L8.76739465,62.1034402 L8.80530869,74.9297099 C8.80998639,76.5506582 9.24944456,77.7614454 10.1236832,78.5637951 C10.998168,79.36516 12.1949221,79.7630112 13.7136994,79.7580873 C15.2551266,79.7541482 16.4634519,79.3516193 17.3389215,78.5492696 C18.2141449,77.7488895 18.6494178,76.531455 18.6447401,74.8999203 L18.6068261,62.0736506 L15.9890341,61.5748594 L15.9804173,58.6047623 L26.1571359,58.5749727 L26.1657527,61.5450698 L23.5346662,62.0591251 L23.5725802,74.885641 C23.5807047,77.642287 22.6783998,79.7726128 20.8656656,81.2734178 C19.0529315,82.7752076 16.6727177,83.5302879 13.7250244,83.5392429 C10.7884098,83.5487525 8.41508953,82.8069668 6.60457113,81.3155172 C4.79454511,79.8252985 3.88534679,77.7008814 3.87722235,74.9442355 L3.83930831,62.1177195 L1.22176253,61.6191745 L1.2131457,58.6490774 L3.82896812,58.6414454 L8.75705446,58.6269199 L11.3898643,58.618303" id="Fill-11" fill="#FFFFFF"></path>
            <path d="M27.5205641,80.1904058 L29.8818208,79.6773353 L29.8483383,68.3535939 L27.2307925,67.855049 L27.2221757,64.8839671 L34.428551,64.8627943 L34.655789,67.4783705 C35.2604441,66.5425831 36.0064151,65.8150768 36.8939482,65.2943742 C37.7812352,64.7736717 38.7761094,64.5122126 39.878817,64.5092169 C41.7238028,64.5035957 43.1660134,65.0791998 44.2047103,66.2341008 C45.2429148,67.3899865 45.7658331,69.2059212 45.773219,71.6811663 L45.7968537,79.6303121 L48.1608186,80.128857 L48.1696816,83.0827053 L38.7524747,83.1105253 L38.7438579,80.1569233 L40.8520261,79.6445914 L40.8283914,71.7129254 C40.8246984,70.4868741 40.5745643,69.6182979 40.0779888,69.1069508 C39.5814134,68.5978194 38.8324881,68.3432538 37.8312128,68.3459619 C37.1785497,68.3479315 36.5935903,68.482354 36.0770731,68.7484908 C35.5603097,69.0138891 35.1282373,69.3895827 34.7811023,69.8748332 L34.8101533,79.663056 L36.8028561,80.1625858 L36.8114729,83.1161878 L27.5291809,83.144254 L27.5205641,80.1904058" id="Fill-12" fill="#FFFFFF"></path>
            <path d="M56.8283615,60.4256209 L51.900029,60.4401464 L51.8889502,56.7437739 L56.8172827,56.7292484 L56.8283615,60.4256209 Z M49.5786559,80.1251641 L51.9569,79.6120936 L51.9231713,68.2883523 L49.2888843,67.7895611 L49.2802675,64.8187254 L56.8414099,64.7965678 L56.8849864,79.5975681 L59.2491975,80.0963593 L59.2578143,83.0499613 L49.5872727,83.0787661 L49.5786559,80.1251641 L49.5786559,80.1251641 Z" id="Fill-13" fill="#FFFFFF"></path>
            <polyline id="Fill-14" fill="#FFFFFF" points="67.8226939 67.7319514 66.1020367 68.0576675 68.5396139 76.2192796 68.8655761 77.9391983 68.9667623 77.9391983 69.3161131 76.2173101 71.6714611 68.0586523 69.9153518 67.726289 69.906735 64.7552071 78.193168 64.7303414 78.2017849 67.7011771 76.6162887 67.9586971 71.2770567 83.0125397 66.5683301 83.0258342 61.1232342 68.0049818 59.5360147 67.7570633 59.5273979 64.7859815 67.8140771 64.7611158 67.8226939 67.7319514"></polyline>
            <path d="M87.1002588,68.1625256 C86.1888447,68.1652547 85.469709,68.5160827 84.9430977,69.214538 C84.4164865,69.9142244 84.0929862,70.8317933 83.9725969,71.9684759 L84.0235592,72.0529208 L90.0651858,72.0356871 L90.064201,71.5964752 C90.0610005,70.5501462 89.8135744,69.7152988 89.3226615,69.0926715 C88.8312562,68.4690594 88.0902091,68.1595922 87.1002588,68.1625256 Z M87.5840321,83.3161499 C84.9514684,83.3237302 82.8445311,82.4869132 81.2646975,80.8034315 C79.6841253,79.1209345 78.8903924,76.9792837 78.8825142,74.3802026 L78.8807245,73.7056282 C78.8726664,70.9940359 79.6114977,68.7583386 81.0970387,66.998044 C82.5825796,65.2394727 84.57996,64.3603102 87.0889338,64.3651754 C89.5531001,64.3576021 91.4682514,65.0944639 92.8338953,66.5750809 C94.1995393,68.0566827 94.8864235,70.0631724 94.8938093,72.5947961 L94.9016876,75.2785683 L83.9991859,75.3103275 L83.9657034,75.4112675 C84.0592575,76.6151613 84.4642484,77.6048654 85.1811684,78.3784102 C85.8978422,79.1526937 86.869574,79.5379889 88.0961178,79.534296 C89.187008,79.5303569 90.0927596,79.4188305 90.8121416,79.1970088 C91.5312773,78.9759256 92.3181167,78.6270672 93.1716749,78.1524032 L94.5144227,81.1860186 C93.7620507,81.7845188 92.7873645,82.2879876 91.5903641,82.69741 C90.3933638,83.1056014 89.0577556,83.3124052 87.5840321,83.3161499 L87.5840321,83.3161499 Z" id="Fill-15" fill="#FFFFFF"></path>
            <path d="M96.8591844,79.9781857 L99.2206873,79.4651152 L99.1869586,68.1413738 L96.569659,67.6425826 L96.5610422,64.671747 L103.767418,64.6505742 L103.994409,67.3158818 C104.419342,66.3704928 104.968357,65.6316615 105.641947,65.1001263 C106.315536,64.5698222 107.096467,64.3036854 107.985477,64.300695 C108.244228,64.2997462 108.517259,64.3189494 108.804076,64.3576021 C109.091139,64.3969933 109.330195,64.4430318 109.521981,64.4986718 L109.011865,68.989762 L106.986664,68.9447083 C106.266544,68.9464316 105.670505,69.0897171 105.199042,69.3721029 C104.727332,69.6547348 104.368133,70.0552941 104.122185,70.5732885 L104.148527,79.4505897 L106.512739,79.9503656 L106.521355,82.9039676 L96.8680474,82.9317877 L96.8591844,79.9781857" id="Fill-16" fill="#FFFFFF"></path>
            <path d="M125.154874,70.8635525 L121.846751,70.8731541 L121.316939,68.5968347 C120.978421,68.3277435 120.553242,68.1039522 120.040664,67.9252146 C119.528086,67.7464769 118.96233,67.6580929 118.343888,67.6600625 C117.477281,67.6627706 116.791874,67.8587419 116.286682,68.2479763 C115.78149,68.6381954 115.529632,69.126154 115.531356,69.7113596 C115.533079,70.2628366 115.77632,70.720267 116.261078,71.0834047 C116.745836,71.4485119 117.714613,71.7695503 119.166672,72.0452887 C121.429943,72.4891784 123.108255,73.1455344 124.202099,74.0141106 C125.295698,74.8836715 125.845205,76.0828876 125.849662,77.6124974 C125.85456,79.2556032 125.152412,80.5988434 123.743684,81.6432028 C122.334464,82.6887932 120.476922,83.2141734 118.170567,83.2221015 C116.763808,83.2257446 115.472023,83.0241108 114.29521,82.616658 C113.118152,82.2092052 112.0733,81.6249844 111.159424,80.8620259 L111.09689,76.7611549 L114.539436,76.7515533 L115.221642,79.1297975 C115.514861,79.3757464 115.914928,79.5571921 116.421597,79.674381 C116.928513,79.7898465 117.457093,79.8484409 118.00857,79.8464713 C119.009846,79.843517 119.771573,79.6620712 120.293753,79.2996721 C120.815932,78.9375192 121.075914,78.4483296 121.073945,77.8296415 C121.072714,77.2897357 120.806823,76.8227037 120.276765,76.4307612 C119.746707,76.0385725 118.772514,75.6926684 117.354184,75.3928028 C115.20367,74.9604843 113.579029,74.3156995 112.479276,73.4577097 C111.379769,72.59972 110.827799,71.4293087 110.823344,69.944014 C110.818936,68.4141579 111.44501,67.0930753 112.701836,65.9802737 C113.958662,64.868703 115.751946,64.3093478 118.080705,64.3026151 C119.498543,64.2980229 120.840552,64.4853773 122.107718,64.8637791 C123.374638,65.2434119 124.368773,65.7296471 125.090617,66.3234696 L125.154874,70.8635525" id="Fill-17" fill="#FFFFFF"></path>
            <path d="M135.165165,60.184596 L130.237078,60.1988753 L130.226,56.5025028 L135.154086,56.4879773 L135.165165,60.184596 Z M127.915705,79.8848777 L130.293703,79.3708225 L130.259975,68.0470811 L127.625934,67.5485361 L127.617317,64.5774543 L135.178213,64.5555429 L135.222036,79.3565432 L137.586001,79.8560729 L137.594864,82.8096749 L127.924322,82.8384798 L127.915705,79.8848777 L127.915705,79.8848777 Z" id="Fill-18" fill="#FFFFFF"></path>
            <g id="Group-22" transform="translate(139.067603, 60.049927)">
                <mask id="mask-2" fill="white">
                    <use xlink:href="#path-1"></use>
                </mask>
                <g id="Clip-20"></g>
                <path d="M6.59728878,0 L6.61058331,4.47188691 L9.81727385,4.4622853 L9.82736785,7.92231054 L6.62067731,7.93191215 L6.64825116,17.2311916 C6.65022072,17.9402334 6.79818394,18.4466566 7.09164844,18.7492303 C7.38511294,19.051804 7.77902502,19.2027216 8.27436947,19.200752 C8.61190288,19.1997672 8.90733694,19.1845031 9.16017926,19.1566831 C9.41351397,19.1278783 9.69737686,19.0788855 10.0122603,19.0106894 L10.4445788,22.5706699 C9.89384051,22.7405445 9.34827228,22.8683197 8.80861273,22.9549804 C8.26870698,23.04041 7.68399373,23.084479 7.0537344,23.0864874 C5.35474236,23.0913724 4.04547708,22.6282795 3.12593856,21.6971698 C2.20590766,20.7660602 1.74306096,19.2874127 1.73715228,17.2627046 L1.70957843,7.94643766 L0.0100939971,7.95505449 L0,4.49502924 L1.69948444,4.48641241 L1.68594371,0.014525508 L6.59728878,0" id="Fill-19" fill="#FFFFFF" mask="url(#mask-2)"></path>
                <path d="M31.1409658,7.37083363 L29.437296,7.62835365 L22.772796,25.4193928 C22.2484006,26.7367825 21.5442827,27.8426907 20.6653664,28.7334244 C19.7839881,29.6251429 18.4545348,30.0739564 16.6770066,30.0796405 C16.2609369,30.0806037 15.8694868,30.0478598 15.5051181,29.9806485 C15.1382875,29.9144221 14.7074461,29.8201294 14.2125941,29.6982628 L14.7763808,26.1006145 C14.9339456,26.1237569 15.0964343,26.1449296 15.2663089,26.168072 C15.4337215,26.1892447 15.5789766,26.2005697 15.7045361,26.2005697 C16.5243656,26.1978616 17.154625,25.9959816 17.5928521,25.5954223 C18.0310793,25.1946167 18.3659046,24.695087 18.5997899,24.099295 L19.1537288,22.7137092 L13.3203832,7.69359534 L11.6149901,7.42844327 L11.6063733,4.4573614 L20.5521167,4.43052614 L20.5595025,7.40160801 L18.5185455,7.7455425 L21.0371209,15.0287307 L21.2956257,16.3441508 L21.3965657,16.3606459 L24.2573522,7.72830884 L22.1966996,7.39668411 L22.1868518,4.42584843 L31.1335799,4.39975176 L31.1409658,7.37083363" id="Fill-21" fill="#FFFFFF" mask="url(#mask-2)"></path>
            </g>
        </g>
        <g id="Group-2" transform="translate(1.000000, 0.000000)">
            <path d="M71.2655772,27.785139 L57.3031192,42.9207453 L63.3391004,16.4452344 L55.3001786,20.7231488 L49.2723199,4.24245001 L43.2444612,20.7231488 L35.2057934,16.4452344 L41.2417745,42.9207453 L26.9813249,27.4623883 L26.055114,34.2123436 L14.3623677,30.7845522 L19.7587074,43.6052831 L14.8050402,44.9633876 L31.5156717,57.5057619 C50.5269816,50.1350535 62.452994,52.2761794 69.4413301,55.1237849 C68.4128273,59.1600827 66.8916484,62.9129211 64.882616,66.3777077 C64.3201377,66.0674587 63.7302461,65.7671602 63.1043114,65.4819149 C60.6757046,64.3751223 57.7574677,63.4772884 54.2470548,62.9539985 C52.8967007,62.7524387 51.4552231,62.6090506 49.9251603,62.5276613 C49.498225,62.5049539 49.0641827,62.4873494 48.6227793,62.4748476 C47.7826154,62.4511196 46.915546,62.4465271 46.0213172,62.4620906 C42.073816,62.5302127 37.5978491,62.9907385 32.5116847,63.9712373 C32.3200461,64.0082325 32.133484,64.0393594 31.9438761,64.0740583 C31.0199496,64.2427052 30.1196289,64.3840521 29.2421526,64.4993749 C16.473692,66.1779339 8.59239617,62.3776396 3.8666646,58.0430845 C3.37551138,56.6224709 2.95390648,55.1824669 2.6059111,53.7230722 C7.34357249,58.692413 15.6924157,63.0461036 29.5302451,58.2375003 L10.8357099,44.2058801 L17.3379693,42.4237347 L11.2783824,28.025735 L24.5808929,31.9257886 L25.7378315,23.4959986 L38.0354451,36.8267522 L32.6149919,13.0521419 L42.2814456,18.1962529 L48.1745227,2.08525042 C48.9491995,2.18781627 49.7220995,2.30007739 50.4932228,2.42101324 L56.2631943,18.1962529 L65.9293942,13.0521419 L60.5094486,36.8267522 L71.2754764,25.1561875 L71.2655772,27.785139" id="Fill-22" fill="#FFFFFE"></path>
            <path d="M29.4825258,67.4845003 C16.313274,68.5425614 8.88937253,64.8507012 4.70175198,60.2786117 C5.38022875,61.9564053 6.15795147,63.6063887 7.03771221,65.2265208 C7.08390854,65.3114821 7.13213547,65.3941471 7.17883944,65.4785981 C11.1007042,68.3723838 17.6890106,71.1186991 28.7591218,72.0193395 C40.3797816,72.9646292 48.0247654,76.1099819 53.0515345,79.7130538 C56.0923694,77.3545496 58.7567805,74.7638689 61.0417217,71.9453492 C55.3514515,68.6844187 45.7306864,66.1789544 29.4825258,67.4845003" id="Fill-23" fill="#FFFFFE"></path>
            <path d="M7.17883944,65.4785981 C13.4643315,76.9019331 23.5640661,83.373787 35.2367601,88.4778412 C35.9299588,88.7809462 36.6843295,88.7967648 37.3737208,88.4778412 C40.7965638,86.8834781 44.5988765,85.2949831 47.8062213,83.3306685 C49.6627043,82.1919835 51.4108036,80.9856867 53.0515345,79.7130538 C48.0247654,76.1099819 40.3797816,72.9646292 28.7591218,72.0193395 C17.6890106,71.1186991 11.1007042,68.3723838 7.17883944,65.4785981" id="Fill-24" fill="#1B1A19"></path>
            <path d="M32.5116847,63.9712373 C17.7991711,66.8078719 8.98481109,62.7414677 3.86818756,58.047677 C4.12734385,58.7965097 4.40350649,59.5407499 4.70175198,60.2786117 C8.88937253,64.8507012 16.313274,68.5425614 29.4825258,67.4845003 C45.7306864,66.1789544 55.3514515,68.6844187 61.0417217,71.9453492 C62.4740615,70.1782571 63.7561364,68.3211008 64.8851542,66.3733703 C58.6565192,62.9358836 48.6164337,60.8664518 32.5116847,63.9712373" id="Fill-25" fill="#1B1A19"></path>
            <path d="M65.9293942,13.0521419 L60.5094486,36.8267522 L71.2754764,25.1561875 C71.2896906,19.8533802 71.2810606,14.5500625 71.3313181,9.2490411 C71.3429941,8.28461597 71.1158199,7.74525229 70.1053387,7.39902877 C63.688111,5.18595375 57.1597076,3.46682769 50.4932228,2.42101324 L56.2631943,18.1962529 L65.9293942,13.0521419" id="Fill-26" fill="#1B1A19"></path>
            <path d="M29.5302451,58.2375003 L10.8357099,44.2058801 L17.3379693,42.4237347 L11.2783824,28.025735 L24.5808929,31.9257886 L25.7378315,23.4959986 L38.0354451,36.8267522 L32.6149919,13.0521419 L42.2814456,18.1962529 L48.1745227,2.08525042 C46.5561284,1.87093372 44.9298656,1.69539814 43.2947188,1.56502215 C29.4505437,0.462822007 16.0373652,2.64757661 2.96101361,7.21788014 C1.69594506,7.66258728 1.26139503,8.22950597 1.2764808,9.57970115 C1.35150325,15.5435735 1.34744203,27.4792274 1.34744203,27.4792274 C1.34744203,32.8565354 1.29261563,38.2338433 1.35911803,43.6111513 C1.40353757,47.0767033 1.8253963,50.4496398 2.6069264,53.7268993 C7.34382631,58.6970055 15.6936848,63.0455933 29.5302451,58.2375003" id="Fill-27" fill="#1B1A19"></path>
            <path d="M69.444376,55.1250606 C70.3294671,51.6470068 70.8490488,47.9587185 70.9866225,44.0558584 C71.1787687,38.635432 71.2409561,33.2109233 71.2655772,27.785139 L57.3031192,42.9207453 L63.3391004,16.4452344 L55.3001786,20.7231488 L49.2723199,4.24245001 L43.2444612,20.7231488 L35.2057934,16.4452344 L41.2417745,42.9207453 L26.9813249,27.4623883 L26.055114,34.2123436 L14.3623677,30.7845522 L19.7587074,43.6052831 L14.8050402,44.9633876 L31.5156717,57.5057619 C50.5295199,50.1337778 62.4562937,52.2766897 69.444376,55.1250606" id="Fill-28" fill="#D4252C"></path>
            <path d="M36.2030755,0 C25.2695227,0 13.9438087,2.02070027 2.54067783,6.00622539 C0.738005922,6.64024561 -0.0209336735,7.71259451 0.000438345798,9.59322351 C0.0745048843,15.4823401 0.0712051469,27.3600776 0.0712051469,27.4792274 C0.0712051469,29.1514079 0.065874802,30.8233333 0.060544457,32.4950035 C0.0491222892,36.1427247 0.0371924694,39.9146986 0.0831349667,43.6295213 C0.12806216,47.1458459 0.5588048,50.6415043 1.36368689,54.0192885 C1.36419454,54.0218399 1.3647022,54.0243913 1.36546367,54.0266875 C1.3657175,54.0274529 1.3657175,54.0284735 1.36597133,54.0292389 C1.71929705,55.5100652 2.15486238,57.0033933 2.66124516,58.4678908 C2.66378342,58.4750347 2.66632168,58.4821785 2.66911376,58.4893224 C2.74881511,58.7072111 2.82039403,58.9049437 2.88740408,59.0896643 C3.10823266,59.6984258 3.28286491,60.1793627 3.51993835,60.7656719 C4.21770589,62.4914316 5.02461859,64.2003521 5.91808594,65.8454879 C5.94676827,65.8983016 5.97646591,65.9508602 6.00616355,66.0034189 C6.02494667,66.0365869 6.04372979,66.069755 6.06225908,66.1034333 C9.10766285,71.6376517 13.147049,76.3043977 18.4113993,80.3705468 C22.7972579,83.7577711 27.9829221,86.7097284 34.7306312,89.6604101 C35.2461517,89.8856978 35.7817244,90 36.3226275,90 C36.8721607,90 37.4059567,89.8818707 37.9087859,89.649184 C38.6464041,89.305767 39.3835147,88.9705144 40.1642833,88.6158713 C42.9799746,87.3358394 45.8916121,86.0124338 48.4727682,84.431593 C50.3559029,83.2768342 52.1595901,82.0327768 53.8340799,80.7341197 C56.9381175,78.326884 59.6972056,75.6440982 62.0346888,72.760263 C63.5023104,70.9500523 64.8310893,69.0242637 65.9839668,67.0367315 C65.9867589,67.0318839 65.9898048,67.0270362 65.9925969,67.0221886 C68.0374187,63.4938724 69.6070784,59.6297934 70.6586793,55.5360894 C70.6685785,55.5067484 70.6774624,55.476642 70.6850772,55.4462805 C71.5952971,51.8699982 72.1273163,48.0536302 72.2664129,44.1038245 C72.4755655,38.2101154 72.525823,32.2903821 72.5461291,27.7915175 L72.5562821,25.1612903 C72.5600895,23.6853117 72.562374,22.2108638 72.5644046,20.736416 C72.5699887,16.9736271 72.5758267,13.0827586 72.6123578,9.25975694 C72.6240537,8.25323389 72.4209929,6.83568203 70.5231363,6.18482264 C63.6469912,3.81356148 57.1599614,2.16740515 50.6934914,1.15322793 C49.8982547,1.028465 49.1080946,0.913907623 48.3445861,0.812872609 C46.6703501,0.591156885 45.0062672,0.413835333 43.3985336,0.285755594 C41.0176462,0.096187374 38.5969081,0 36.2030755,0 Z M36.2030755,1.28079739 C38.5555344,1.28079739 40.9204308,1.37315768 43.2977647,1.56247077 C44.9331653,1.69284676 46.559682,1.86838233 48.1780763,2.08269903 C48.9530069,2.18526488 49.7259069,2.297526 50.4970302,2.41871699 C57.1645303,3.46453144 63.6936952,5.18391264 70.1116844,7.39698766 C71.1224193,7.74346632 71.3493397,8.28283 71.3380846,9.24751027 C71.28766,14.549042 71.2960363,19.8528699 71.2820759,25.1564427 L71.2721766,27.7856493 C71.2473017,33.212199 71.1853682,38.6374731 70.9929681,44.0584098 C70.8556483,47.9617802 70.3358127,51.6503236 69.4507216,55.1291428 C69.4497063,55.1286325 69.448691,55.1281223 69.4476757,55.1278671 C68.4194268,59.1626341 66.8987555,62.9147071 64.8909922,66.3787282 C64.8907384,66.3789834 64.8904846,66.3794936 64.8902307,66.3797488 C64.8894693,66.3807693 64.8889616,66.382045 64.888454,66.3830656 L64.8882001,66.3830656 C63.75969,68.3295204 62.4783766,70.185401 61.047052,71.9514726 C58.761857,74.7702474 56.0971921,77.3611832 53.0558496,79.7199425 C51.4148648,80.9928306 49.6665116,82.1993826 47.8097748,83.3380676 C44.6019224,85.3026373 40.7993559,86.8913874 37.3760052,88.4857505 C37.0356246,88.6431712 36.6795068,88.7192026 36.3226275,88.7192026 C35.9566105,88.7192026 35.5900859,88.6393441 35.2390446,88.4857505 C23.5648276,83.3811861 13.4638238,76.9085667 7.17757031,65.483956 C7.13086634,65.3992499 7.08263941,65.31684 7.03644308,65.2316236 C6.15642851,63.6114915 5.37870579,61.9612529 4.70022903,60.2832042 C4.40172971,59.5453424 4.20577607,58.9791892 3.86488782,58.0474218 C3.37398843,56.6278289 2.95289118,55.1891005 2.60514962,53.7307264 C2.60514962,53.7304712 2.60514962,53.7304712 2.6048958,53.7302161 C2.60464197,53.7291955 2.60438814,53.7279199 2.60413432,53.7268993 C1.82311186,50.4504052 1.40125313,47.0782341 1.35708742,43.6137027 C1.29058502,38.2356293 1.34541142,32.8575559 1.34541142,27.4797377 C1.34541142,27.4797377 1.34947264,15.5428081 1.27445042,9.57817031 C1.25936443,8.22771999 1.69416828,7.66080131 2.95923682,7.21609416 C13.791767,3.42983254 24.8550249,1.28079739 36.2030755,1.28079739 L36.2030755,1.28079739 Z" id="Fill-29" fill="#FFFFFE"></path>
        </g>
    </g>
</svg>