<svg width="252" height="100" xmlns="http://www.w3.org/2000/svg"><g fill="none"><path d="M242.385 45.21c.567.498 1.015-.56.35-.7-.375-.078-.65.436-.35.7zm4.553-8.67c.032-.12.123-.097.147-.233-.147-.114-.17.077-.282.05-.165-.16-.395-.28-.605-.207-.035.158-.138.16-.178.305-.224-.02-.2-.233-.352-.19-.024.168.07.29.168.41-.4.89 1.042 1.35 1.244.43.046-.203-.125-.326-.142-.564zm-3.053 1.31c.09-.156-.13-.17-.226-.18-.107-.105-.013-.29-.237-.35-.256.195.19.638.462.53zm.5-.047c.162.528-.018 1.19.892 1.428.118.142.187.302.49.373.228-.13.59-.092.765-.357.27-.412.108-1.036-.515-1.102-.342-.65-1.108-.333-1.633-.34zM234.66 49.52c-.674-.416-1.437.52-.797 1.02.83.648 1.427-.633.797-1.02zm.463-17.43l-.182-.358c-.393.09-.803.17-.605.62.235.02.667.05.787-.26zm-.54 2.243c.13.132.27.013.367-.06-.002-.178-.434-.17-.366.06zm3.81-22.022c-.67-.41-1.38.208-1.22.92.802-.017 1.135-.377 1.22-.92zm-3.077 21.136c.234-.175.207-.582 0-.77-.402.013-.402.756 0 .77zm-15.28-19.78c.056.68-.157.744.186 1.29.84.108.594-1.613-.185-1.29zm4.593 2.385c-1.023.13-1.46 2.637-.334 3.05 2.912.05 1.827-3.24.335-3.05zm-.4-1.447c.09.5-.26.415.105.736.753.046.606-.98-.105-.737zm6.607 6.992c.263-.027.404-.143.542-.26-.54-.977-1.672-1.197-3.056-1.09.56.81 1.936.565 2.513 1.35zm1.92 3.204c-.068-.193-.214-.346-.427-.238.002.157-.022.34.062.413.244.062.27-.09.366-.176zm2.073 4.855c-.198-.034-.284.04-.426.058-.03.136-.12.303 0 .416.325.02.456-.15.426-.475zm14.972 29.595c.145-.527-.553-.652-.807-.392.018.376.453.54.807.392zm-80.74-13.315c.295.02.563.013.515-.3-.26-.087-.55-.132-.515.3zm74.274-15.33c-.05-1.89-2.483-.55-1.464.574.738-.008 1.204-.217 1.464-.574zm7.88 25.573c.077.335.637.294.673-.065-.093-.244-.665-.285-.675.065zm-3.903 10.524c.124-.356-.296-.4-.472-.26v.194c.088.09.294.066.473.066zm-62.868-23.04c.107-.8-1.395-.69-.83.17.227.083.5.04.83-.17zm.27 2.372c.04-.876-.52-1.163-.722-1.8-.768.37-1.618.802-1.44 1.7.193.98 1.613.942 2.16.1zm55.373 2.322c-.023-.167-.224-.163-.338-.246-.162.253-.42.414-.423.82.385-.064.613-.28.76-.574zm1.11.73a.334.334 0 00-.007.163.351.351 0 00.158-.03c.035.083.02.178-.077.203-.497-.145-.49-.784-.843-1.068-.218.113-.018.503 0 .657-.36.007-.458.267-.506.574.997-.22 1.208.727 2.027.41-.07-.395-.175-.76-.337-1.066h-.042c.027-.07.053-.144.094-.203-.085.097-.24.13-.35.204-.116.012-.204.048-.21.164a.18.18 0 01.095-.007zM151.26 63.71l.107.735c.514.36 1.148-.122 1.487-.39-.174-.893-.892-.603-1.595-.346zm90.87-24.527a.328.328 0 01.202-.066c.028-.224-.02-.372-.27-.326-.084.2-.05.256.068.393zm-5.046-7.514c-.15-.01-.295-.01-.365.058.06.144.372.158.366-.06zm-47.06-4.932c.215-.354.577-1.627-.4-1.45-.282.39-.056 1.354.4 1.45zm-3.96-6.392c.246-.303.35-.665-.013-.823a.7.7 0 01-.068.447c-.243-.526-.945-1.008-1.37-1.324-.292.735.174 1.517.85 1.78a.61.61 0 00-.236.398c.16.062.442-.087.675-.306.045 0 .09.002.137-.002a.608.608 0 00.025-.17zm1.992-10.05c-.244-.126-.544-.174-.976-.057.002.435.132.703.323.895.478-.088.697-.367.653-.84zm-11.662 13.028c-.2-.832-.62-1.385-1.538-1.294.07.495.21.9.482 1.132.002.02.008.037.004.063.03.004.05 0 .076-.002.232.154.547.203.976.1zm7.495 1.202c-.045.09-.09.18-.205.2-.09.387.25.357.308.6.53-.073.496-.82-.102-.8zm-12.974.2v-.4c-.295-.02-.56-.013-.514.3.118.084.276.13.514.1zm46.718-4.912c-.377.047-.31-.47-.812-.266-.152.466.122 1.933.697 2.158.186-.708-.236-1.13.114-1.892zm-53.647 20.77c.007-.588-.488-.534-1.026-.425.048.803.575.647 1.027.424zm3.634-18.36c-.088.082-.06.275-.205.3-.064 1.665 1.94-.384.206-.3zm-5.765 11.706c-.202-.12-.577-.33-.824-.1v.4c.394.085.8.188.825-.3zm40.702-15.114c.024-.14 0-.3-.134-.493-.23.073-.348.182-.418.31.126.223.31.283.552.183zm2.564 2.69c-.03.69-.07 1.373.13 2.235.895-.29.62-2.033-.13-2.235zm1.004-.15c-.124.355-.378.99-.058 1.25.445-.245.51-.943.058-1.25zm9.26-6.566c-1.566-.428-1.61 1.717-.488 1.895 1.2.188 1.69-1.567.487-1.895zm-3.86 5.226c-.437.23-.454.6-.287 1.028.54-.193.516-.576.288-1.028zm-13.94-1.29c-.387.29.12.84.403 1.033.438-.25-.13-.935-.404-1.033zm-5.147 8.4c-.565.15-.815.61-.823 1.302.477-.236.784-.64.823-1.302zm-.515-10.003c-.388-.086-.364.447-.205.6.263-.012.204-.335.205-.6zm2.18 5.685c.097-.397-.408-1.57-1.023-1.74-.454.854.5 1.446 1.02 1.74zm20.647 9.957c.147.007.262-.017.338-.082.084-.246-.19-.146-.34-.164v.245zM195.454 7.98c.23-.587.424-1.943-.48-2-.318.427-.463 2.057.48 2zm4.52 69.112c-.252-.07-.3.257-.39.51.345.2.493-.316.39-.51zm-.626 5.272c.326 1.104 1.837.69 1.858 2.19 1.257-.766-1.167-2.575-1.86-2.19zm-3.465-7.98c-.042.462-.677.49-.41 1.182.22.01.324.163.43.316 1.108-.11.978-1.498-.02-1.498zm-15.454 6.782c.378-.05.314.47.813.267.46-.405.18-1.24-.73-1.03.095.343-.153.435-.082.763zm.825-13.442c.945-.173 1.853-.413 2.472-1.21-.927.205-1.96.208-2.472 1.21zm24.68 9.382c.16-.79.92-.43 1.202-.984-.328-.27-1.792.464-1.202.984zm-33.968 1.637c-.448.002-.722.13-.92.312-.004.59.488.535 1.026.422-.034-.243-.07-.49-.106-.734zm39.08-7.53c.13.128.413.068.336-.197-.192-.012-.367-.007-.336.196zm-2.018 2.222c.55.19.785-.19.726-.533.033-.014.07-.02.106-.014.21-.34-.124-.415-.1-.665-.23-.04-.4.074-.47.23-.598-.064-.992.728-.263.982zm-1.145.132c-.097.163-.163.256-.068.456h.337c.12-.226.013-.445-.27-.456zm28.91-26.032c.408.252.64-.28.676-.656-.31-.156-.53.386-.675.655zm-24.687 38.922c-.25.322-.156 1.31.538 1.056-.074-.49-.05-1.1-.538-1.056zm33.347-14.084c.858 1.66 2.437 2.393 4.103 3.013-.595-1.997-2.48-2.335-4.103-3.013zm-79.352 11.295c.273.01.275.374.46.5 3.21-.276-1.018-3.55-.46-.5zm45.015-51.806c.375.01.507-.216.675-.41-.25-.163-.485.257-.675.41zm26.028 9.223c.16.02.202-.082.183-.236h-.244c-.027.122.04.154.06.235zm-76.172 9.483c-.974 1.647-2.297 2.965-2.158 5.172.042.66.815 1.105.264 1.842 1.083 1.226 2.73 1.725 3.398 3.483.763-.044.392-.922 1.004-1.075.49 1.13 2.093-.008 3.037-.41.387.226.417.913 1.077.792-.113-1.237.404-2.01 1.388-2.44l-.157-1.104c.182-.527 1.233-.415 1.628-.785-.085-.765-1.263-.124-1.132-1.16 1.174-.588 2.57.29 2.754 1.69 2.07-.557 4.217-.145 5.717-1.897.478.04.508.658 1.217.398-.8-1.7.587-2.303 1.69-3.045.592.692 2.033.293 2.322 1.375.028.732-.72.9-.736 1.602.008.015.02.027.027.042-.167.222-.223.523-.072.788.11-.11.264-.25.393-.408.23.215.477.406.595.763-.166.7-.686 1.144-.683 1.97.78.656.933 1.766.37 2.578.73.352 1.606 1.494 1.153 2.66 3.487 1.79-.62 3.508.276 5.972.235.65.837.79 1.753 1.452 1.47-.13 2.29-.736 2.875-1.515 1.343 1.058 3.88-.108 4.737 1.563-.205.22-.352.554-.494.894.335.183.573.027.712-.228.018.09.032.184.043.286 1.342.107.742-1.213 1.737-1.362.39.3 1.196.063 1.432.557.15.803-.48 1.032.05 1.684l.947-.128c.003-1.01.532-3.125 2.037-1.963.055.52-.602.877-.006 1.313.88-.225 1.082-.693 2.062-.466.285-.395-.038-1.235-.074-1.87.565-.076.574-.565 1.056-.704.453 0 .753.196 1.354.004.172-.496.448-.917.773-1.3.18.277.323.57.373.913.3.156.477.082.718.124.242.118.2.377.49.47-.082.334-.337.748-.225.984.54-.027.602.24 1.044.442.358-.176.046-.427.127-.697.91-.473.982.696.883 1.23.162.053.327.104.49.157.344-.296.032-.476.19-.885.176-.24.58-.04.815-.162.512.172.063.814.784.883.476-1.568 1.957-.362 2.894-.863.232.47.606.866 1.372 1.072.55-.265.883-.284 1.072-.604.63-1.066-.825-2.19.156-2.872a1.4 1.4 0 01.176.033l.063-.165c.098-.045.213-.09.345-.13a.946.946 0 01-.005-.327c.022-.01.043-.023.068-.032.09.024.106.116.202.133-.136 1.61.034 3.42 1.953 3.072.206.04.25.236.336.393.81-.084 1.042-.732 1.615-1.047.615.318.71 1.14.874 1.897-.43.158-.965.237-.943.784.014.314.277.64.807.586.227.087.086.528.54.393.03-1.277-.045-2.567-.54-3.726.242-.465 1.01-.416 1.01-1.112h.538c.132-.504.337-.938.874-1.046.44.23.178 1.136.808 1.178.347-.035.357-.396.54-.59.336-.086.632.714 1.076.524.127-.282-.35-.36-.135-.785-.074-.167-.24-.242-.388-.338.178-.05.268-.27.44-.333.398.26 1.005.863 1.4.653.42.528.93.976 1.508 1.326.733-.224 1.216.16 1.547.524.32-.3.806-.396 1.346-.197.113.087-.113.437.068.588.424-.04.65-.128 1.075-.196.12-.442-.39-.273-.334-.655.84-.624.942.424 1.615.523.242-.39-.154-.66-.268-.914.093-.302.438-.357.67-.524.303.084.462.485.877.262.038-.298-.165-.363-.204-.588.27-.403.43-1.072 1.145-.85.184-.19.316-.433.337-.784.492.2.776.297 1.48.197.303-.345.604-.8.54-1.243-.132-.892-2.3-.935-1.28-2.287-.212-.356-.5-.816-.202-1.307-.052-.298-.363-.345-.47-.59.004-.277.112-.457.067-.784-.62-.213-.76-.74-.74-1.438-.302-.076-.616-.14-.673-.457.37-.36.808-.65.875-1.307.266.002.276.254.336.458.344.06.667.14.874.328.116.225-.135.465.136.59.306-.03.114-.545.47-.525.342-.07.34.193.54.262.255-.195.634-.368 1.076-.197.194-.114.315-.303.404-.523.217-.014.285.117.54.066-.195-.446.47-1.957.873-1.175.063.323-.312.22-.27.522.59-.183 1.1-.008 1.078.588.405-.27.74.043 1.01.262.256-.342.847.042 1.01-.393.14.038.192.163.403.13.165-.166.283-.377.404-.587.282.118.337.457.74.458.01-.336-.354-.31-.336-.652.1-.34.385-.498.54-.786-.266-.263-.04-.586.134-.785.002-.24-.253-.233-.337-.39-.057-.273.13-.31.135-.524-.644-.31-.663-1.23-1.682-1.177-.24-.05-.254-.32-.47-.39-.228.04-.3.23-.54.26-.264.04-.172-.268-.336-.325-.26.138-.47.327-.54.652-.836.036-.883.84-1.48 1.11-.214-.072-.21-.358-.2-.652-.56-.11-.726-.604-1.144-.85-.42.322-.762-.1-1.076-.26-.47.216-1.274.594-1.817.325.175.366-.135.77-.54.785-.027.604-.264 1.006-.807 1.11-.01.25.354.137.404.327-.023.262-.28.297-.27.59.12.06.337.022.405.13.075.205-.106.158-.136.26-.34.027-.492-.13-.673-.26-.857.06-1.245.577-1.68 1.045-.29-.195-.592-.23-.876 0-.392-.01-.535-.26-.632-.557.145.01.274.06.428.14.037-.566.51-.707 1.013-.822-.014-.614-.78-.497-.93-.984.1-.094.3-.092.508-.082-.09-.287-.4-.448-.168-.82-.436-.014-.474-.416-.76-.576-.408-.04-1.02.118-1.183-.162.64-.62-.155-1.243.337-2.05-.027-.196-.4-.05-.338-.33.388-.103.686-.3 1.098-.165-.343-.37-.19-1.124.084-1.56.37-.058.477.14.844.082-.36-.702-.17-1.496.507-1.804.206.522.787.17 1.353.326-.088-.324-.204-.622-.254-.984-.41-.07-.434.235-.844.165a.379.379 0 00-.085-.246c-.045-.54.758-.25.93-.576-.355-.174-.884-.18-1.114-.476.06-.024.124-.052.197-.09.042-.11-.07-.272.05-.356a1.31 1.31 0 00-.196-.32c.347-.17.898.2 1.23.01-.17-.397-.047-.612-.168-.984-.502.42-1.37.48-2.026.748-.188-.327-.44-.65-.806-.822h-.012c-.008-.03-.02-.058-.028-.09a9.828 9.828 0 01-.533-.268c.197-.03.355-.278.56-.325.123-.176-.148-.383-.184-.592.066-.14.12-.29.21-.407.04.21.145.397.325.527.005.235.223.352.38.237a.4.4 0 00-.03-.08c.253.038.506-.087.784-.076.172-.244.19-.412.4-.51.043-.36-.06-.755.182-1.108.185.016.044.16.173.2.237.088.34-.232.558.02.11-.154.284-.147.435-.2.15-.386.45-.826.308-1.098.37-.11.92.21 1.213-.087.03.18.11.31.22.4-.054.073-.15.116-.304.116l.08.553c.417.173.712-.005.787-.237.092.102.298.16.682.094-.03-.41-.153-.587-.29-.632.122-.154.16-.373.022-.64l-.624-.26c-.076-.207-.025-.463-.096-.673.11-.153.516.063.568.193.26-.077.362-.42.77-.27.072-.026.106-.14.148-.235.53.276.676-.376 1.064-.445.107-.14-.003-.196 0-.296.113-.05.32.133.416.045.087-.15-.18-.166-.18-.285.058-.646.583-.165.798-.428a.436.436 0 00-.434-.098c-.353-.455.352-.436.593-.555-.194-.27-.38.054-.637-.137-.22-.38.262-.53.414-.842-.187-.057-.306.046-.462.064-.216-.153-.047-.34.094-.51-.17-.043-.278.066-.426.076-.148-.277-.433-.502-.566-.785-.17-.087-.248.04-.416-.045-.09-.083.07-.265-.02-.347-.272.08-.587.056-.872.102-.237-.065-.113-.272-.325-.347-.1.09-.06.117-.11.25a.8.8 0 00-.626.036c-.166-.044.012-.22-.195-.25-.123.096-.066.198-.105.338-.087.207-.33.032-.477.097-.048.11-.016.267-.14.32-.194-.043-.145-.18-.337-.224-.19.095.09.205-.03.368-.055.12-.204 0-.286.05-.04.25-.213.173-.283.348.036.064.13.107.137.183-.044.14-.15.13-.24.155-.156-.022-.172-.248-.264-.196-.005.194.05.365.09.54-.088.005-.172.026-.21.063v.12c.018.017.04.03.065.036-.054.014-.113.02-.165.038-.045.126.163.155.142.27-.05.232-.206.204-.325.266-.154-.01-.334.005-.5.006-.125-.234-.253-.464-.368-.708a.98.98 0 00-.124-.445c-.19-.017-.21.13-.254.253-.342-.18-.32-.81-.167-1.262.015.005.03.007.045.006.062-.044.045-.1.015-.16a1.1 1.1 0 01.11-.194c-.054-.026-.11-.052-.122-.118h-.002c.098-.12.284-.032.373-.175-.04-.104-.212-.156-.285-.245.066-.31.27-.28.404-.426-.04-.073-.08-.146-.224-.178.07-.273.323-.1.45-.235.013-.216-.313-.104-.44-.183-.073-.14-.047-.318-.048-.484.096-.184.3-.11.414-.25a.715.715 0 00-.223-.215.625.625 0 00.144-.11c.15.21.676-.06.97-.033-.07-.64-.43-.493-.812-.323a.789.789 0 00-.008-.264c-.317.085-.61.194-.715.484a.403.403 0 01-.175-.345c.078-.133.326-.15.283-.347-.087-.033-.165.01-.24.056a.441.441 0 00-.24-.256c.033-.06.042-.116-.01-.17a.412.412 0 00-.193.1c-.14-.032-.294-.053-.43-.092.045-.113.15-.24.135-.382-.203-.06-.26.135-.34.29-.114-.08-.194-.204-.202-.42-.303-.88.695-.81.548-1.574-2.167-.17-.664-3.767-2.72-4.14.312-.52 1.177-.82.547-1.576-.762.047-.89.556-1.654.6-1.097-.34-1.6-1.17-1.454-2.057-.665-.405-.485.866-1.222.918-1.244-.44-1.883-1.65-3.35-1.8-.22.288-.468.555-.74.797-.268-.133-.54-.265-.795-.412-.14.044-.183.178-.245.297-.72-.087-1.235.392-1.44 1.026-.31-.07-.598-.21-.845-.41-.138.76.616.373.7.845-.71.664-2.16.978-2.842.385-.112.646-.987.828-1.492.39-.426-.414.054-.745-.374-1.264-.955 0-1.526.61-2.29-.18.02-.07.037-.145.048-.225-.487.26-.952.543-1.325.916l-.34.215c-.298-.17-.882-.047-.637.433-.743.537-1.39 1.145-1.775 1.947.715.753-.21 1.71-.873 1.997-.454.004-.444-.59-1.026-.423-.12.01-.232.03-.342.047-.062-.127-.156-.236-.258-.274-.214.09-.23.23-.16.365-1.183.305-1.886.96-2.613 1.603a1.783 1.783 0 00-.234-.428c-.04-.055-.084-.103-.127-.15.262-.417.544-.854 1.027-1.175-.097-2.408-.655-3.34-2.203-4.583a8.443 8.443 0 00-1.853-.037c.04-.202.06-.427.074-.652-.5-.097-.647.323-.613.725-1.81.314-3.27 1.324-3.33 3.18-.056 1.77 1.37 3.532 3.297 3.946 0 .17.022.334.065.506a7.237 7.237 0 00-.157 1.762c-.17.05-.338.115-.497.197-.312.096-.124.358-.328.49a.247.247 0 00-.036.004c-.36-.525-.674-1.112-1.03-1.645 0-.28-.032-.543-.15-.76a.868.868 0 00-.19.293 4.023 4.023 0 00-.34-.374c-.033.523.062.882.206 1.18-.005.144-.006.293-.005.442-.446-.127-.93-.143-1.425-.135l.005-.008c.302-.625-.43-1.032-.413-1.7-.898.35.095 1.082.195 1.713-.21.004-.42.01-.63.012-.047.374-.225.483-.455.57-.137-.21-.246-.45-.45-.596-.655.382-.146 1.165-.14 1.83-.163.074-.357.065-.493-.074a.63.63 0 01-.09.184c-.137-.126-.27-.257-.41-.38-.007-.272-.167-.64-.317-.832.026-.054.036-.124.01-.23-.325.05-.404-.14-.618-.2.006-1.873-1.833-1.954-2.473-3.2-.334-.06-.48.066-.72.1-.267-.04-.31-.3-.616-.3-.03-.34.078-.812-.104-1.002-.505.192-.65-.042-1.134-.1-.285.276.092.418.103.7-.712.726-1.155-.36-1.233-.9h-.517c-.23.386.122.463.103.9-.09.283-.535.213-.72.402-.542-.01-.323-.754-1.03-.6.053 1.634-1.742.94-2.47 1.7-.373-.374-.856-.637-1.65-.6-.436.42-.747.536-.822.9-.29 1.376 2.03 1.997.31 3.2.33.59-.05 1.26-.413 1.5a1.034 1.034 0 010 1.402c.063.44.374.64.515 1-.055.31-.312.43-.41.7.06.373.47.408.513.8-.072.6-.87.49-1.132.9-.645-.316-1.43-.537-1.133-1.5-.398-.087-.367.243-.618.3-.932-.825-2.046-.45-3.19-.6.006.76-.67 1.33-1.34 1.1-.148-.543.528-.286.514-.7-.238-.17-.788-.032-.926-.3v-.6c-.56-.158-.893-.534-.927-1.2-.36-.016-.325.352-.515.5-.532-.146-1.474-.637-1.65 0-.338-.038-.205-.532-.616-.5-.222.985-1.062 1.37-1.545 2.1.35.354-.028.646 0 1 .095 1.188.9 1.795 1.545 2.6.605-.275.685.174 1.133.3.567-.348 1.677-.17 1.957-.8.243 0 .302.173.617.1.19.976 1.08 1.798 1.853 2.503.804-.016 1.494.08 2.162.2.88-.28 1.158-1.143 2.163-1.3.06-.604.25-.928.206-1.402.695.125.977.653 1.956.503.26-.214.598-.352.823-.602.23.513 1.05.448 1.546.703.14.462-.15.928.1 1.4.586 0 .61-.54 1.03-.7.576.108.508.84.824 1.2.434-.046.475-.474.825-.6.72.4.687 1.53 1.542 1.8.222 1.05-.95.745-.72 1.802.25-.19.61-.276.823 0-.066.47-.61.473-.617 1 .458.416.862-.165 1.133-.502.24.19.464.396.683.605-.867.478-2.182.625-2.446 1.546-.48-.4-1.14-.573-1.676-.9-1.843-.035-2.222 1.006-3.468 1.407-.046-.88-.48-1.43-.75-2.526-1.89-.04-2.632-1.558-4.323-1.856-1.198.385-2.443.736-3.93.906-1.237 1.49-2.66 3.224-2.752 5.066-.6-.054-.663.282-1.112.34-.68-1.09-2.675-.484-3.812-.988-.793.35-.823 1.192-2.01.836zm77.036-10.293l.018-.004c-.002.007-.006.012-.007.018a.045.045 0 00-.01-.013zm-3.058-2.387a3.468 3.468 0 00-.34-1.353c.22.05.442.068.663.004v-.02c.09.065.155.147.165.27-.04.27-.245.15-.362.23-.047.086.008.135-.007.21.176.1.283.04.417.045.124.08-.007.26.057.362.184.05.297-.068.484-.01.25.263-.248.604-.483.6.04.21.053.428.08.643a3.52 3.52 0 00-.334.114c-.007-.078-.003-.16-.017-.235a.743.743 0 00-.628-.19.819.819 0 01.01-.248.228.228 0 00.124-.02c.074-.107.06-.195.01-.255a.79.79 0 01.162-.15zm-3.544 5.025c.043-.225.09-.483.435-.465.12.027.213.12.245.237.013.268-.338.183-.315.46a5.768 5.768 0 01-.365-.232zm-.034 13.48c.005.002.01.005.014.005.238-.125.332-.39.76-.328.006 0 .01.002.016.004-.07.203-.124.42-.327.497a.664.664 0 01-.463-.176zm-1.26.218c.098-.187.175-.385.23-.59.078.026.154.055.226.085-.005.308-.098.528-.415.53-.014-.006-.026-.017-.04-.024zm-4.265-20.096a.848.848 0 00-.46.436.477.477 0 01-.353-.138c.163-.164.33-.326.576-.428.066.06.147.1.236.13zm-.47 30.057c.298-.028.49.048.67.132.173.89-.72.343-.67-.13zm-.405.523c.404-.002.768.633.336.85-.378.004-.512-.52-.335-.85zm-.175-29.73c.046-.233.408-.155.592-.248 0 .162.23.104.17.327-.256.224-.506-.056-.762-.08zm-1.693 3.563c-.003-.153.012-.29.088-.365.263.01.45.294.396.528-.162-.05-.323-.104-.483-.162zm-.314-4.584c.308-.176.343-.55 1.008-.466.03.13.046.245.054.35-.115.214-.264.41-.49.56-.182-.047-.336-.183-.49-.315.003-.002.006-.002.007-.005-.003-.063-.04-.1-.087-.123zm-.277.54c0-.008.003-.015.003-.022v.007c0 .007 0 .012-.002.018l-.002-.004zm-.427 2.13a.119.119 0 01.078-.122l.015.03v.328l-.01.005c-.06-.057-.11-.126-.084-.24zm-.363 1.382c.175.01.314.058.398.158-.133-.053-.266-.104-.398-.158zm-.078-.95l.01-.016c.02-.004.038-.004.056-.005l-.067.022zm-.504.73c.07-.05.165-.074.263-.1.018.07.044.14.07.226-.113-.042-.222-.085-.334-.125zm-.948 29.274c.32-.11.37.377.067.327-.056-.077-.088-.176-.067-.327zm-1.766-10.094c.012-.135.036-.263.075-.384.174.007.354 0 .55-.03v.234c-.207.063-.423.108-.625.18zm-3.598-26.506c-.072.12-.213.175-.422.163-.082-.203-.157-.412-.28-.577.388.01.802-.05 1.19-.166l.095.12c.007.232.12.477.394.702h.203a1.764 1.764 0 01-.092.513c-.084.042-.167.09-.246.143-.086.19-.21.368-.316.55-.135.086-.28.156-.43.21-.174-.037-.372-.014-.572.025-.057-.213.048-.518.134-.683l.023-.01c.146.042.204.17.406.16.313-.217.387-1.052-.086-1.15zm-6.103.37c.303-.27.5-.622.655-1.004.14.087.28.184.406.315.523-.662 1.093-1.413.527-2.143a.963.963 0 00-.204-.194c.114-.22.25-.42.42-.596.657.39 2.347-.545 2.734.194-.144.72-.623 1.193-.253 2.288.143.116.314.197.5.256-.273-.04-.526-.1-.877-.06-.154-.206-.037-.676-.42-.657.136.516-.416.364-.424.738.54.654 1.867.232 2.36.875-.227.035-.45.14-.55.27.03.14.08.24.144.308-.524-.04-.972-.5-1.278-.796-.105.342-1.427.57-1.1-.082-.655-.1-.998.202-1.436.082.006.46.35.592.338 1.067.14-.004.256.016.36.05-.046.148-.06.307-.138.444a.581.581 0 00-.476-.084c.01.032.015.065.014.098-.366-.157-.678-.466-1.027-.672-.03-.215-.11-.44-.274-.697zm-3.192 6.62h.084l.026-.033a.91.91 0 01.21.11c-.002.015-.008.032-.008.05-.105-.04-.207-.086-.312-.127zm-5.894-9.884c.054.095.11.19.176.29.687.006 1.12.538 1.7.42l.032-.01c-.138.11-.285.214-.44.313-.02-.03-.04-.054-.055-.084-.49-.045-.95-.167-1.47-.125-.023-.25.005-.53.057-.804zm-2.354 1.148c.032.053.06.11.086.166a.432.432 0 01-.086-.166zm-5.26.69a1.05 1.05 0 00-.108-.063c-.008-.034-.008-.06-.01-.086a.944.944 0 01.12.147zm-1.755 10.94c.035-.204.054-.41.064-.615.15-.133.27-.284.342-.412.35-.066.13.144.317.405.164-.25.58-.466 1.017-.52-.124.286-.253.533-.095.843.56.016.673-.407.927-.69.012.01.027.017.04.026a.53.53 0 01.117-.163.648.648 0 01.152-.073c.056.01.11.025.165.037-.24.69-.45 1.402-.99 1.87a3.11 3.11 0 01-.515-.406.408.408 0 00-.254.082c-.27-.247-.53-.505-1.004-.492-.06.093-.11.192-.147.296-.053-.057-.1-.12-.14-.187zm43.816.7c-.222.002-.496-.045-.505.165.174-.05.586.133.506-.164zm-35.6-13.78a3.774 3.774 0 00-.543-.914c.03-.056.063-.112.05-.21-.25-.217-.76-.075-.72.3.102.096.288.108.493.103.03.366.353.82.72.72zm38.388 15.422c.03-.19-.012-.317-.083-.41-.395.026-.85-.005-1.014.246.352.068.627.212 1.098.164zm.424 3.282c.108.004.116.107.253.08.05-.17.21-.232.17-.49-.35-.065-.435.126-.423.41zm1.013-.657c.063-.313-.547-.178-.422.082.195.026.323-.013.422-.083zm-1.767 26.257c-.347.144-.473.5-.606.85.34.094.563-.442.606-.85zm-7.94-3.595c.023.315-.173.548.067.72.354-.354.515-1.243.336-1.896-.35.18.106 1.148-.402 1.176zm3.7 9.087c.376-.117.035-.564.135-.983-.308.042-.206.664-.134.982zm3.634-4.446c.008.117-.082.138-.067.26.086.09.292.066.47.066.034-.27-.17-.313-.403-.326zm-2.38-4.212c.153.172.44.485.75.344l.128-.38c-.346-.2-.698-.42-.88.036zm2.313-.69c-.095.8.927.437.47-.066-.178 0-.384-.026-.47.065zm4.426-9.423c.876.257 1.17 1.26 2.622.77-.21-.94-2.16-1.555-2.62-.77zm3.178 8.44c-.1.096-.1.43 0 .524.338.045.443-.137.403-.46-.08-.074-.236-.072-.402-.063zm-1.95 3.27h.2c.03-.138-.046-.174-.067-.263-.118.017-.153.113-.133.262zm-.473-9.936c-.01.14.24.03.337.065.01-.293-.237-.17-.337-.066zM214.48 82.062h.268c.074-.886.682-1.255.875-2.025-.604.166-1.253 1.164-1.144 2.025zm7.508-5.288l-.13.38c.275.108.53.183.587-.13-.086-.114-.22-.207-.457-.25zm-5.176.553c.244.155.26-.125.455-.065.07-.167-.05-.24.033-.41-.46-.197-.692.216-.488.475zm2.847-5.004c-.01.162-.01.316.067.393.103-.002.148-.484-.068-.393zm-5.853 2.745c.51-.18.81-.56 1.008-1.045-.46-.064-1.022.648-1.008 1.045zm10.504 5.083c.11-.05.147-.24.293-.22.6-1.562-1.964-.225-.292.22zm2.078-9.722c.242-.578-.874-.925-1.01-1.57-.185-.027-.062.244-.202.263.274.564.716.96 1.212 1.308zm-2.827-1.764c-.19.94.493 1.56.675 2.353.11.018.116-.062.2-.065-.132-.916-.387-1.716-.874-2.288zm1.213 9.87c.11.02.116-.063.202-.067.028-.087.05-.2.06-.32.147.57.533 1.004 1.257.76-.207-.966-.424-1.926-1.1-2.29-.132.197-.213.523-.224.875-.053-.136-.138-.236-.26-.267-.1.31-.156 1.094.065 1.308zm-.673-6.995c.097-.09.097-.37 0-.46-.268-.018-.365.127-.337.394.08.055.182.085.337.065z" fill="#FFF"/><path d="M149.814 34.358c.36 1.582 1.476 1.83 2.14 2.87 1.15-1.034 2.41-2.215 1.657-3.733-.818-1.658-3.26-.906-3.796.863zm9.438-19.377c-.852.273-1.005.94-.854 1.778 1.02-.174 1.105-.88.854-1.777zm-60.25 15.583c.29.462.728.664 1.447.37-.14-.715-1.014-1.005-1.448-.37zm15.052 62.064c1.234-1.21 2.343-2.49 2.45-4.34-1.174 1.246-2.714 2.282-2.45 4.34zm35.198-76.986c-.34.61-1.004 1.683-.526 2.266.872-.304 1.22-1.555.526-2.265zm-47.396 33.58c.372.227.868.237 1.525-.04.462-1.422-2.23-1.712-1.524.04zm9.43 7.008l-.146-.535c-.2.085-.33.05-.407-.08-.765.436-.043 1.25.554.615zm49.317 26.164c-.574-1.38.93-1.585.784-2.722-.767-.084-2.203 2.505-.784 2.722zm-44.152-6.8c-.718-.54-2.207.775-2.022 1.718 1.484-.116 1.35-1.146 2.023-1.718zm35.17 13.918c.716-.036.41-.976.06-1.173-.45.146-.19.696-.06 1.173zm32.64-23.705l.198.714c.522-.106.98-.246.745-.784-.25-.09-.544-.1-.942.07zm-48.09 18.56c-.455.594-.268 1.557-.07 2.522 1.448-.11.72-2.094.07-2.52zm40.817-57.363c-.52.106-.98.246-.742.783.49.03 1.02-.032.742-.783zm14.22 41.688c.113-.186-.03-.52.208-.635-.71-3.008-3.168 1.62-.208.635zm4.206-23.7c.408.114 1.16.31 1.477-.217l-.198-.715c-.725.037-1.477.048-1.28.932zm-53.82-19.52c-1.117-2.38-4.073-2.114-6.35-.738-.885 1.734-1.01 2.804-.143 5.046 1.215.237 1.802 1.35 2.864 1.323 3.16-.074 4.68-3.397 3.63-5.63zm5.84-1.814c-.94.213-.114 1.24.217 1.48.367-.262.185-1.233-.218-1.48zm-37.26 18.822c.173.76 1.03.31 1.11 1.233.322.835-1.046.712-.724 1.548.61.055.934-.448 1.527-.036.04 1.703 1.32 1.213 1.763 2.205-.294.436-1.183.536-1.457.98.77.757 2.175-.105 2.675-.742.645-.003.182.308.426.845.637-.682 2.55-.966 3.46 0 .063-.1.16-.184.267-.26.003.3-.077.593-.23.85.034.274.547.07.46.464-.53.146-.94.424-1.503.233.47.523.258 1.586-.115 2.202-.506.08-.653-.197-1.158-.116.495.993.234 2.112-.694 2.55-.283-.738-1.08-.242-1.85-.463.12.46.278.88.347 1.39.564.1.594-.33 1.158-.23a.533.533 0 00.114.346c.062.758-1.04.35-1.272.81.716.366 1.956.204 1.62 1.623-.442.523-1.336-.185-1.852.118.235.562.067.867.232 1.392.746-.645 2.09-.685 3.007-1.16.488.284.79.753.925 1.39.86.416 1.666.883 2.262 1.56-.39.247-.657.565-.96.86a1.383 1.383 0 00-.145.014c-.006.047-.005.085-.007.13-.12.11-.25.208-.387.297.14.248.313.32.505.316.122.248.294.447.35.763-.413.456-1.046 1.243-.693 2.086.402.093.445-.173.81-.116.282.324.183.653-.116.928-.335-.58-1.754-.645-1.852.23.56.404 1.485-.334 1.967 0-.1.363-.448.48-.81.58.35 1.494-.755.41-1.85.58-.012-.358.363-.33.23-.81-.43-.26-1.164.024-1.388.347.033-.304-.04-.5-.346-.464-.294.013-.594.02-.577.347.458.346 1.03 1.596 1.62 1.043-.012.434-.13.33 0 .695.62-.003.96.275.924.93-1.157.378-2.25-.797-3.354-.465v.35c.178.363.887.19 1.388.23.46.494.14 1.08.463 1.623.468.043.18-.67.696-.58.286.18.605.93 1.154.463-.108-.12-.425-.034-.347-.346 1.076-.698 2.045-1.507 3.354-1.97.2.15.455.24.463.58-.066.24-.286.33-.23.694.55.206 1.144.376 1.732.547-.004.117-.01.234-.015.35.33.057.675.033 1.012-.045.378.127.745.262 1.087.422-.235.153-.16.614-.463.697h-1.158c-.027.45.248.6.348.926 1.808.23 1.386-1.778 2.313-2.434.227.26.102.872 0 1.16.568.32 1.157.616 2.082.58 1.643-.614 1.11-2.69 2.43-3.594.356.094.633.444.94.672.103.712.103 1.464.104 2.037-.58.314-.76-.076-1.3.167-.44.404-.493 1.028-.724 1.55.6 1.07 1.688 1.274 2.606 1.778.474-1.132.574-2.74.39-4.352.214-.068.166-.344.374-.615-.14-.03-.31.106-.416.274a13.468 13.468 0 00-.534-2.338c.3-.363.737-.588.85-1.137.207.152.463.287.784.396.327.295.26.678.31 1.034.553-.24 1.13.27 1.716.057.142.718.34 1.392.762 1.85.313-.563.21-1.36-.005-2.22a.856.856 0 01.356.184c.804.622-.347 1.95-.342 3.02a.468.468 0 00-.247.203c-.002-.003-.003-.005-.007-.006a.606.606 0 00.034-.546c-.268-.148-.687-.028-1.12.118.01.025.01.047.017.068-.76.305-1.24 1.587-.12 1.89.258.212-.033.548-.033.817.085.054.17.11.257.162 1.18-1.335 2.37-3.663 2.526-5.357.223-.097.46-.134.698-.153-.206.702.16 1.75.334 2.534.292-.182.67-.28 1.007-.416-.04.356-.078.713-.17 1.08-.276.106-.562.15-.722-.086-.053.285.05.412.1.588-.113-.065-.223-.123-.315-.084-.16.242-.147.443-.03.622-.618.354-1.192.75-2.183.73-.172.743-.425 1.282-.117 1.97.658-.21 1.032-.098 1.62-.463.43.108.53.55 1.04.58.27-.194.28-.648.81-.58-.29.673-1.155.773-1.272 1.623.715-.044 1.264.222 1.736.695-.15-1.232 1.583-.577 1.735-1.507-.337-.267-.567-.642-.836-.98.126-.183.228-.36.197-.508-.21-.025-.415-.02-.59.1-.052-.04-.1-.082-.157-.118.008-1.258.685-1.843 1.63-2.162.106.38.288.72.504.89-.018.043-.035.08-.052.11-.22-.05-.29-.248-.578-.23-.43.304-.533 1.485.116 1.623.098-.17.29-.248.578-.23.13.333.243.682.463.927.76-.07 1.182.197 1.953.117-.168.222-.273.467-.255.652.194.208.28-.063.45.042.006-.01.01-.018.017-.027.056.157.156.27.38.26-.188-.73.566-.515.578-1.042a1.07 1.07 0 00-.18-.182c.06-.062.123-.123.185-.186-.17-.097-.357-.09-.542-.02-1.052-.436-2.728.025-2.932-1.466 1.01-.608 1.903.28 2.475.856-.066-.04-.133-.084-.2-.125-.15.156-.084.265-.13.397.16.072.283-.02.38-.22.007.005.013.012.02.02.14-.485 1.95-.805 1.503.114.606.097 1.015-.063 1.403-.13.77.302.847 1.206 1.173 1.843.317 0 .606-.127.92-.14.172.365.636.59.836.767.084.325-.566.816-.336 1.106.602.272.968-.11 1.307.586.53-.277.33-.74.057-1.045.378-.192.822-.1 1.265-.017-.06.2-.158.365 0 .54.097.03.163.024.212-.002.014.473-.16.986.34 1.346.408.004.254-.453.603-.578.433.185.362.746.888.68.344-.448-.158-1.01.444-1.28.362.12.2.503.386.594.062 8.016.103 15.846.05 18.595-.055 2.934 1.416 2.578 1.153-.297-.13-1.395-.363-9.586-.477-18.24.437.055.764-.16 1.177-.425.456.205-.007.712.325 1.03.857.1.33-1.314.895-1.532.645.07.684-.438 1.202-.04 0-.115.012-.22.03-.314.437.328.923.643 1.383.78.165-.056.34-.14.507-.247.146.263.395.48.72.542.168.03.34-.334.74-.062.3-.813-.01-1.397-.453-1.623a1.44 1.44 0 00.08-.96c-.575-.457-.765-1.003-.94-1.55.13-.247.278-.484.445-.707.204.01.377-.018.346-.264a.163.163 0 00-.072-.068 3.89 3.89 0 01.422-.398c.133-.473-.14-.852.133-1.355.21-.373.554-.156.776-.47.102-.176.067-.32-.005-.454a.463.463 0 00.067-.066c.262-.24-.228-.24-.16-.562.233-.164.666-.11.93-.238a6.874 6.874 0 01-.086-.23c.632-.024 1.314.17 1.846-.293-.65-.14-1.31-.307-1.933-.334a1.14 1.14 0 01.236-.524c-.144-.368-.483-.522-.233-1.027a.741.741 0 01-.246-.132c.127-.132.26-.245.372-.44-.18-.447-.45-.877-.736-1.3.446-.33.95-.406 1.473-.393.247.31.843.528 1.232.69-.126-.458-.46-.727-.886-.912.216-.368.426-.774.758-.637.32.272-.21.737-.057 1.045.1.054.19.11.27.17l.037 3.012c-.01-.003-.02-.006-.027-.01-.246.275-.16.477-.207.708.08.016.162.032.244.05l.008.74v.01c.018 1.447.036 2.98.052 4.498-.164-.164-.294-.3-.534-.17-.17.302.225.568.538.554.03 2.746.053 5.404.06 7.348-.103.1-.123.166-.183.39.056.053.118.122.184.193 0 .813 0 1.467-.01 1.896-.025 1.645.785 1.444.634-.168-.03-.434-.054-.868-.068-1.302.156.03.303-.056.416-.37-.125-.226-.26-.423-.45-.568-.13-4.047-.21-8.095-.24-12.144a.435.435 0 00.106-.052c.053-.165-.04-.197-.107-.253v-.505c.222.055.444.11.665.16.06.1.166.163.282.174a.718.718 0 00.05-.11c.604.106 1.186.114 1.7-.178-.815-.348-1.755-.432-2.7-.74 0-.51 0-1.006.003-1.484.297.032.495-.38.806-.287.31.2.23.487.384.722.57.122 1.27.062 1.564.746.33-.05.632-.23.945-.363.304.16.65.504.91.456.035-.876 1.075-1.598 1.85-1.234.056.06.03.14.116.196-.178.833-.998.19-.99.814.397.324.864-.32 1.104.336-.29.556-.817.064-1.107.62.358.533 1.073.622 1.532.607.383.377.353.852.37 1.312.29.2.407-.368.667-.3.01.015.02.024.03.037-.186.317-.025.737.35.865.433-.004.327-.314.48-.48.118 0 .232-.012.33-.03.31.15-.103.464.352.58.306-.16.55-.593.948-.362.465.19-.055.6.47.777.352-.376-.005-.588.227-.936.844-.044 1.444-1.17 2.202-1.605.017-.467-.29-.924.358-1.334-.402-.937.212-2.107-1.086-2.84-.28-.232-.12-.563-.19-.84-.38-.27-.628.036-.955-.004-.25-.187-.07-.474-.16-.7-1.002.105-2.115-.27-2.96.53a1.466 1.466 0 00-.317-.077.693.693 0 00.215-.177c.014-.216-.093-.434-.363-.66-.458.075-.435.6-.202.8a1.395 1.395 0 01-.578-.19c.436-.983-.162-1.73-.293-2.582-.843-.18-.88-.775-1.1-1.293a6.724 6.724 0 01-1.103-.186c.033-.247-.053-.5.138-.742.258.03.503.396.76.416.155-.507-.54-.928-.93-1.004-.148-.28.093-.15.272-.378-.44-.125-1-.9-.784-1.52-.193-.013-.38-.227-.572-.214-.138-.264-.01-.518-.23-.785-.325-.042-.26.162-.597.43-.334-.207-.1-.393-.3-.594a.555.555 0 01-.183.09 1 1 0 00-.486-.17.826.826 0 01-.21-.6c-.405-.007-.09.377-.343.57-.43.127-.128-.393-.502-.408-.653.807-1.515-.23-1.958.574-.035-.298-.247-.69-.53-.962.006-.167.03-.332.07-.49.097.167.302.305.446.094-.08-.175-.19-.39-.37-.347.09-.26.217-.487.357-.653a1.967 1.967 0 01-.693-2.505c-.01-.024-.022-.042-.032-.064.247.145.408-.1.623-.1.036-.155.01-.297.044-.452-.31-.233-.72.015-.768.36-.166-.268-.376-.458-.593-.64a3.992 3.992 0 01-.05-.374.632.632 0 00.11-.08c-.04-.03-.08-.063-.12-.098 0-.05 0-.1.003-.152a.404.404 0 00-.276-.125c-.09-.1-.18-.204-.274-.3.098-.326.287-.6.313-.964-.02-.04-.04-.08-.066-.12.636-.526 1.095-1.19 1.074-1.825.413-.15.8.467 1.212.37-.045.557-.123 1.116-.192 1.674-.428.68-1.113.42-1.327.984.433.497.903.002 1.345.245.426.663.445 1.31-.07 1.938.436.38.89.362 1.335.502.187.438.62.887.08 1.297.408.06.823-.096 1.23-.02.79.99 2.15.948 3.17 1.546.24-.164.01-.347.147-.514.284-.087.56.005.827.354.425-.093.27-.42.48-.693.315.155.654-.243.964.1.56-.604 1.103-.732 1.648-.908.43.606.886.502 1.328.762.272-.42-.492-.523-.416-.987-.27-.275-.555-.115-.83-.225.38-.785 1.665-.776 2.25-1.47.71-.84.186-2.187-.463-3.188-.275-.06-.557.016-.828-.224-.222-.735.827-1.288 1.445-1.61.075.058.144.122.212.19.044.107.05.214.19.324.027.01.053.016.08.022.135.207.248.448.34.727.636-.144.39-.785.646-1.142.996.006 2.868.43 2.857-.794.604-.095.62.85 1.317.598-.103-1.867 1.162-2.96 1.638-4.5-.78-.462-.27-1.166-.495-1.786-.75-2.076-2.445-2.773-3.962-3.906-.91.783-1.27.022-2.11.01-.81.896-2.82 1.112-2.995 2.37-.42.12-.61-.16-1.12.118-.535-1.088-1.567-1.912-2.69-2.6a1.886 1.886 0 00-.068-.105c-.036-.002-.063.003-.09.008a27.901 27.901 0 00-.44-.256.693.693 0 00-.126-.348c-.027 0-.053.007-.078.01.054-.096.116-.19.185-.276l-.31-.336c-.347.078-.267.3-.444.527-.13-.07-.26-.137-.387-.204-.114.035-.226.065-.34.097a.32.32 0 00-.07-.012c-.322-.358.308-.68-.22-1.045-1.06 1.052-1.68-.548-2.626-.55.025-.474-.09-.952-.592-1.446-.545-.025-.812-.152-1.1.023-1.062.648-.167 2.453-1.797 2.22.04-.108.066-.227.078-.364.462-.075.74-.35.95-.7-.07-.228-.508-.12-.44-.48.057-.326.33-.414.4-.722-.09-.3-.467-.337-.524-.67.132-1.39-1.16-1.473-1.56-2.375-.3-.008-.362.247-.743.152-.216-.124-.19-.473-.53-.485-.29.227-.758.517-1.115.138-.413.193-.654.573-1.135.69-.485.004-.427-.493-.9-.5-.023.552.45.65.6 1.042-.303.152-.607.303-.852.52-.056.287.117.365.16.56-.62.196-.114 1.03-.61 1.36.292.384.712.86.31 1.4.84.003 1.057.715.763 1.51.426.078.302-.444.754-.338.59.33.206.724-.364.966.05-.032.1-.06.152-.086-.182-.314-.384-.086-.573-.217-.01-1.12-.932-1.612-1.524-2.45-.502.48-1.29.39-1.542-.188.273-.436.51.165.778-.1-.03-.26-.453-.535-.358-.79l.402-.374a1.338 1.338 0 01-.115-.325c.132-.273.21-.57.23-.873.04-.053.083-.103.13-.15a.305.305 0 00-.13-.092 3.162 3.162 0 00-.123-.723c-.25-.058-.462.07-.617.286-.178-.392-.405-.76-.77-.568-.178-.244.232-.466-.037-.714-.792.47-1.555.16-2.335.3-.025.448-.448.384-.67.622-.736.8-.656 1.7-.808 2.624.55.223.298.553.483.924.01.003.022.008.033.01a.488.488 0 00-.043.103c.126.023.253.05.375.06.446.287.884.766 1.348.602.148.156.07.305.306.464-.538.73-.55 1.82-.555 2.762.496.515.847 1.023 1.17 1.53.117.067.235.11.353.143-.667.067-1.266.868-.4 1.347.135-.03.31-.11.476-.224.08-.042.15-.1.21-.17.22-.214.375-.49.293-.784a.69.69 0 00-.146-.095c.465.045.932.03 1.386.384.11-.087.215-.154.314-.215.126.152.324.24.268.56-.657.03-1.2.18-1.382.686a7.2 7.2 0 00.637-.098.267.267 0 00-.027.087c.157.376.51.048.82.218.255.298.347.745.41 1.22.28.094.638.12.624.49-.563.028-.944.256-1.275.54-.082 0-.162 0-.24-.006-.12-.137-.335-.24-.463-.113a1.898 1.898 0 01-.16-.37h.02c-.014-.318.077-.74-.188-.806-.075-.43-.175-.856-.51-1.217-.945.26-.816 1.127-1.317 1.637a1.415 1.415 0 01-.346-.6c-.38-.066-.623.013-.917.038-.28-.383-.52-.834-.88-1.077-.3.118-.45.32-.565.545-.526.058-.996-.254-1.38-.498-.25.17-.467.266-.66.31-.012-.005-.023-.01-.036-.01-.02-.02-.038-.04-.06-.058-.424-.474-.845-.952-1.413-1.173-.224-.39-.462-.758-.806-.904-.01-1.045 1.342-1.315.58-2.784-.34.46-.92.787-1.427.396-.117-.87.825-1.14.577-2.085-1-.526-1.412.71-1.717 1.44-1.2-.538-2.32-1.216-3.417-1.94a2.36 2.36 0 01-.185-.587.39.39 0 00.217-.078c.023-.225.034-.443-.068-.556a1.168 1.168 0 00-.167-.018c.072-.64.33-1.175-.153-2.13-.45 1.103-.324 2.532-.714 3.667-1.998-.105-4.23.206-4.995-2.08-1.34-.38-2.49-1.092-4.37-.516-.583.07-.338.61-.744.783-.702-.007-1.902-.525-1.565-1.49-1.267-1.132-3.116-1.23-4.844-1.542-.355 1.126-1.12.752-1.994 1.13-.175.64.383.76.168 1.302-.276.595-1.124.766-1.478.218-.372.806-1.783 1.077-2.676.743-.114-.465.712-.4.288-1.043-.874 1.66-2.93 1.063-4.124.376-1.243.703-1.332 2.06-2.26 2.94-.675.236-1.018-.997-1.45-.37.482.757.363 1.71-.474 2.444-.696.254-1.012-.164-1.707.087-.26.94.626.877 1.11 1.236-1.677 1.13 1.08 3.843-.775 4.835zm66.41 3.793c.026-.726 1.233-1.147 1.694-1.826a.576.576 0 01.096.078l.297 1.07c.295.002.587.054.864.155-.45.295-.863.645-1.228 1.04-.585.116-1.134-.782-1.726-.517zm-1.326-.706l.13-.022a2.319 2.319 0 01-.084-.475c.275-.25.647-.553.712-.888-.16-.28-.33-.245-.502-.238.225-.46.608-.808 1.084-.946-.104.3-.176.674-.376.868.06.088.125.105.19.07.462-.144.47-.61.656-1 .032 0 .064-.004.097-.002.524.9-.775.767-.545 1.5.34.128.868-.07 1.283-.075-.886.518-1.813 2.13-2.646 1.207zm-6.695 21.17c0-.14.003-.275.005-.41.022.13.02.267-.005.41zM155 78.097a.34.34 0 01.095-.13c.118.138.203.304.304.454-.173-.025-.37-.173-.4-.324zm-13.528-9.662c.06 0 .12.008.183.02l.002.008a2.292 2.292 0 01-.185-.028zm-1.665.954c.075-.202.097-.38.087-.548.185.193.37.395.518.627-.003.004-.005.01-.007.015-.173.077-.385.06-.598-.096zm-4.264-2.01c.03-.1.107-.145.2-.152.03.153.058.307.084.464-.14-.095-.258-.212-.284-.31zm-9.963 2.356c1.14.072 2.118-.017 2.493-.71.137-.002.274-.006.41-.012.344.202.394.696.683.954.185 1.465-1.225 2.887-2.545 1.74-.024-.375.206-.49.117-.93-.133-.257-.492-.29-.777-.397.095-.124.168-.252.21-.38-.18.036-.354.09-.523.16-.066-.1-.096-.23-.067-.424zm-.373-27.357c.018-.037.036-.072.055-.106a.335.335 0 01-.03.107h-.025zm-3.21 24.11c.2-.297.658-.41.905-.203.034.184.087.365.156.54-.006.04-.01.08-.022.128-.618.117-.844-.16-1.04-.464zm.114-2.202c.197.242.524.35.738.575-.01.167-.02.333-.02.5-.204.14-.426.264-.832.2-.346-.354-.258-1.034.115-1.275zm-.858-33.166c.42-.426.083-1.876-.236-2.245-.523.006-.26.455-.615.557.614.563.406 1.112.852 1.688zm22.55-21.284c.094-.25.104-.545-.068-.945-.43.058-.677.22-.843.428.15.45.453.622.913.518zm-10.853 18.42c-.164-.865-.47-1.476-.772-2.095-.585.472-.14 2.174.77 2.095zm9.747-7.136c-.48.392-.463 1.66-.22 1.986.347-.47.96-1.38.22-1.986zm-7.655-13.087c-.778.4-.07 1.568.365 2.017.86-.314.087-1.75-.365-2.017zm-25.71 38.338c.313-.172 1.14-.055.792-.605-.466.006-1.018-.108-.793.605zm-.532-10.25c.17.054.342.106.587.03.2-.943 1.52-1.248 1.695-2.206-1.27.436-2.187 1.074-2.282 2.175zm3.88-8.204c.2-.44-.078-.226-.196-.716a.397.397 0 00.197.716zm3.5-1.936c.088-.634-.126-.61-.346-1.254-.82.004-.36 1.675.347 1.254zm-1.974 5.363c.835-.813-.544-2.94-1.506-2.663-1.4.4-1.058 3.83 1.506 2.663zm69.124 2.043c-.178-.306-.52.04-.526.24.167.163.347-.077.526-.24zm7.42 15.68c.81.233 1.612.674 2.45.09-.807-.266-1.617-.463-2.45-.09zm-12.563-18.01c-.474.567-.903-.047-1.365.275.134.355 1.59.398 1.365-.274zm8.24 21.407c-.385-.625-.806-.332-1.208-.5-.074.44.837.795 1.207.5zm-14.937 2.287l.268-.247c-.144-.196-.296-.135-.454.048l.186.2zM150.796 36.57c-.097-.22-.244-.44-.51-.147.164.204.33.373.51.148zm3.172-12.305c-.043-.204-.128-.58-.43-.598l-.267.247c.182.31.357.64.698.35zm14.785 29.416c-.16-.236-.334-.244-.514-.018.16.238.333.245.513.02zm5.34 2.272l-.25-.268c-.164.102-.133.21-.204.315.142.196.296.135.453-.048zm3.64 2.854c.082.068.095.133.056.197.363.236.554-.265.142-.382l-.2.186zm-4.195-26.04c-.087.024-.174.05-.258-.012-.312.183-.086.385-.215.575.37.3.847-.188.473-.565zm-3.694-6.547c-.12-.23-.258-.012-.382-.144-.128.102-.065.213-.206.316.27.354.632.12.588-.173zm-4.574-5.48c-.107-.006-.22.13-.324.054-1.153.993 1.424 1.023.324-.053zm.314 3.702l.267-.25c-.164-.203-.33-.373-.51-.147.017.13.08.26.244.397zM142.7 75.184v-.348c-.204-.008-.36.027-.464.117-.118.35.257.204.463.23zm6.012 2.087c-.246.262-.082.765.23.81.16-.147.116-.5.117-.81h-.348zm.578 1.972c-.442.724-.128 1.392-.115 2.085.785-.347 1.55.26 2.428.463-.16-1.46-1.556-1.684-2.313-2.548zM108 52.812c.033.24.31.232.463.35.222-.358.576-.583.578-1.16-.525.09-.837.396-1.04.81zm7.98 25.386c.543-.15 1.04-.35 1.04-1.043-.552-.28-1.2.232-1.04 1.043zm4.627-7.186c-.133.137-.13.41-.115.695.652.195.907.793 1.504 1.043.365-.02.688-.08.693-.464-.13-.297-.62-.228-1.04-.23-.223-.397-.36-.876-.81-1.044h-.233zm-7.055-6.492c.08.09.645.258.694 0-.15-.162-.612-.417-.694 0zm10.062 14.143c.066-.244.288-.33.23-.696-.638.302-.7.12-1.155-.232-.148.277-.423.427-.348.93.202.14.768-.092 1.272-.002zm-.81 4.984c-.078.387.195.422.463.46.31-.366-.068-.746-.462-.46zm5.9-4.405c-.056.442.032.74.23.926.42-.004.508-.34.463-.81-.137-.134-.408-.133-.693-.116zm-3.47-3.478v-.58c-.377-.03-.558.14-.58.465.135.096.31.15.58.114zM112.51 58.03c.544-.036 1.165.006 1.39-.35-.48-.095-.86-.298-1.504-.23-.037.268.018.445.115.58zm8.907 22.835c-.198.548-.018.893 0 1.506 1.13.184 2.21.63 3.354.464.022-.907-.572-1.202-.693-1.97-1.204-.35-1.568-.676-2.66 0zm-9.136-15.3c.34-.01.43-.266.578-.466-.282.066-.594.1-.577.464zm3.932-5.796c.307-.004.682.062.694-.234-.24.07-.804-.187-.694.233zm-.81-9.043c.437-.183.866-.37.81-1.043-.51-.305-.94.33-.81 1.043zm-.924 14.256c.087.655-.097 1.45.81 1.508.256-.737.073-1.577-.81-1.507zm16.885 6.376c.02.326.203.493.58.462.03-.377-.14-.558-.464-.58-.008.072-.02.14-.117.117zM111.585 54.9c.426.218.726-.547.926-.928-.558-.353-.878.395-.925.927zm18.738 21.328c.16-.47-.252-.366-.233-.695.354.084.342-.2.694-.116.275.237-.16.46.117.695.676-.325.692.18 1.156.348.32-.208.677-.507.463-.927-.354-.086-.34.2-.695.116.058-.562-.413-.59-.924-.58-.443-1.32-1.25-.172-2.08 0 .057.828.745 1.027 1.503 1.158zm-24.866-25.733c.097.56.24 1.073.462 1.506.307 0 .68.066.693-.23-.292.12-.513-.392-.23-.463.68.204.67 1.106 1.156 1.506.297-.158.025-.71 0-.927.49-.01.626-.377.693-.813-1.366.313-1.655-1.027-2.776-.578zm5.782 2.897c.478.094.592-.178.578-.58-.148-.006-.16-.147-.347-.114-.067.24-.286.33-.23.694zm-.232.233c-.27-.037-.444.018-.578.115-.087.442.748.25.578-.115zm13.3 23.762c.467-.035.832-.172.81-.696-.468.036-.832.173-.81.697zm15.266 0c-.09.078-.3.69.117.58.188.02.235-.76-.116-.58zm-1.503.347c.42-.004.51-.34.463-.81-.53-.36-.957.47-.462.81zm3.933 3.015c-.047.685-.458 1.007-.808 1.39.23.27.244.758.808.694.73-.345.65-1.683 0-2.085zm18.813 7.126c-.152.182-.193.34-.183.483.194.21.28-.062.45.043.06-.21.072-.408-.267-.527zM147.14 27.393c-.074-.06-.186-.085-.343-.04-.01.246-.057.526.066.65l.275.012c.122-.138.158-.4.058-.557a.425.425 0 00.304.128c.33-.47.13-.816-.255-1.12-.275.163-.303.65-.105.927zm11.732 3.41c-.307.707-.076 1.293.132 1.88.245-.412.544-1.434-.132-1.88zm13.293 54.046c.055.275.22.415.546.462l.216-.343c-.094-.32-.593-.464-.76-.12zm-21.387-59.63c-.567-.628-1.294.53-.485.772.217-.058.527-.553.485-.772zm5.593-.907c-.237.56.34.514.78.85.473-.43-.503-.822-.78-.85zm20.318 31.12a.772.772 0 01.142-.155c.013-.194-.26-.397-.43-.6a.68.68 0 00-.143.173c-.043-.035-.087-.073-.136-.103-.054.08-.146 0-.225-.022-.06.04-.118.083-.173.13a.17.17 0 01.03-.07c-.23-.22-.46-.384-.708-.09-.006.148.19.39.366.49-.07.093-.128.193-.178.298a.864.864 0 00-.318.244c.048.014.118.033.202.054-.207.723.024 1.54.802 1.955.86-.346 1.126-1.476.77-2.3zm-27.876-21.747l.34.216c.29-.235-.227-.7-.34-.216zm-.37-2.27c-.14-.19-.152-.406-.492-.55-.954.392.05 1.658.49.55zm2.994-3.625c.395-.09.72-.49 1.074-.76-.484-.42-1.036.254-1.074.76zm-.7 10.825c-.17-.164-.33-.445-.6-.378-.568.56.335 1.096.6.378zm21.673 36.322l.27-.43c-.118-.17-.224-.34-.407-.497-.7.072-.593 1.16.136.927zm17.925-10.265c-.722-.49-1.294-.314-1.982-.65.016.784 1.55 1.122 1.982.65zm-.805-20.043c-.08-.312-.516-.37-.676-.068.07.266.55.525.676.067zm-7.447 4.05c.035-.155.01-.296.044-.45-.315-.203-.614-.334-.815-.036-.23.444.53.685.77.486zm-16.51 37.524c.156.034.297.008.45.043.258-.326.254-.596-.103-.783-.3.077-.427.528-.347.74zM176 31.9c-.282 1.06 1.178.877 1.575.156-.393-.67-1.125-.283-1.575-.157zm-1.787 39.02l-.215.344c.348.24.696.48.965.37.066-.47-.32-.382-.75-.713zm5.9-13.774c-.285-.315-.588-.003-.526.267.244.208.39-.01.527-.267zm6.46 17.137c-.757.71.574 1.383.857.54-.202-.362-.484-.25-.858-.54zm-19.964-7.636c-.345-.095-.344.4-.208.544.345.097.344-.397.207-.543zM152.8 79.087c.33-.12.564-.35.587-.806-.297.132-.752.483-.588.808zm-14.177-2.73c-.37-.12-.468.263-.296.448.285.054.302-.184.295-.45zm11.722 6.23c-.275.495.05.95.508 1.04.197-.174.463-.27.49-.63-.16-.315-.57-.603-.998-.41zm11.63-60.868c-.51.025-.6.79-.134.918.494.008.47-.78.133-.92zm23.817 14.51c.078-.34-.127-.414-.444-.388 0 .128-.052.2-.104.273.188.17.264.22.548.115zm-26.896 44.782c.316.078.343-.31.204-.453-.317-.08-.344.307-.204.452zm6.285-2.504l-.012.277c.105.11.32.118.55.116.1-.388-.205-.404-.537-.392zm1.65-1.962c.174.137.58.326.826.127.06-.412-.787-.566-.826-.127zm-31.75 2.892c.313 1.017 1.46.52 1.395-.31-.07-.953-1.782-.94-1.396.31zm-2.023-6.65c.558.043 1.593-.682 1.53-1.318-.69.243-1.247.63-1.53 1.32zm1.143 7.814c-.008.154-.014.308-.02.462.277.142.413.058.65-.066-.002-.387-.305-.55-.63-.396zm12.338-3.907c-.034.327.113.486.44.48-.026-.224.178-.193.113-.457-.007-.008-.016-.013-.023-.02.22-.12.425-.44.6-.586-.463-.012-.656.25-.86.5-.105-.002-.21.023-.27.083zm11.4-51.176c.383-.333.248-1.297-.503-1.13-.232.475-.024 1.082.504 1.13zm2.808 53.168c.292.057.374.306.726.308-.108-.255-.143-.577-.434-.665l-.183-.007c-.035.123-.14.17-.11.365zm-1.074 1.432c.453.076.295-.513.844-.333-.043-.297.184-.277.02-.46-.502-.008-1.025.387-.864.793zm2.418 6.018c-.215.243-.09.738.052.928.44.08.477-.64.315-.91l-.368-.018zm-1.06 1.065c.17.185.56.12.47-.258-.26-.03-.5-.033-.47.258z" fill="#FFF200"/><path d="M89.088 10.835l.402-.374c-.248-.31-.496-.565-.77-.225.025.196.118.395.368.6zM69.644 50.76c-.5-.473-1.444-.277-1.675.427.516.017 1.45.09 1.674-.426zm18.97-45.513c-.16-.01-.33.197-.49.08-1.74 1.498 2.152 1.544.49-.08zm-17.07 5.318c-.065-.308-.193-.875-.65-.904l-.403.375c.273.47.537.964 1.054.53zm-7.43 34.22c.47.473.962.346 1.465-.04-.466-.616-.96-.432-1.466.04zm36.984-21.377c-.132.04-.263.08-.39-.014-.472.276-.13.582-.324.868.556.453 1.28-.284.714-.854zm-34.35 5.74c-.147-.334-.37-.664-.77-.223.248.308.498.565.77.224zM95.31 70.986c-.02-.132-.045-.263-.18-.398-.69.19-1.342-.58-2.033-.37.722.693 1.456 1.082 2.214.768zm.21-57.462c-.182-.347-.39-.018-.577-.217-.193.155-.098.32-.31.477.408.534.954.182.888-.26zm12.6 7.315c-.715.854-1.364-.074-2.063.412.205.537 2.404.603 2.062-.412zm19.857 27.6c-1.22-.404-2.444-.703-3.7-.14 1.223.352 2.432 1.018 3.7.14zm-26.754 18.37c.162.308.277.713.67.32-.22-.15-.427-.737-.67-.32zm5.105 4.3c.022-.326-.14-.658-.548-.998-1.096.18-.368 2.063.548.998zm9.56-46.75c-.27-.462-.786.062-.796.36.25.25.525-.113.795-.36zm4.668 28.814c-.58-.945-1.216-.502-1.824-.752-.11.66 1.266 1.197 1.824.752zM94.744 78.294c-.422.336-.315 1.015.252 1.085.205-.352.188-.71-.252-1.086zM51.85 52.1c.75.455 1.523.84 2.446.653-.763-.42-1.47-1.046-2.447-.652zm33.83 34.04c-.004.216-.004.613.296.7l.326-.187c-.11-.355-.213-.724-.623-.513zM57.494 62.243c.238.7 1.12.087 1.248-.29-.35-.147-.8.068-1.248.29zM71.61 40.517c-.064.214-.007.46.215.748.757.046.555-1.32-.216-.748zm-2.235 5.553l.245-.14c-.07-.09-.066-.158-.012-.213-.314-.32-.62.14-.233.353zm-6.53 27.688c.604-.46.896.255 1.437.037-.057-.388-1.513-.765-1.438-.037zm-4.65-3.52c.11.348.533.076.586-.122-.13-.203-.367-.004-.585.122zm33.48 4.24c.048.244.146.497.48.265-.12-.244-.247-.454-.48-.266zm-17.65 8.827c-.11.063-.218.126-.325.19.118.243.246.45.48.266.012-.133-.02-.28-.155-.455zm-.527 3.798c.106.03.252-.08.34.022 1.385-.737-1.203-1.357-.34-.022zm-14.075-36.78c.245.716.735.52 1.102.777.174-.424-.664-.99-1.102-.778zM70.14 80.54c.07.258.258.072.353.233.152-.074.115-.2.28-.27-.192-.42-.61-.267-.632.038zm-2.228-7.433c.094-.006.186-.013.257.068.355-.112.174-.367.346-.528-.302-.388-.894-.005-.604.46zm-2.634-12.654c.038-.152-.075-.344-.203-.54-.14.097-.23 0-.373.11-.06.3.29.638.576.43zm8.688-16.612c.124.133.174.557.398.315-.06-.23-.077-.516-.398-.314zm-7.854 21.255c.382.38.87.36 1.437.04-.412-.267-.882-.32-1.438-.04zm4.586-14.665c.18.274.375.492.69.254.05-.19-.188-.605-.377-.654-.3.08-.176.275-.312.4zm2.125-.47c.19-.064.183-.18.278-.27-.1-.23-.267-.204-.467-.057l.19.328zm-2.82-.544c-.036.105-.133.194-.278.27-.058.193.17.46.296.7.452-.227.48-.895-.016-.97zm51.23-7.385c.363-1.2-2.27-2.552-2.622-.148.2.983 2.376.974 2.624.15zm-12.68 38.678c-.348.82.12 1.21.886 1.446.2-.743-.21-1.164-.887-1.446zm5.427-23.385c-.068-.644-1.505-1.114-1.87-.416.7.284 1.283.347 1.87.416zm12.28-26.095c-.47-.003-.82.218-.94.877.578.23 1.194-.267.94-.877zm-24.243-3.05c.152.05.303.095.455.143.032-.185.118-.26.248-.257.04-.757-.882-.613-.703.115zm15.204 19.79c.242-.38-.205-.4-.114-.704-.693.182-.99-.225-1.614-.17.11.504 1.314.934 1.73.875zm-57.053 3.766c1.265.227.71 1.413 1.598 1.836.42-.517-.782-2.764-1.598-1.836zM60.1 68.6c-.24.38.207.4.116.704.267.105.378-.087.655.038.302-.718-.366-1.064-.77-.743zm-4.3 11.698c.08.168.386.22.36.447 2.5.886.306-3.05-.36-.447zm5.316-3.69l-.607-.19c-.167.427-.28.824.216.904.183-.137.328-.347.39-.714zm7.22-44.727c-.595 1.1 1.177 1.5 1.787 1.225-.217-.606-1-.918-1.786-1.224zm54.29 14.264c.38-.597-1.04-1.04-1.066-.332.417.36.5.192 1.066.332zm-.224-3.58a.34.34 0 00-.608-.19c.224.35.2.047.608.19zm-8.816 17.645c-.84-1.448-1.553-2.04-3.576-2.454-.736.77-1.81.678-2.288 1.46a3.404 3.404 0 00-.14 3.378l-.16.15c.126.102.145.2.087.296.157.102.292.11.392.07.536.73 1.33 1.245 2.193 1.36 2.236.3 3.422-1.967 3.49-4.26zm-37.13-43.184c-.354-1.43-.385-3.03-1.993-3.798.3 1.46.705 2.86 1.992 3.798zm35.01 7.58c-.337.164-.575.52-.682 1.125.81.997 2.276-.818.682-1.125zm2.153 49.993c-.282-.53-.746-1.51-1.388-1.438-.19.774.55 1.61 1.387 1.437zm-6.106-5.585c.02.39.804.71 1.17.532.283-.78-.84-.66-1.17-.532zm10.65-32.678c.426-.1.863-.445 1.3-.8a.701.701 0 00-.352-.312.266.266 0 00.027-.218c-.17-.024-.313.03-.405.22-.324.1-.64.422-.816.736a1.72 1.72 0 00-.238-.222c-.117.098-.235.198-.293.41.585.585.192 1.683.8 2.257.197-.8.236-1.514-.026-2.07zm7.563 31.506c.075-.752-1.1-.78-1.625-.674-.176.767 1.222.875 1.625.673zm-4.584 5.09c-.39-.102-.658.038-.797.42.136.183.346.328.713.39.157-.34.157-.593.083-.81zM70.05 81.497c-.273.243-.766.696-.532 1.17.202.066.406.13.608.192.31-.544.654-1.094-.077-1.363zm22.235 7.01c-.25.34-.453.753.22.903.164-.427.277-.825-.22-.904zm17.82-56.3c.215-.34.553-.688-.065-.858-.022.308-.492.854.066.857zm1.284 34.004c.176.47.547 1.338 1.33 1.085-.062-.53-.985-1.11-1.33-1.084zM60.033 42.5c.104-.395-.416-.46-.82-.59-.306.536.515.753.82.59zm56.826-2.5c.144-.598 1.195-.272.942-.876-.77-.005-1.403-.534-1.543-1.484.14-.62.588-.655.732-1.277-.556-.624-.924.047-1.408.23-.035-1.743-3.278-1.008-3.13-2.816-.627-.226-.7.603-1.405.233-.754-.156-.028-1.09-.78-1.247-.323.416-.112.886-.684 1.123-1.122-.687-1.434.178-2.156.255a.4.4 0 01-.252-.052l-.016.008c-.142-.42.17-1.078-.018-1.473-.905.207-.937 1.627-.71 2.286-.03.047-.063.09-.1.132a1.99 1.99 0 01-.608-.436c.173-.086.348-.2.523-.344a1.368 1.368 0 00-.748-.22c.14-.355.004-.61.05-.928-.362-.068-.22.483-.556.56-.08.188-.007.318.042.458a2.051 2.051 0 00-.235.103c-.48-.22-.818-.88-1.36-1.053-.31-.1-.622-.04-.916.116-.072-.64-.112-1.28.125-1.907-.246-.384-.504-.41-.757-.615-.204-.3.02-.585-.26-.887.27-.296.723-.584.87-.884a.795.795 0 01.063.277c.32-.073.304-.795 0-.966-.138.193-.153.34-.13.47-.526-.3-.456-.65-.815-1.147-.54-.022-.34.483-.615.76-1.383-.02-.687-1.478-.215-2.062-.157-.167-.313-.337-.47-.505-.598.134-.354.553-.814.945-.365.177-.703-.327-1.06-.333-.487-.54.467-1.024-.332-1.575-1.603 1.587-2.536-.832-3.966-.834.038-.716-.136-1.438-.896-2.184-.82-.036-1.222-.23-1.657.034-1.656 1.008-.17 3.872-2.954 3.31-.244.724-.98 1.026-1.553 1.036 0-.25.016-.49.03-.682-.297-.257-.88-.437-.71-1.004-.428-.328-1.016-.296-1.358-.828-.307.133-.61.256-.774.062.048-.726.883-1.108.585-1.987a.987.987 0 00.26-.244c.06.513.448.854.515 1.363.724-.27.468-1.96-.298-2.266-.05.095-.09.182-.12.268-.14-.012-.313.058-.36-.157-.067-.26.108-.413.06-.664-.164-.195-.455-.098-.605-.325-.353-1.073-1.335-.712-1.922-1.25-.226.094-.188.303-.5.356-.202-.02-.296-.288-.552-.184-.14.26-.39.627-.777.464-.244.277-.298.636-.615.88-.356.16-.475-.225-.828-.077.164.414.544.33.784.573-.177.212-.353.42-.462.66.05.233.204.234.3.363-.395.347.25.798-.01 1.204.34.19.805.404.682.934.622-.272 1.013.183 1.055.868.34-.083.08-.427.446-.496.99.093-.343 1.405-.895 1.39.05.282.215.3.287.528-.18.168-.318.353-.374.574-.36-1.166-1.436-1.858-2.175-2.906-.758.722-1.95.59-2.33-.283.413-.657.77.25 1.175-.152-.047-.393-.685-.808-.54-1.194l.606-.564c-.35-.697-.274-1.378.37-2.038-.312-.37-.65.01-.975-.036-.15-.293-.303-.727-.497-1.083.023-.005.046-.005.07-.014.175-.37-.238-1.038-.74-.67 0 .024.004.048.006.072a.586.586 0 00-.34.073c-.27-.368.35-.703-.056-1.077-1.196.706-2.348.24-3.526.454-.04.675-.678.577-1.012.938-1.112 1.206-.993 2.57-1.22 3.96.828.337.45.837.726 1.397.87.23 1.698 1.488 2.59 1.174.223.238.1.46.46.704-.81 1.1-.832 2.748-.84 4.17.356.37.686.762.99 1.174-.014.003-.03.004-.046.008-.497.116-.856.614-1.1 1.07.176.767.393 1.02.802 1.445-.362.17-.57.403-.696.674.522.644-.123 1.086-.442 1.532-.254.055-.404-.128-.704.035-.07.52.418.52.628.795-.082.31-.003.69-.284.91-.317-.013-.76-.31-1.078.102.375.653 1.527.325 1.202 1.45-.38.216-.407-.38-.827-.077.098.467.097.738.224 1.193.232.123.515-.256.652-.175.428.474.52 1.017.332 1.47.516.193 1.12.532 1.175 1.38a6.397 6.397 0 002.076 1.03c.072.167.122.386.225.485-.045.18.013.385-.29.493-.37.266-.483-.424-.853-.16.05.308.34.404.213.75-.83.237-.426.806-.857 1.15-.252-.087-.415-.512-.67-.592-.14.25-.044.526.134.757-.014.013-.028.02-.04.033l.14.09c.152.157.33.283.475.346.084.317-.127.128-.36.318.338.185.655.817.57 1.356a7.6 7.6 0 00-.597.12c.03.09-.052.13.01.234.157-.023.314-.032.472-.027-.004.008-.007.017-.013.026.09.027.168.1.246.17-.253.12-.5.39-.516.617.35.417.66 0 .81-.356.03.257-.106.47.04.76.317.115.298-.106.698-.297.27.266.047.4.143.62a7.449 7.449 0 01-.383.253 9.864 9.864 0 00-2.194.515c-.02-.018-.04-.033-.058-.05a.237.237 0 00-.14.12c-.195.07-.39.144-.58.22a1.068 1.068 0 01-.297-.405c-.448-.004-.364.36-.638.59-.285-.23-.715.094-.95-.324-.7.48-1.276.485-1.866.54-.294-.71-.778-.71-1.163-1.072-.37.36.377.637.195 1.088.208.338.532.242.784.417-.562.703-1.853.4-2.6.963-.906.686-.685 2.16-.26 3.316.265.125.566.114.784.417a.692.692 0 01-.07.357c.068-.178.027-.358-.13-.545-.196.024-.393.118-.598.368.18.26.368.37.558.41-.382.386-1.135.58-1.622.708-.228-.245-.06-.385-.248-.62-.255-.164-.568-.11-.854-.158-.45.432-.41.996-.54 1.514 1.026.147 2.57-.382 3.604-1.11.614.018.962 1.048 1.618.914-.213.807-1.817.9-2.305 1.666 1.096.288 2.95-2.283 3.61-.35-.283.24-1.02.486-1.21.92.16.523.545.197.75.546-.023.226-.16.423-.27.627-.356.184-.67.722-.686.986.405.288.806-.144 1.04-.563.472-.157.855-.856 1.403-.93-.125-.136-.296-.102-.4-.314-.11-.213.18-.32.395-.446.354.9-.18 1.563-.15 2.377-.278.27-.386-.1-.664.17.187.233.07.385.12.583-1.53.882-.754 2.38-1.476 3.475.107.293.276.348.412.524.09.23-.1.388.04.63-.265.184-.698.32-.77.556.388.31.264.535.44.947.354.095.298-.272.523-.415.918.224.235 1.09-.167 1.407l.236.41c.42 0 .32-.317.686-.508.27-.062.42.324.657.383.242.432-.467.612-.018 1.1 1.31-.815 1.566.938 2.52 1.155-.134.473-.128.98.267 1.593.54.15.78.338 1.11.227 1.256-.422.697-2.556 2.468-1.76.327-.542 1.05-.558 1.412-.383a.994.994 0 011.14-.663c.33-.258.35-.6.58-.884.28-.102.493.045.76-.004.275-.225.115-.568.415-.787.52-.225.795.46 1.25.473.04.66.22 1.388-.702 1.608.113.358.367.176.528.35-.14.654.073 1.167.358 1.674-1.66.992-1.608 2.807-2.358 4.425 1.158.347 1.712 1.618 1.058 2.502-.896-.038-.193-.917-.828-1.093-.368.273-.414 1.152-.884 1.23l-.91-.285c-.5.75-1.223 1.066-2.253.8-.192.526.384.647.524 1-.468.718-1.647 1.878-.758 2.44-.213.483-.904.054-1.044.676 1.394.796 1.592 2.22 2.483 3.282.697-.35.967.347 1.522.475 1.846.424 3.138-.48 4.663-1.053-.14-1.026.575-.932.977-1.535-.27-1.005.51-2.562-.318-3.274.108-.36.4-.368.437-.867 1.57.182 3.228-.747 4.654-1.557.348-1.2.812-2.174 1.3-3.106-.023-1.433-1.207-2.256-.983-3.818-.89-.373-1.295-.804-2.03-.966l.008-.025c.512-.948 1.428-1.126 1.647-2.635-.205-.488-.26-1.054-.534-1.506a.968.968 0 00.383-.13c-.085.304-.074.597.093.774.743.79 2.89-.61 1.24-1.91a.642.642 0 00-.45.025c.156-.265.317-.52.51-.713.77.01 1.345.66 2.176.51.015-.05.027-.1.035-.148.1.366-.332.846.146.907.334-.578 1.004-.825 1.775-.522.406.374.238.726.642 1.1.706-.148.363-.713.433-1.157.65.357 1.185-.13 1.717-.61.274.538.698.934 1.41 1.013 1.397.16 2.02-1.484 1.434-2.704.196.106.393.192.6-.044-.173-.42-.616-.464-.546-.997.257-.14.41-.286.505-.433.095.1.22.187.398.245.74-.42.297-1.14-.083-1.69l.03-.045c.39.044.758.6 1.146.63.153-.494-.227-.932-.674-1.214a23.759 23.759 0 012.334-1.17c1.324.197 1.18 1.165 2.596 1.312-.587-.84-1.675-1.414-2.313-2.226 1.008-1.398 1.824-3.16 3.827-2.65.9-.794 1.948-1.3 2.41-2.928.222-.456-.284-.53-.22-.904.333-.506 1.267-1.134 1.806-.44.982-.274 1.732-.988 2.447-1.77a.49.49 0 00.224.13c.085-.132.1-.24.08-.334a.446.446 0 00-.097-.025c.238-.266.474-.535.715-.794-.65-.783-.02-1.164.112-1.972-.38-.426-.726-.076-1.016-.486-.3-.476-.028-1.17.532-1.173-.408-.644.053-1.795.71-2.285.39.134-.043.702.618.694-.79-1.407.598-2.62 1.65-3.165.07-1.227-.867-1.923-1.07-3.007zM69.08 61.19a.439.439 0 00-.224-.198c.015-.308.628-.698.862-.39-.033.243-.298.425-.64.588zm12.126-33.786a.401.401 0 01-.15-.06 2.792 2.792 0 00-.088-.67c.187.232.247.49.238.73zm2.057 2.365c-.378.19-.585.456-.736.746-.362-.144-.72-.397-1.09-.323-.227-.788-.61-1.612.034-2.218.074.044.136.117.162.27.165.36-.458.376-.367.704.24.226.395-.13.68-.106.283.137.496.438.696.768.24-.024.513-.118.623.157zm-6.61 14.17c-.19.052-.372.046-.542-.073a.566.566 0 01.29-.14.4.4 0 01.252.212zm21.99 11.603c0 .003-.004.006-.007.01 0-.004.003-.008.003-.01h.003zm-25.453-6.32c.04.17.114.26.204.32.293-.083.41-.244.28-.51-.13-.063-.43.053-.484.19zm5.396-34.345c.368-.154.094-.728-.2-.722-.367.183-.185.78.2.722zm-11 46.612a1.94 1.94 0 00-.098.075.936.936 0 01.248-.25c-.04-.1-.102-.134-.175-.117-.647.056-.643.828-1.196 1.132a.574.574 0 00.32.143c-.226.285-.482.556-.896.758l.11.28c.955-.244 1.755-1.328 1.688-2.02zm-2.374-30.11c.028.07.053.14.08.21.167-.043.256-.12.225-.248-.102.015-.17-.048-.305.04zM69 23.264c.072.184.127.407.257.458l.207-.08c.077-.238-.138-.654-.465-.377zm3.627 20.82c-.173-.537 1.036-.466 1.085-.905-.765.087-1.643.62-1.875 1.132.28.178.45-.12.79-.228zM100.69 17.12c-.053-.275-.23-.263-.455-.142.04.095.027.166.012.235.193.066.265.077.442-.092zm-10.37 4.532c-.158.217-.517.347-.365.703.437-.096.24-.47.365-.703zM65.63 37.377c-.416.213-.894.665-.658.977.318-.282.645-.56.657-.977zm4.357-.903c.06-.126-.048-.327-.12-.512-.716-.262-.69.942.12.512zm-2.566-8.036c.14.064.494-.074.555-.216-.058-.173-.12-.338-.232-.39-.358.093-.507.277-.322.606zm-3.165 9.715c.073.184.128.408.26.46.137-.036.12-.138.248-.178-.107-.236-.233-.43-.508-.282zm-2.744 5.873c.367-.058 1.068-.21.987-.545-.404.277-1.014.11-.986.546zm3.985 7.162c.03.09-.052.13.01.236.315.14 1.124-.245 1.413-.473-.254-.36-1.078-.04-1.423.238zm51.413-.86c.072-.31-.418-.387-.645-.372-.116.312.464.434.645.372zm-17.87-24.02c-.07-.62.006-1.292-.627-1.703.046.63.14 1.238.627 1.703zm14.262 5.108c-.15.05-.27.186-.348.434.285.462 1-.218.348-.434zm-3.857.967c.06-.315-.336-.306-.3.01l.183.084c.023-.076.063-.104.117-.094z" fill="#EC008C"/><path d="M48.332 84.26c.375.258.413-.192.714-.09.116-.265-.07-.385.064-.66-.71-.332-1.084.328-.778.75zm8.087-.712l-.214.605c.422.185.818.315.917-.185-.13-.19-.335-.342-.704-.42zm-25.03-.015c.277-1.268 1.446-.662 1.907-1.543-.503-.44-2.81.682-1.907 1.543zm-8.024-18.726c1.576-.065.334-1.846.662-2.837-.167-.088-.282-.063-.356.043-.78.79.077 1.786-.306 2.794zm36.555 24.25c.174-.074.237-.38.463-.345.987-2.49-3.052-.43-.462.346zm-46.2-56.692c-.332-.23-.668-.585-.863.032.31.036.84.53.864-.032zm12.366 36.31c.91.066 1.524-.497 1.908-1.542-.828.11-1.495.56-1.908 1.543zm1.755-47.34c.377-.407.213-.496.377-1.062-.585-.407-1.086 1.01-.376 1.062zm-7.57 3.112c-1.12-.323-2.087-.33-2.7.407.093.124.19.247.4.314.61-.57 1.7-.13 2.3-.72zm-6.055-7.44c.256-.577-.222-1.218-.845-.984-.02.472.188.834.845.983zm56.298 35.36c-.422-.183-.82-.313-.916.188.332.264.74.486.916-.187zM14.95 45.26c.334-.797-.366-1.693-1.093-1.242.07.177.04.4-.063.662.138.31.728.406 1.157.58zm9.61-22.172a.384.384 0 00.028-.44c-.015-.523-.202-1.007-.558-1.13-1.193-.414-2.654 2.19-.253 2.64.44-.07.7-.542.783-1.07zm-3.082 61.02c.526.33.776-.49.626-.802-.394-.122-.48.4-.626.802zm53.19-9.78c.233.282.67.798 1.157.58l.216-.606c-.533-.335-1.074-.702-1.37.025zM50.144 17.99c-.754-.104-.83 1.078-.742 1.614.766.207.93-1.2.743-1.614zM37.248 77.078c.06-.057.12-.115.188-.153-.207.283-.387.588-.62.85.965.328 1.148 1.473 1.75 2.356 1.028-1.405-.01-2.72.02-4.083-.31.086-.588.252-.813.48-.01-.272-.28-.422-.248-.716-.818-.166-1.166.988-.277 1.268zM6.138 30.693c.15.347.5.602 1.102.733 1.033-.78-.734-2.33-1.103-.733zm-2.725 26c-.242-.74-1.952-.55-2.288.212 1.11.66 1.525-.14 2.288-.21zm5.945-16.322l.16-.453c-.185-.038-.258-.13-.25-.26-.76-.07-.65.867.09.714zm6.52 4.196c.535.155 1.028.223 1.176-.436-.14-.3-.91-.576-1.21-.43-.3.44.072.553.034.866zm2.302-3.62c-.382-.19-.572.032-.67.444l.607.215c.176-.294.038-.438.063-.66zM11.76 74.51c1.082.644 1.55-1.128 1.3-1.757-.617.196-.96.973-1.3 1.756zM.16 66.44c1.476-.245 2.9-.597 3.893-1.86-1.45.3-3.06.267-3.894 1.86zm18.506-2.793c.254.458 1.078.507 1.22-.078-.117-.24-.475-.363-.855-.476-.075.28-.296.254-.364.553zm48.934-37.7c-.132-.082-.222-.244-.28-.466-.244-.138-.678.09-1.046.186.172.688 1.07.934 1.327.28zm-1.148 1.184c-.018-.437-.32-.33-.447-.553-.428.162-.784.358-.56.864.24.128.88-.07 1.007-.312zm12.74 3.778c-.268-.154-.62-.152-1.08.06-.3 1.02 1.62 1.17 1.08-.06zm-7.236 15.365c-.132.316.06.158.155.503a.28.28 0 00-.153-.503zm9.663-2.17c-.218-.323-.533-.457-1.037-.23.114.503.742.69 1.036.23zm-8.656-2.147c.893-.336 1.53-.81 1.574-1.592a.6.6 0 00-.417-.01c-.122.674-1.052.918-1.156 1.602zM54.066 6.672c.31-.43.157-1.11-.005-1.793-1.025.108-.465 1.503.006 1.792zm12.42 22.798c-.17.05-.335.104-.503.155.03.28.19.308.282.465.342-.065.358-.302.22-.62zm7.458 3.62c-.22.13-.812.066-.55.45.33-.014.724.054.55-.45zm-4.28-21.87c-1.053.113-.935.843-1.402 1.265.522.368 1.553-.6 1.4-1.264zm2.68 14.912c.037.126.076.25.116.377.14-.066.233-.042.29.047.535-.326.005-.888-.407-.425zm-4.39-22.667c.807-.91 1.88-1.678 1.65-3.136-.852.886-1.613 1.818-1.65 3.135zm-20.952 14.24c.49-.48.71-1.103.5-1.952-.632.405-.758 1.076-.5 1.95zm7.835-2.295c-.393-.177-.96.195-.765.65.194.1.49.005.794-.107-.085-.222.073-.314-.03-.543zm-39.543 3.577c-.076.134.032.368-.135.455.57 2.122 2.217-1.218.134-.455zM12.81 35.915c-.29-.07-.83-.196-1.043.186.05.17.103.337.154.505.516-.042 1.05-.066.89-.69zM42.98 3.347c-.51.04-.272.703-.02.835.317-.113.12-.5.02-.835zm-6.925 12.37c-.02.13-.04.26-.174.33.042.522.447.353.612.64a.532.532 0 00-.437-.97zm-10.798.728c-.373.015-.177.33-.426.41.055.23.237.217.282.464.63-.13.553-.75.145-.875zm-4.966 4.442c-.05-.168-.102-.335-.156-.502-.367.086-.69.195-.51.572.177.06.387.06.667-.07zm16.457-12.29c.437.97-.628 1.146-.5 1.95.548.044 1.513-1.827.5-1.95zm34.015 35.327c-.48.622.505 2.02 1.163 1.808.885-.28.722-2.26-.614-2.032-.046-.287-.236-.566-.487-.845-.276.34-.246.76-.06 1.07zm6.443 2.933c-.44-.42-.866-.574-1.27-.235.113.44.886.655 1.27.235zm-2.115 2.718l.607.556c.283-.334.808-.68.345-.985-.316.176-.64.142-.952.43zm-.295-.084c-.204-.247-.402-.34-.597-.363-.428.317.453.82.597.364zm.75 1.622c-.22-.76-1.407-.515-1.55.066.536.43 1.047.245 1.55-.066zM25.24 18.474c-1.44-.824-.624-2.224-1.96-2.734-.364.567-.652 1.13-.8 1.687.268.245.542.604.79.356-.353-.13-.136-.754.168-.59.432.725-.298 1.503-.194 2.243.388.1.59-.6.74-.81.44.387.85.176 1.255-.152zm1.74 4.4c-.122-.126-.02-.26-.21-.38-.25.157-.514.057-.756.42.343.466.66.322.967-.04zm53.307 25.7c-.48.33.18 1.308.615.75.267-.296-.352-.766-.615-.75zm-37.68-36.878c-.16-.526-.325-.545-.817-.938-.454.278-.013.52-.354.793.408.46.802.636 1.17.146zm-1.61.944c.085-.36.215-.723-.142-1.063-.155.17-.31.337-.463.506l.606.557zm-17.223 7.844c.113-.032.228-.052.342-.07-.135.184-.09.5.28.55.358-.212.055-.198.214-.606a.585.585 0 00-.056-.028c.25-.065.478-.202.652-.396-.532-.342-1.05-.326-1.56-.126-.16.234.087.45.128.676zm1.852 2.447c-.204-.246-.402-.34-.598-.362-.43.316.454.82.598.363zm-.515 1.58c.2.532 1.072.104 1.55-.068-.206-.758-1.08-.36-1.55.067zm42.122 29.585c-.507-.548-1.167-.274-1.346.253.46.214.923.418 1.346-.253zm22.568-.878c-.23-.66-1.166-.755-1.658-.22.565.343 1.12.486 1.658.22zm-16.733 1.21c-.463-.274-.936-.715-1.372-.33.15.68.964.797 1.372.33zm-43.87 17.65c-.017.423-.393.86.15 1.26.915.283 1.914-.952 1.67-1.825-.59.56-1.208.512-1.82.565zM72.61 59.6c-.762 1.003 1.682 1.25 2.415 2.036.335-.507.705-.182 1.045-.532-.37-.44-.813-1.277.035-1.46-.63-.913-1.56-1.813-1.187-2.77-.506-.194-.81-.713-1.102-.826-.093.1-.185.203-.28.304-.066.554.824 1.066.557 1.63-1.475.312-3.044-1.607-4.497-.778 1.493.484 2.103.848 3.014 2.397zM55.99 74.71c-.37.145-.502.102-.656.516.29.473.955-.232.656-.515zM10.324 48.39c.596.302 1.188.53 1.743-.076-.26-.69-1.234-.762-1.743.075zm43.19 27.4c.242.217.14.448.515.66.45-.07.85-.758.63-1.1-.378.204-.783-.172-1.145.44zm-41.55-16.387c.565-.072.54-.708-.034-.776-.38.275-.17.526.033.776zm65.004-11.27c.7.506 1.4.95 2.072.785-.706-.653-1.407-1.132-2.072-.786zm2.358 2.912c.01.284.524.757.81.742.12-.143.248-.178.377-.21.21-.43-.034-.84.236-1.275.2.143.41.567.59.17-.507-.48-1-.67-1.483-.617.143.383-.045.78-.53 1.19zm3.14.836c-.027.52-.243 1.05.068 1.554.295.105.57-.27.875.06.12 1.5 1.595 1.636 2.71 2.12-.24.236-.46.473-.454.698.68.78 1.304.265 1.952.305 1.367.966 2.703 1.177 4.025 1.09.08-.328-.208-.64.345-.986.547-.07 1.105.134 1.685.804.4-.01 1.152-.33 1.22-.93-.66-.524-1.602-.032-1.987-1.08-.36-.107-.695.366-1.06.142-.02-.42.317-.856.43-1.283-1.474-2.172-1.974 1.62-3.326 1.603.254.41.663.814.15 1.257-.77-.554-1.134-1.18-.26-1.544-.425-.712-.51-1.205-1.432-1.69-.063-.32.268-.66.347-.987-.718-.26-.568-.63-.825-1.132-1.518-.715-3.02-1.007-4.464 0zM55.124 77.083l.303.277c.24-.204.323-.403.168-.59-.157.107-.32.06-.47.312zM84.42 56.658c-.275.305-.575.608-.254.887 1.034-.79 2.198 1.472 3.233.735-.623-.558-2.032-.877-2.98-1.622zm-7.558 7.037c-.164-.804.24-1.63-.588-2.405-.375.163-.867 1.038-.81 1.494.474.47.946.91 1.398.91zm.222-10.608c.337-.274.082-.523-.226-.768-.337.273-.08.52.226.767zM88.58 58.62c.392.12.79.39 1.168.142-.013-.226-.253-.443-.513-.66-.215.243-.446.14-.656.517zM50.226 70.463c1.744-.043 1.282-2.48.113-1.9-.584.288-.59 1.23-.113 1.9zm-.587.717c.122-.08.246-.164.368-.246l-.2-.293c-.27.14-.403.304-.168.54zm-14.743 2.126c.24.51.923.165 1.133-.228-.35-.066-.753.138-1.133.228zm-4.06.81c.39-.364-.09-.53-.325-.96-.53.18.114.84.326.96zm4.81 1.26c.234.703 1.226.034.663-.447-.195-.032-.617.254-.662.446zm14.383.05c.067.2.154.544.397.59.3-.24.356-.528.168-.864-.163-.038-.37.143-.565.273zM28.224 63.54c.498-.276.17-1.116-.397-.592-.038.18.215.557.397.592zm36.174 8.726c.098.124.014.217.125.345.162.037.416-.134.442-.3-.154-.198-.34-.227-.567-.045zM55.99 75.37c-.222.295.05.965.472.864.295-.27-.07-1-.472-.863zM61.71 67c.11.528.713 1.093 1.068 1.427.032-.405-.503-1.673-1.068-1.427zm-50.3-20.97c-.045.276.284.478.52.293.038-.237-.256-.617-.52-.293zm15.362 18.06c.07.077.073.142.027.198.295.34.676.24 1.082.018.394-.62-.877-.767-1.11-.216zM58.79 73.8c.316.24.644.418.94.76.252-.207.167-.48.144-.74-.198-.413-.592.188-.765-.343-.188.092-.276.202-.32.322zm-1.487-6.51l-.246-.368c-.337.08-.02.734.246.37zm.365 8.662c.026-.144-.09-.316-.224-.492-.46.11-.07.785.224.492zm6.587-60.81c-.244-.17-.496-.02-.814-.13-.138-.105-.063-.208-.227-.313-.226.126.01.26-.083.39-.297.12-.572.344-.593.65.19.133.136.262.305.395-.144.273-.41.127-.432.343.205.123.413.07.62.01.95.996 2.314-.585 1.225-1.344zm9.605 22.564c-.898.63-.08 2.11.91 1.57 1.286-.697-.07-2.157-.91-1.57zM71.607 24.71c-.302.436.225 1.064.726.83.952-.446-.19-1.595-.726-.83zM8.984 56.635c-.12.032-.266.027-.325.15.04.056.135.073.236.087.017-.096.094-.106.088-.237zm2.22-3.176c.17.18.197.458.534.526.072-.1.06-.405-.028-.514-.196-.045-.388-.084-.506-.013zm-.91 2.75c-.14.368-.8-.03-.95.324.247.045.662-.096 1.025-.055.022-.123.05-.25-.076-.27zm4.402-9.668l-.12-.024c-.032.092-.02.155.048.18.024-.052.073-.067.072-.156zm-.823 4.93c-.03-.014-.04-.043-.025-.088-.142-.092-.37-.037-.48.077.027.227.467.324.505.013zm-4.348 6.753c.164.134.42.01.463-.208-.2 0-.367.053-.463.208zm2.915-.412c-.022.118.212.14.278.097.07-.163-.255-.31-.278-.097zm4.91.336c.056.076.105.155.14.238-.037.023-.07.054-.066.136.044.003.08.014.12.022.136.49-.025 1.072-.297 1.638-.242-.016-.502.04-.69.183.03.255.15.406.31.5a17.99 17.99 0 01-.604.906c-.567-.066-.502-.434-1.005-.528-.513.067-.86.482-1.283.74-.107 1.056.565 1.745.967 2.56 1.043-.66 2.05-2.026 2.746-3.503l.077.01c.158-.195.187-.363.14-.5.145-.347.273-.696.378-1.04.193.15.444-.198.236-.308-.067.074-.142.136-.21.21.03-.1.06-.2.085-.3.082-.065.176-.112.272-.15.006.03.01.063.006.1.208-.037.34-.053.393.16.093-.09.128-.267.3-.24.392.202.67.526 1.14.62-.33.31-.465.61-.443.908.176.158.347.188.513.13.055.11.16.203.26.154-.05-.067-.083-.146-.123-.22.07-.044.14-.104.207-.175.06.093.13.178.214.252-.404.863-.896 1.766-.785 2.572.614-.297.96-1.165 1.28-2.083.265.33.862.192 1.305.19.076-.115-.1-.237.006-.255.354.178.762.217 1.144.206l.007.028c.51.327.75.082 1.033-.068.128.06.26.105.396.08a.287.287 0 00-.082-.173c.07 0 .145.01.23.04.348.505.234 1.23.575 1.74 1.397-.283.653-2.302 1.483-3.23-.31-.036-.496.194-.864.036a.343.343 0 01-.134-.095.607.607 0 00.117-.163c.027.014.053.028.08.038.127-.04.198-.162.4-.092.08.03.058.126.09.188a.45.45 0 01.4.12.411.411 0 01.067-.14c.315.423.52.9.758 1.36l-.084-.016c.036.107.06.22.206.252v-.004c.153.277.323.545.546.787-.066.657-.614.296-.678.952.5.096.515.425.8.626-.972 2.72 1.43 3.83 1.868 5.876l-.018.1c.013.01.028.01.04.022.01.048.018.096.024.145.46.26.74.146 1.113.222.372.2.296.616.746.778-.14.53-.55 1.188-.384 1.572.842-.03.927.403 1.61.74.566-.267.088-.68.224-1.114 1.438-.728 1.506 1.152 1.333 2.01l.757.268c.547-.463.07-.764.332-1.418.28-.38.9-.042 1.274-.23.76.28.128 1.23 1.07 1.424-.242.154-.367.487-.26.725a.21.21 0 00-.046-.026c-.432.257-.394.608-.192.99.34-.04.56-.606.33-.885.242-.038.473-.355.705-.608l-.303-.28c-.03.004-.055.013-.083.02.825-2.366 3.052-.438 4.513-1.202.346.76.914 1.413 2.1 1.77.867-.406 1.386-.423 1.692-.933 1.165-1.936-1.91-4.088 1.263-5.014-.076-.48.068-.91.312-1.255.093.45.38.642.7.69.01.04.018.08.024.122.45-.154.998.03 1.485.362l-.015.013c-.106.26.165.664.446.664a.955.955 0 00.19-.13c.036.038.07.08.104.12-.135 5.518-.422 11.862-.523 12.764-.165 1.504.6 1.705.6.166 0-1.79.155-7.682.297-12.77.115-.073.226-.19.338-.316-.006.077-.012.154.005.235.132-.218.32-.427.423-.65.147-.092.298-.103.458.058a.78.78 0 01-.102.26c-.1.023-.196.06-.285.108.044.04.092.08.142.12-.132.205-.255.407-.193.603.737.382.566.81 1.112 1.02.406-.443-.236-.843-.2-1.272.238.046.463.005.617-.182-.037-.028-.076-.054-.114-.08.2-.024.395-.133.582-.448a1.97 1.97 0 01-.184-.204c.02-.01.038-.018.06-.033.02-.294-.493-.693-.326-.96.493-.125.948-.06 1.523-.6a.724.724 0 01.107-.684c1.808.42 2.002 2.557 3.057 3.953.562-.447 1.185.5 1.775.7 1.025-2.184-.266-4.267-.08-6.415-.607.038-.22.58-.642.904-.717.39-1.28-.204-1.868-.874a.314.314 0 00-.14-.16 4.754 4.754 0 00-.175-.198c.31.107.626.216.94.34-.15.142-.146.313-.1.49.164.33.65.106.737-.175-.012-.022-.027-.04-.04-.062.4-1.142 1.69-1.645 2.55-.952-.074.903-.93.16-1.132.794.26.38 1.143.46 1.2.94-.105.302-.212.604-.32.908.736.53 1.025 1.274.718 2.303.307.126.484-.022.65-.192.065.067.14.133.23.198-.124.88.627 1.723.596 2.6 1.23.972 1.21 2.965 2.18 3.308.056-.547-.496-1.496.12-1.755.696.997 1.74 1.84 2.483 1.353 1.453-.955-.017-3.25-1.227-5.05.777-.546 1.692-.8 2.45-1.387-.325-.718.386-.962.534-1.517.5-1.848-.36-3.188-.874-4.75-1.036.103-.915-.617-1.504-1.045-1.02.234-2.556-.616-3.303.192-.36-.124-.353-.42-.856-.476.12-.78-.03-1.595-.308-2.398.032-.023.067-.045.1-.068-.05-.09-.117-.102-.177-.14-.277-.745-.65-1.473-.997-2.15a15.503 15.503 0 01-.813-.3c.426-.105.754.1 1.034.578.46-.57.967-.055 1.414-.937-.89-1.313 1.64-2.227 2.36-1.56.395-.32.62-.43.446-.895-1.09.958-2.295-.742-3.384.244.126.675-.713 2.157-1.585 1.527-.098-.352-.1-.708-.064-1.066.557.223 1.146.367 1.572.11-.407-.314-.86-.41-1.188-1.128-.19.07-.388.164-.567.18l-.356-.33c.186-.17.386-.34.593-.516.078.46.53.864.997.862a.43.43 0 00.157-.357c.07.036.14.07.21.107.215-.15.225-.387.126-.566.02.005.035.01.055.013.677-1.158 1.947-1.074 2.99-.42.415-.01.215-.335.557-.61.57.587 1.093.05 1.633-.083-.01.067.01.143.1.23l.333-.223a.72.72 0 01.165.077c.04.26.37.505.033.78-.253.095-.527-.25-.764.227.63.388 1.228.01 1.827-.372.42.37-.15.785.048 1.165.765.46 1.524.785 2.285 1.165.17.48-.118.978.546 1.435.25-.497-.114-.968.23-1.468-1.423-.612-.87-1.82-1.77-2.744-.45.04-.9.067-1.37-.33.216-1.175-1.078-2.286-1.313-3.443-.78-.256-1.147-1.114-.27-1.74-.41-.49-.788-.307-1.196-.725-.21-.36-.224-.623-.125-.83.523.022 1.07.22 1.48.44.867-.526.902-1.492 1.544-2.138.473-.182.743.686 1.035.232-.357-.528-.294-1.208.286-1.747.49-.195.722.094 1.21-.098.165-.672-.463-.61-.814-.854 1.167-.84-.848-2.71.448-3.454-.138-.536-.737-.197-.815-.85-.247-.588.728-.53.48-1.117-.433-.027-.652.34-1.082.06-.066-1.21-.964-.835-1.3-1.53.2-.316.828-.406 1.015-.73-.563-.52-1.543.124-1.885.586-.46.017-.135-.213-.32-.588-.44.497-1.792.74-2.46.072-.138.242-.534.35-.637.612-.427.015-.676-.312-1.16-.192-.257.4.05.44.185 1.048-.478.305-.57-.114-.96.02.083.453-.18.722-.525.823a.736.736 0 01-.027-.15c-.22-.122-.47-.205-.706-.32a10.967 10.967 0 01-.298-.62l.007-.008c.243-.25-.12-.558.322-.696a.39.39 0 01-.06-.146l.104-.033-.095-.308c.008-.057.018-.115.02-.173-.18-.173-.36-.386-.542-.57.545-.58 1.064-1.198 1.714-1.638-.063-.415-.44-.228-.57-.513.063-.425.355-.727.973-.857.146-.61-.375-.61-.6-1.056.4-.315.093-1.004.733-1.193-.435-1.11-.262-1.895-.15-2.715 1.053-.184 1.203-.843 1.816-1.257-.374-.618-.983.315-1.54-.074-.524.178-.495.652-.81.94-.76-.957-.014-2.557-.462-3.743.755.106 1.503.637 2.273-.363.247-.075.495-.073.746-.418-.045-.36.194-.8-.06-1.167-.39-.57-1.294-.704-1.71.05-.988.076-1.02 1.14-1.28 1.81-.002-.005-.003-.012-.007-.018-.65-1.45-2.72-1.607-4.424-1.387-.254.323-.332.74-.813.942-1.112-.175-1.154-1.95-1.186-2.947.406-.235.543.038.92-.146.304-.297.33-.74.482-1.117-.45-.747-1.226-.87-1.89-1.208-.52 1.355-.28 3.626.388 5.265-.217.833-1.724.986-1.748 1.923a1.064 1.064 0 01-.41-.403c.044.04.082.083.11.126.375-.193-.046-.778-.426-.963-.205-.847-.28-1.876-.82-2.423-.38.73.22 1.976.492 3.05-.736-.45-1.486-.806-2.14-1.1-.215-.544-.917-.832-1.11-1.508-.16.13-.25.256-.29.375-.194-.224-.415-.414-.69-.52-.394.76.517 1.468.387 2.22-.308.2-.378.392-.38.58a.81.81 0 00-.21.71c-.4-.01-.81-.286-1.213-.338-.207.313-.54.58-.787.804a.674.674 0 00-.185-.022c-.722-2.363-2.998-1.77-4.264-3.096-.03.004-.056.01-.083.015.056-.06.11-.126.167-.2-.407-.465-.783-.16-1.155.244.135.15.266.227.394.246a1.301 1.301 0 01-.165.095c-.34.05-.494-.26-.87-.144-.167-.418-.22-1.052-.517-1.22-.54.43-.806.19-1.42.3-.193.365.097.462.284.665-.432.008-.874-.217-1.318-.468a.902.902 0 00-.203.37 3.327 3.327 0 01-.223-.388l-.63.195c-.132.572.33.534.477 1.094.002.387-.57.47-.725.777-.664.197-.688-.826-1.49-.365.7 2.04-1.762 1.845-2.355 3.08-.6-.33-1.293-.48-2.247-.132-.37.694-.704.96-.654 1.445.17 1.733 2.895 1.752 1.868 3.547-.287-.286-.294-.584-.718-.864-.36 1.264-1.483 2.034-2.645 1.67a.733.733 0 00.036-.492c.3-.413.51-1.055.48-1.342-.373-.258-.41.192-.712.088.076.345.014.59-.066.824-.294-.278-.723-.54-.985-.97-.195.37-.355.738-.566 1.11-1.217.24-2.18-1-2.628-1.96-1.232-.12-1.97.798-3.066.96-.596-.17-.227-1.215-.845-.983-.034.776-.59 1.393-1.55 1.497-.62-.167-.637-.62-1.255-.788-.65.535.01.934.175 1.43-1.754-.034-1.142 3.268-2.952 3.047-.253.625.578.734.178 1.43-.187.752-1.096-.016-1.283.737.405.343.885.147 1.1.734-.815 1.23.337 1.52.158 2.447-.423.162-1.103-.21-1.52-.03.17.92 1.597 1.01 2.268.807.46.32-.024.308-.116.812.715-.15 2.004.45 2.368 1.407l-.01.01c.123.67-.378 2.22.58 2.212-.355.37-.377.186-.556.608.546.494.622 1.01.066 1.552-1.313-.598-1.33-2.502-2.558-3.098l-.28.304c-.135.46.622.882 1.03 1.318.005.8-.743 1.055-.895 1.79.374.41.693-.442 1.07.05.11.388-.215 1.3.64 1.333.003-.193-.344-.372-.026-.58.496.083.99.147 1.485.22.015.02.032.04.045.063a.604.604 0 00.04-.052l.104.016c-.31.107-.688.074-1.152-.143-.587.492-.076.873-.18 1.472-.622.016-.823.912-1.586.63-.382 1.402-1.125 2.044-1.83 2.766-1.162-.592-1.788-.057-2.69-.102-.036.385.188.51.473.598.024.05.03.1-.008.154-.338-.146-.74-.197-.855.047-.31.662 1.236 1.096 1.68 1.385.036-.332.346-.258.47-.46.124.14.112.374.337.448.134-.09.24-.355.192-.557-.115-.1-.182-.232-.417-.252a.527.527 0 00-.076-.112c.242-.01.438-.116.637-.213.118.17.255.32.394.474-.396 1.18-1.845 2.115-2.185 3.403-.17.025-.352.056-.476.02-.006.185-.153.16-.186.305.166.055.414.2.224.383.12.054.25.1.37.154.026.262.095.52.197.77-.344.292-.5.658-.873 1.09.176.223.338.455.5.686a.26.26 0 01-.054.086c.013.143.14.21.14.366-.074-.004-.196-.08-.18.05a.6.6 0 00.412-.035c.497.73 1.003 1.442 1.74 1.947.532-.558.54-1.092.685-1.632.26.174.526.337.79.486.236-.063.446-.18.67-.263.12.252.51.384.87.37.023-.047 0-.198.04-.306zm48.394-11.574c.612-.646 1.37.533.724 1.038-.436-.143-1.003-.602-.724-1.038zm-2.684 4.51c.133-.113.266-.225.396-.34.072.175.167.31.292.412a.534.534 0 00-.188.104c-.154-.12-.335-.19-.5-.175zM51.742 18.59c.092.093.178.19.25.287a1.949 1.949 0 01-.25-.287zm-3.088 3.134c.01.008.02.015.03.025l-.018-.005c-.005-.007-.007-.014-.012-.02zM36.762 49.956a1.777 1.777 0 01-.278-.297c.08.063.166.117.255.16.006.046.012.092.022.136zm-.426 1.013c.247-.22.32-.45.482-.78.053.185.124.363.217.526-.18.196-.428.248-.7.253zM35.048 48c-.36-.36-.16-1.088.34-1.18.265.213.166.445.32.666-.217.262-.433.502-.66.515zm-.337 2.808l.07-.073c.19.01.382.106.575.206-.192.017-.368.068-.51.192-.047-.106-.09-.217-.134-.324zm-7.438-23.53c.003-.01.008-.015.01-.022.395.494.756.193 1.148.67a1.254 1.254 0 00-.41.007 2.199 2.199 0 01-.748-.656zM25.058 59.53c.025-.095.06-.188.104-.275.036.007.07.007.083-.023-.02-.008-.036-.02-.052-.03a.942.942 0 01.183-.23c.064.066.122.125.24.146.03.2.015.424.14.662l.078.01c-.05.17-.12.347-.202.53a.71.71 0 00-.25-.046c.008-.192.126-.403.094-.488-.18-.075-.217.064-.382.01.01-.106-.015-.188-.036-.265zM20.6 41.35c.34.23.7.442 1.053.674-.422.455-.65-.085-1.053-.674zm-7.277 10.78c.066-.104.248-.19.104-.317-.072.068-.362.232-.104.32zm1.526-4.836c.072-.096.11-.105.087-.236-.15-.077-.21.21-.088.236zm-7.175 10.87c.253.03.42-.247.684-.038.108-.03.12-.205.25-.205.072.105.054.273.09.4.726.326.255-.733.607-.944-.13-.066-.3-.104-.24-.3.29.02.482.124.314.357.224.116.323.23.64.21.066.07.033.21.066.31.226-.05.245.07.392.158.505-.055.938-.218 1.152-.707-.075-.14-.103-.31-.263-.392-.094.02-.105.163-.236.125-.268-.368-.67-.168-1.034-.116.024-.1.043-.196.006-.253-.3-.094-.38.14-.553.232a1.798 1.798 0 00-1.214.358c.032.097.156.132.07.31-.13.105-.308.14-.564.06-.102.067-.245.27-.167.436zm20.942 3.12c-.18-.053-.308-.036-.325.15.125.11.17.09.36.112.072-.145-.08-.137-.035-.26zm-10.18-1.208c.002-.1.09-.074.08-.195-.144-.125-.228.216-.08.196zM15.08 46.53c-.105.092-.1.332.01.385.066-.112.23-.08.227-.296-.096-.017-.107-.094-.237-.09zm9.023 14.898c-.026-.1-.255-.064-.36-.112-.093.154.345.26.36.112zm.937 20.957c-.137 1.508.633 1.693.603.157-.067-3.343.114-20.995.114-20.995h-.645c.42 2.732.063 19.332-.072 20.838z" fill="#00AEEF"/><path d="M232.055 43.918c0 4.542-1.586 8.974-4.426 11.743-2.325 2.254-5.46 3.583-9.185 3.583-6.455 0-10.07-4.58-10.07-10.377 0-4.505 1.66-8.973 4.575-11.78 2.324-2.215 5.496-3.544 9.073-3.544 6.565 0 10.032 4.43 10.032 10.376zm-14.938-4.062c-1.99 1.957-3.098 5.835-3.098 8.826 0 3.508 1.585 6.13 5.2 6.13 1.585 0 3.024-.666 4.167-1.81 1.954-1.957 3.024-6.056 3.024-8.936 0-3.102-1.105-6.093-5.015-6.093-1.66 0-3.134.702-4.278 1.883zm-14.122 17.836c-1.882.627-4.906 1.403-8.04 1.403-3.394 0-6.233-.886-8.262-2.732-1.992-1.736-3.135-4.506-3.135-7.68 0-4.654 1.88-8.68 5.053-11.375 2.804-2.326 6.676-3.62 10.99-3.62 3.21 0 5.607.63 6.566 1.11l-1.586 4.467c-1.106-.517-3.06-.997-5.274-.997-2.47 0-4.647.702-6.307 1.994-2.177 1.7-3.615 4.653-3.615 8.05 0 4.172 2.47 6.278 6.38 6.278 1.254 0 2.103-.185 2.73-.444l.995-5.243h-3.872l.848-4.247h9.035l-2.505 13.036zm-46.18-7.2c.074 4.394 2.84 6.203 6.122 6.203 2.324 0 3.763-.406 4.943-.923l.59 2.326c-1.144.517-3.135 1.145-5.976 1.145-5.495 0-8.777-3.656-8.777-9.048 0-5.39 3.17-9.6 8.372-9.6 5.863 0 7.375 5.095 7.375 8.382 0 .665-.037 1.145-.11 1.514h-12.54zm9.515-2.327c.037-2.03-.848-5.243-4.5-5.243-3.318 0-4.72 2.99-4.978 5.243h9.478zM134.54 32.62h3.247v11.188h.074a6.127 6.127 0 012.324-2.326 6.636 6.636 0 013.32-.887c2.397 0 6.232 1.477 6.232 7.607v10.634h-3.245V48.57c0-2.88-1.07-5.28-4.13-5.28-2.102 0-3.725 1.477-4.352 3.213-.184.48-.22.96-.22 1.55v10.783h-3.247V32.62zm-8.296 4.06v4.285h4.647v2.474h-4.646v9.636c0 2.216.628 3.472 2.434 3.472.886 0 1.402-.074 1.882-.222l.147 2.475c-.627.222-1.623.443-2.877.443-1.512 0-2.73-.517-3.503-1.366-.886-.997-1.254-2.585-1.254-4.69v-9.75h-2.767v-2.473h2.767V37.64l3.17-.96zM93.75 45.803c0-1.884-.036-3.36-.146-4.838h2.877l.185 2.954h.074c.884-1.66 2.95-3.323 5.9-3.323 2.47 0 6.306 1.477 6.306 7.607v10.634H105.7V48.534c0-2.88-1.068-5.28-4.13-5.28-2.1 0-3.76 1.513-4.35 3.322-.15.407-.223.96-.223 1.515v10.746h-3.245V45.802zm-4.09 3.95c0 6.61-4.61 9.49-8.89 9.49-4.794 0-8.556-3.544-8.556-9.194 0-5.945 3.946-9.454 8.85-9.454 5.128 0 8.595 3.73 8.595 9.16zm-14.127.185c0 3.915 2.213 6.87 5.385 6.87 3.098 0 5.422-2.918 5.422-6.943 0-3.028-1.512-6.832-5.348-6.832-3.8 0-5.46 3.545-5.46 6.905z" fill="#000"/><path d="M48.676 33.95v14.29c0 4.32 1.66 6.498 4.5 6.498 2.95 0 4.573-2.068 4.573-6.5V33.95h5.605v13.96c0 7.68-3.872 11.335-10.363 11.335-6.27 0-9.922-3.508-9.922-11.41V33.948h5.606zm-9.328 24.22c-.996.48-3.357 1.07-6.344 1.07-8.593 0-13.02-5.39-13.02-12.48 0-8.493 6.05-13.183 13.574-13.183 2.913 0 5.127.553 6.122 1.107l-1.18 4.43c-1.106-.48-2.692-.922-4.72-.922-4.427 0-7.894 2.696-7.894 8.235 0 4.985 2.95 8.123 7.93 8.123 1.733 0 3.577-.332 4.72-.812l.812 4.432z" fill="#FFF"/></g></svg>