<svg viewBox="0 0 501 100" xmlns="http://www.w3.org/2000/svg"><g fill="none" fill-rule="evenodd"><path d="M108.561 5.21h2.492c3.684 0 6.754 1.948 6.754 5.965 0 4.106-3 6.088-6.807 6.088h-2.439V5.211zm1.492 10.667h.526c3.07 0 5.72-1.158 5.72-4.649 0-3.509-2.65-4.65-5.72-4.65h-.526v9.3zm11.543-1.649l-1.368 3.018h-1.614l5.754-12.544 5.755 12.544h-1.614l-1.369-3.018h-5.544zm2.755-6.246l-2.14 4.878h4.28l-2.14-4.878zm10.509 6.123l3.579-8.912h1.649l-5.228 12.684-5.246-12.684h1.65zm8.79 3.141h-1.51V5.21h1.51zm3.368-12.036h2.49c3.685 0 6.755 1.948 6.755 5.965 0 4.106-3 6.088-6.807 6.088h-2.438V5.211zm1.49 10.667h.527c3.07 0 5.72-1.158 5.72-4.649 0-3.509-2.65-4.65-5.72-4.65h-.526v9.3zm25.825-8.368c-.86-.772-2.052-1.176-3.175-1.176-2.702 0-4.754 2.246-4.754 4.913 0 2.631 2.052 4.894 4.719 4.894a4.79 4.79 0 003.21-1.245v1.772c-.93.544-2.105.842-3.158.842-3.438 0-6.28-2.737-6.28-6.21 0-3.562 2.86-6.334 6.403-6.334 1.053 0 2.123.263 3.035.807v1.737zm5.035 9.07c0 .509-.42.93-.93.93a.936.936 0 01-.93-.93c0-.491.422-.93.93-.93.527 0 .93.421.93.93zm22.106-5.351c0 3.579-2.825 6.28-6.316 6.28-3.474 0-6.316-2.701-6.316-6.28 0-3.456 2.86-6.28 6.316-6.28s6.316 2.824 6.316 6.28zm-1.51 0c0-2.65-1.982-4.877-4.806-4.877-2.825 0-4.807 2.228-4.807 4.877 0 2.754 2.21 4.877 4.807 4.877 2.596 0 4.807-2.14 4.807-4.877zm4.194-6.596l9.035 9.473V5.211h1.509v12.543l-9.035-9.473v8.982h-1.51V4.632zm15.456 11.245h3.65v1.369h-5.159V5.21h1.509v10.666zm5.842-10.667h6.474v1.37h-4.965v3.368h4.824v1.369h-4.824v4.544h4.965v1.368h-6.474zm8.298 0h1.72l2.947 5.14 2.947-5.14h1.72l-3.93 6.808v5.245h-1.509v-5.245zm19.65 12.036h-1.51V5.21h1.51zm3.368-12.614l9.035 9.473V5.211h1.509v12.543l-9.035-9.473v8.982h-1.51zm15.421 12.614h-1.509V5.21h1.509zm6.597 0h-1.51V6.579h-2.841V5.21h7.21v1.368h-2.86v10.667zm6.614 0h-1.51V5.21h1.51zm5.175-3.018l-1.368 3.018h-1.615l5.755-12.544 5.754 12.544h-1.614l-1.368-3.018h-5.544zm2.754-6.246l-2.14 4.878h4.28l-2.14-4.878zm10.263 9.264h-1.508V6.579h-2.86V5.21h7.21v1.368h-2.86v10.667zm6.614 0h-1.508V5.21h1.509zm7.281-3.141l3.58-8.912h1.648l-5.228 12.684-5.245-12.684h1.649zm7.299-8.895h6.473v1.37h-4.965v3.368h4.825v1.369h-4.825v4.544h4.965v1.368h-6.474zM110.175 24.579v3.386h4.176v1.368h-4.176v5.913h-1.508V23.21h5.824v1.368h-4.316zm19.018 4.649c0 3.579-2.825 6.28-6.316 6.28-3.491 0-6.316-2.701-6.316-6.28 0-3.456 2.86-6.28 6.316-6.28s6.316 2.824 6.316 6.28zm-1.509 0c0-2.65-1.982-4.877-4.807-4.877-2.824 0-4.807 2.228-4.807 4.877 0 2.754 2.21 4.877 4.807 4.877 2.597 0 4.807-2.123 4.807-4.877zm11.755 6.018h-1.825l-3.544-5.088h-.631v5.088h-1.51V23.21h1.825c1.07 0 2.228.017 3.176.56 1 .597 1.579 1.72 1.579 2.878 0 1.72-1.158 3.158-2.895 3.369l3.825 5.228zm-6-6.334h.473c1.527 0 3.193-.28 3.193-2.21 0-1.877-1.79-2.158-3.28-2.158h-.404v4.368h.018zm14.982-5.702h6.474v1.369h-4.965v3.368h4.824v1.369h-4.824v4.544h4.965v1.368h-6.474zm11.614 4.088H160l-1.404 7.948h-1.543l2.456-12.544 4.14 9.491 4.14-9.491 2.457 12.544h-1.544l-1.404-7.948h-.035l-3.614 8.21zm14.245 7.948h-1.508V23.21h1.72c3.701 0 4.859 1.28 4.859 3.473 0 2.544-1.93 3.509-4.21 3.509h-.86v5.053zm0-6.386h.474c1.527 0 3.193-.281 3.193-2.21 0-1.878-1.79-2.106-3.28-2.106h-.404v4.316h.018zm8.93 5.017h3.65v1.369h-5.158V23.21h1.509zm17.106-4.649c0 3.579-2.825 6.28-6.316 6.28-3.474 0-6.316-2.701-6.316-6.28 0-3.456 2.86-6.28 6.316-6.28s6.316 2.824 6.316 6.28zm-1.509 0c0-2.65-1.982-4.877-4.807-4.877s-4.807 2.228-4.807 4.877c0 2.754 2.21 4.877 4.807 4.877 2.596 0 4.807-2.123 4.807-4.877zm2.088-6.018h1.719l2.947 5.14 2.948-5.14h1.72l-3.93 6.808v5.245h-1.51v-5.245zm12.755 4.088h-.036l-1.403 7.948h-1.544l2.456-12.544 4.14 9.491 4.14-9.491 2.457 12.544h-1.544l-1.404-7.948h-.035l-3.614 8.21zm12.754-4.088h6.473v1.369h-4.965v3.368h4.825v1.369h-4.825v4.544h4.965v1.368h-6.473zm9.263-.578l9.035 9.473v-8.894h1.509v12.543l-9.036-9.473v8.982h-1.508zm17.123 12.614h-1.51V24.579h-2.859V23.21h7.21v1.368h-2.86v10.667zm18.842-1.632c-.913 1.07-2.193 1.877-3.614 1.877-2.018 0-3.685-1.473-3.685-3.544 0-1.526.965-2.368 2.106-3.193l.754-.543c-.684-.72-1.333-1.615-1.333-2.632 0-1.667 1.193-2.632 2.772-2.632 1.473 0 2.772.93 2.772 2.51 0 1.35-1.176 2.262-2.193 3l2.508 3.034 1.404-1.631.965.982-1.474 1.72 2.158 2.666h-1.86l-1.28-1.614zm-3.72-4.21c-.824.578-2.193 1.385-2.193 2.543 0 1.158 1.088 2.228 2.228 2.228 1.123 0 2.018-.842 2.755-1.596l-2.667-3.263-.123.088zm.667-2.106c.614-.473 1.439-.982 1.439-1.86 0-.842-.614-1.315-1.404-1.315-.72 0-1.333.509-1.333 1.28 0 .615.368 1.053.719 1.51l.404.508.175-.123zm14.912-4.088h6.474v1.369H285v3.368h4.825v1.369H285v4.544h4.965v1.368h-6.474zm9.246-.578l9.035 9.473v-8.894h1.509v12.543l-9.035-9.473v8.982h-1.51zm17.123 12.614h-1.51V24.579h-2.859V23.21h7.21v1.368h-2.859v10.667zM315 23.21h6.474v1.369h-4.965v3.368h4.824v1.369h-4.824v4.544h4.965v1.368H315zm16.807 12.036h-1.825l-3.543-5.088h-.632v5.088h-1.509V23.21h1.825c1.07 0 2.228.017 3.175.56 1 .597 1.58 1.72 1.58 2.878 0 1.72-1.159 3.158-2.896 3.369l3.825 5.228zm-5.982-6.334h.473c1.527 0 3.193-.28 3.193-2.21 0-1.877-1.79-2.158-3.28-2.158h-.404v4.368h.018zm9.754 6.334h-1.491V23.21h1.719c3.702 0 4.86 1.28 4.86 3.473 0 2.544-1.93 3.509-4.21 3.509h-.86v5.053h-.018zm0-6.386h.474c1.526 0 3.193-.281 3.193-2.21 0-1.878-1.79-2.106-3.281-2.106h-.404v4.316h.018zm14.93 6.386h-1.825l-3.544-5.088h-.631v5.088H343V23.21h1.825c1.07 0 2.228.017 3.175.56 1 .597 1.579 1.72 1.579 2.878 0 1.72-1.158 3.158-2.895 3.369l3.825 5.228zm-6-6.334h.473c1.527 0 3.193-.28 3.193-2.21 0-1.877-1.789-2.158-3.28-2.158h-.404v4.368h.018zm9.754 6.334h-1.509V23.21h1.51zm8.649-9.755c-.438-.754-1.017-1.14-1.93-1.14-.964 0-2.017.649-2.017 1.702 0 .947.93 1.438 1.684 1.719l.86.333c1.702.667 2.982 1.614 2.982 3.632 0 2.193-1.684 3.754-3.842 3.754-1.947 0-3.474-1.438-3.72-3.368l1.51-.316c-.018 1.333 1.035 2.28 2.333 2.28 1.298 0 2.228-1.087 2.228-2.35 0-1.298-1.035-1.86-2.07-2.28l-.825-.352c-1.368-.596-2.614-1.368-2.614-3.052 0-1.948 1.72-3.123 3.544-3.123 1.333 0 2.439.649 3.105 1.824l-1.228.737zm4.298-2.281h6.474v1.369h-4.965v3.368h4.825v1.369h-4.825v4.544h4.965v1.368h-6.473zm16 0h2.492c3.684 0 6.754 1.948 6.754 5.965 0 4.106-3 6.088-6.807 6.088h-2.438V23.211zm1.51 10.667h.526c3.07 0 5.719-1.158 5.719-4.649 0-3.509-2.65-4.65-5.72-4.65h-.526v9.3zm10.543-10.667h6.474v1.369h-4.965v3.368h4.824v1.369h-4.824v4.544h4.965v1.368h-6.474zm13.579 8.913l3.58-8.912h1.648l-5.228 12.684-5.246-12.684h1.65zm7.298-8.913h6.474v1.369h-4.965v3.368h4.825v1.369h-4.825v4.544h4.965v1.368h-6.474zm10.807 10.667h3.65v1.369h-5.158V23.21h1.508v10.666zm17.106-4.649c0 3.579-2.825 6.28-6.316 6.28-3.491 0-6.316-2.701-6.316-6.28 0-3.456 2.86-6.28 6.316-6.28s6.316 2.824 6.316 6.28zm-1.51 0c0-2.65-1.982-4.877-4.806-4.877-2.825 0-4.807 2.228-4.807 4.877 0 2.754 2.21 4.877 4.807 4.877 2.614 0 4.807-2.123 4.807-4.877zm5.755 6.018h-1.509V23.21h1.72c3.702 0 4.86 1.28 4.86 3.473 0 2.544-1.93 3.509-4.211 3.509h-.86v5.053zm0-6.386h.474c1.526 0 3.193-.281 3.193-2.21 0-1.878-1.79-2.106-3.28-2.106h-.404v4.316h.017zm9.158-1.562h-.035l-1.403 7.948h-1.544l2.456-12.544 4.14 9.491 4.14-9.491 2.457 12.544h-1.544l-1.404-7.948h-.035l-3.614 8.21zm12.754-4.088h6.474v1.369h-4.965v3.368h4.825v1.369h-4.825v4.544h4.965v1.368h-6.473zm9.246-.578l9.035 9.473v-8.894H490v12.543l-9.035-9.473v8.982h-1.509zm17.123 12.614h-1.509V24.579h-2.86V23.21h7.211v1.368h-2.86v10.667zM110.14 76.754h-1.508V64.72h1.508zm3.351-12.614l9.035 9.474v-8.895h1.51v12.544L115 67.79v8.983h-1.509zm15.439 12.614h-1.509V64.72h1.509zm6.596 0h-1.508V66.088h-2.86v-1.369h7.21v1.369h-2.86v10.666zm6.614 0h-1.508V64.72h1.508zm5.158-3.017l-1.368 3.017h-1.614l5.754-12.543 5.755 12.543h-1.614l-1.369-3.017h-5.544zm2.772-6.246l-2.14 4.877h4.28l-2.14-4.877zm10.263 9.263h-1.508V66.088h-2.86v-1.369h7.21v1.369h-2.86v10.666zm6.614 0h-1.508V64.72h1.508zm7.281-3.122l3.579-8.913h1.65l-5.229 12.685-5.246-12.685h1.65zm7.298-8.912H188v1.368h-4.965v3.368h4.825v1.369h-4.825v4.543H188v1.369h-6.474zm16 0h2.492c3.684 0 6.754 1.947 6.754 5.964 0 4.105-3 6.088-6.807 6.088h-2.439V64.719zm1.492 10.666h.526c3.07 0 5.72-1.158 5.72-4.65 0-3.508-2.65-4.648-5.72-4.648h-.526v9.298zm11.543-1.649l-1.368 3.017h-1.614l5.754-12.543 5.755 12.543h-1.614l-1.369-3.017h-5.544zm2.755-6.246l-2.14 4.877h4.28l-2.14-4.877zm10.509 6.141l3.579-8.913h1.649l-5.228 12.685-5.246-12.685h1.65zm8.789 3.122h-1.509V64.72h1.509zm3.368-12.034h2.492c3.684 0 6.754 1.947 6.754 5.964 0 4.105-3 6.088-6.807 6.088h-2.439V64.719zm1.492 10.666H238c3.07 0 5.72-1.158 5.72-4.65 0-3.508-2.65-4.648-5.72-4.648h-.526v9.298zm25.824-8.368c-.86-.772-2.052-1.176-3.175-1.176-2.702 0-4.755 2.246-4.755 4.912 0 2.632 2.053 4.895 4.72 4.895a4.79 4.79 0 003.21-1.245v1.771c-.93.544-2.105.843-3.158.843-3.438 0-6.28-2.737-6.28-6.211 0-3.561 2.86-6.333 6.403-6.333 1.053 0 2.123.263 3.035.807v1.737zm5.035 9.07c0 .508-.42.93-.93.93a.936.936 0 01-.93-.93c0-.492.422-.93.93-.93.51 0 .93.438.93.93zm22.106-5.351c0 3.579-2.825 6.28-6.316 6.28-3.474 0-6.316-2.701-6.316-6.28 0-3.456 2.86-6.28 6.316-6.28s6.316 2.824 6.316 6.28zm-1.51 0c0-2.65-1.982-4.877-4.806-4.877-2.825 0-4.807 2.228-4.807 4.877 0 2.754 2.21 4.877 4.807 4.877 2.614 0 4.807-2.123 4.807-4.877zm4.194-6.597l9.035 9.474v-8.895h1.509v12.544l-9.035-9.474v8.983h-1.51zm15.456 11.246h3.65v1.368h-5.159V64.72h1.509v10.667zm5.842-10.666h6.474v1.368h-4.965v3.368h4.824v1.369h-4.824v4.543h4.965v1.369h-6.474zm8.299 0h1.719l2.947 5.14 2.947-5.14h1.72l-3.93 6.806v5.246h-1.509v-5.246zM110.193 94.772h-1.509V82.737h1.72c3.701 0 4.86 1.28 4.86 3.474 0 2.543-1.93 3.508-4.211 3.508h-.86v5.053zm0-6.386h.474c1.526 0 3.193-.28 3.193-2.21 0-1.878-1.79-2.106-3.281-2.106h-.404v4.316h.018zm19.527.351c0 3.579-2.825 6.28-6.316 6.28-3.474 0-6.316-2.701-6.316-6.28 0-3.456 2.86-6.28 6.316-6.28 3.456.017 6.315 2.841 6.315 6.28zm-1.51 0c0-2.65-1.982-4.877-4.806-4.877-2.825 0-4.808 2.228-4.808 4.877 0 2.754 2.211 4.877 4.808 4.877 2.596 0 4.807-2.123 4.807-4.877zm5.597-6.017v7.105c0 1.964.597 3.789 2.912 3.789 2.316 0 2.913-1.825 2.913-3.79V82.72h1.508v7.614c0 2.65-1.649 4.685-4.403 4.685-2.755 0-4.404-2.036-4.404-4.685V82.72h1.474zm18.14 12.052h-1.824l-3.544-5.088h-.632v5.088h-1.508V82.737h1.824c1.07 0 2.228.017 3.176.561 1 .597 1.579 1.72 1.579 2.877 0 1.72-1.158 3.158-2.895 3.369l3.824 5.228zm-6-6.35h.474c1.526 0 3.193-.282 3.193-2.211 0-1.878-1.79-2.158-3.28-2.158h-.404v4.368h.017zm16.492 4.964h3.649v1.368h-5.158V82.72h1.509zm6.965-10.421l-2.123 4.263-.895-.368 1.754-4.386zm2.736-.245h6.474v1.368h-4.965v3.368h4.825v1.369h-4.825v4.543h4.965v1.369h-6.474zm11.614 4.087h-.035l-1.403 7.947h-1.544l2.456-12.543 4.14 9.49 4.14-9.49 2.457 12.543h-1.544l-1.403-7.947h-.036l-3.614 8.21zM198 94.772h-1.509V82.737h1.72c3.701 0 4.86 1.28 4.86 3.474 0 2.543-1.93 3.508-4.211 3.508H198v5.053zm0-6.386h.474c1.526 0 3.193-.28 3.193-2.21 0-1.878-1.79-2.106-3.281-2.106h-.404v4.316H198zm8.93 5h3.649v1.368h-5.158V82.72h1.509zm17.088-4.649c0 3.579-2.825 6.28-6.316 6.28-3.491 0-6.316-2.701-6.316-6.28 0-3.456 2.86-6.28 6.316-6.28 3.456.017 6.316 2.841 6.316 6.28zm-1.492 0c0-2.65-1.982-4.877-4.807-4.877-2.824 0-4.807 2.228-4.807 4.877 0 2.754 2.21 4.877 4.807 4.877 2.597 0 4.807-2.123 4.807-4.877zm5.754 6.035h-1.508V82.737h1.509zm10.053-12.052h6.474v1.368h-4.965v3.368h4.825v1.369h-4.825v4.543h4.965v1.369h-6.474zm12.913 12.052h-1.51V84.105h-2.859v-1.368h7.21v1.368h-2.859v10.667zm13.35-1.386h3.65v1.368h-5.158V82.72h1.508v10.667zm6.965-10.421l-2.122 4.263-.895-.368 1.754-4.386zm2.737-.245h6.474v1.368h-4.965v3.368h4.825v1.369h-4.825v4.543h4.965v1.369h-6.474zm9.246-.562l9.035 9.474v-8.895h1.509V95.28l-9.035-9.474v8.982h-1.51zm17.123 12.614h-1.51V84.105h-2.859v-1.368h7.21v1.368h-2.859v10.667zm12.631 0h-1.824l-3.544-5.088h-.632v5.088h-1.509V82.737h1.825c1.07 0 2.228.017 3.175.561 1 .597 1.58 1.72 1.58 2.877 0 1.72-1.158 3.158-2.895 3.369l3.824 5.228zm-5.982-6.35h.473c1.527 0 3.193-.282 3.193-2.211 0-1.878-1.789-2.158-3.28-2.158h-.404v4.368h.018zm8.263-5.702h6.474v1.368h-4.965v3.368h4.824v1.369h-4.824v4.543h4.965v1.369h-6.474zm10.825 12.052h-1.51V82.737h1.72c3.702 0 4.86 1.28 4.86 3.474 0 2.543-1.93 3.508-4.21 3.508h-.86v5.053zm0-6.386h.473c1.527 0 3.193-.28 3.193-2.21 0-1.878-1.79-2.106-3.28-2.106h-.404v4.316h.018zm14.912 6.386h-1.825l-3.544-5.088h-.614v5.088h-1.508V82.737h1.824c1.07 0 2.228.017 3.176.561 1 .597 1.579 1.72 1.579 2.877 0 1.72-1.158 3.158-2.895 3.369l3.807 5.228zm-6-6.35h.473c1.527 0 3.193-.282 3.193-2.211 0-1.878-1.789-2.158-3.28-2.158h-.404v4.368h.018zm8.28-5.702h6.474v1.368h-4.965v3.368h4.825v1.369h-4.825v4.543h4.965v1.369h-6.474zm9.246-.562l9.035 9.474v-8.895h1.509V95.28l-9.035-9.474v8.982h-1.509zm13.948.562h6.473v1.368h-4.965v3.368h4.825v1.369h-4.825v4.543h4.965v1.369h-6.474zm10.508 0v7.105c0 1.964.597 3.789 2.913 3.789 2.315 0 2.912-1.825 2.912-3.79V82.72h1.509v7.614c0 2.65-1.65 4.685-4.404 4.685s-4.403-2.036-4.403-4.685V82.72h1.473zm18.141 12.052h-1.825l-3.544-5.088h-.631v5.088h-1.51V82.737h1.825c1.07 0 2.228.017 3.176.561 1 .597 1.579 1.72 1.579 2.877 0 1.72-1.158 3.158-2.895 3.369l3.825 5.228zm-5.983-6.35h.474c1.526 0 3.193-.282 3.193-2.211 0-1.878-1.79-2.158-3.28-2.158h-.404v4.368h.017zm9.737 6.35h-1.509V82.737h1.509zm5.175-3.018L403 94.772h-1.614l5.754-12.544 5.755 12.544h-1.614l-1.369-3.018h-5.544zm2.755-6.245l-2.14 4.877h4.28l-2.14-4.877zm10.263 9.263h-1.509V84.105h-2.842v-1.368h7.21v1.368h-2.859v10.667z" fill="#211142" fill-rule="nonzero"/><path d="M107.544 49.228h393.21" stroke="#C8C3D8"/><g fill-rule="nonzero"><path d="M36.667 22.982c-7.176-.473-14.106 1.86-19.527 6.597-11.175 9.772-12.315 26.825-2.544 38 5.316 6.07 12.79 9.193 20.281 9.193a26.78 26.78 0 0017.702-6.65 2.08 2.08 0 00.193-2.929 2.08 2.08 0 00-2.93-.193 22.644 22.644 0 01-16.509 5.579c-6.07-.404-11.614-3.158-15.631-7.737-8.263-9.456-7.298-23.877 2.158-32.14a22.644 22.644 0 0116.508-5.58c6.07.404 11.614 3.159 15.632 7.738a2.08 2.08 0 002.93.193 2.08 2.08 0 00.193-2.93c-4.72-5.404-11.28-8.65-18.456-9.14" fill="#FBC90B"/><path d="M34.86 15.246c-1.14 0-2.07.93-2.07 2.07 0 1.14.93 2.07 2.07 2.07 16.79 0 30.456 13.667 30.456 30.456 0 16.79-13.667 30.456-30.456 30.456-16.79 0-30.456-13.666-30.456-30.456 0-1.14-.93-2.07-2.07-2.07-1.141 0-2.07.93-2.07 2.07 0 19.07 15.525 34.597 34.596 34.597 19.07 0 34.596-15.527 34.596-34.597S53.947 15.246 34.86 15.246" fill="#ED3624"/><path d="M34.86 7.86c-11.21 0-21.772 4.368-29.702 12.298a2.075 2.075 0 000 2.93 2.075 2.075 0 002.93 0c9.456-9.456 22.701-12.86 34.894-10.193 6.843 1.491 13.334 4.894 18.65 10.193 14.754 14.754 14.754 38.772 0 53.526-7.158 7.158-16.65 11.088-26.772 11.088-10.106 0-19.614-3.93-26.772-11.088a2.075 2.075 0 00-2.93 0 2.075 2.075 0 000 2.93c7.93 7.93 18.474 12.298 29.702 12.298 11.228 0 21.772-4.368 29.701-12.298 7.93-7.93 12.299-18.474 12.299-29.702 0-11.228-4.369-21.772-12.299-29.702-7.93-7.912-18.473-12.28-29.701-12.28" fill="#A62286"/><path d="M34.86 0c-5.404 0-10.72.86-15.79 2.561a2.084 2.084 0 00-1.316 2.614 2.084 2.084 0 002.614 1.316 45.88 45.88 0 0114.474-2.333c25.193 0 45.702 20.509 45.702 45.702 0 25.193-20.474 45.701-45.684 45.701-1.14 0-2.07.93-2.07 2.07 0 1.14.93 2.07 2.07 2.07 13.315 0 25.842-5.192 35.245-14.596 9.404-9.403 14.597-21.93 14.597-35.245 0-13.316-5.193-25.842-14.597-35.246C60.702 5.193 48.175 0 34.86 0" fill="#111D43"/></g></g></svg>