<svg width="337" height="100" xmlns="http://www.w3.org/2000/svg"><g fill="none" fill-rule="evenodd"><path d="M138.186 18.316h10.69c2.14 0 4.106.344 5.895 1.036 1.79.69 3.327 1.648 4.62 2.874a12.9 12.9 0 012.998 4.323c.7 1.654 1.054 3.446 1.054 5.377v.077c0 1.93-.353 3.728-1.054 5.397a12.763 12.763 0 01-2.998 4.34c-1.294 1.23-2.83 2.19-4.62 2.898-1.788.704-3.755 1.057-5.893 1.057h-10.69v-27.38zm6.032 5.474v16.427h4.66c1.225 0 2.348-.194 3.366-.582 1.018-.39 1.886-.947 2.603-1.674a7.782 7.782 0 001.684-2.568c.407-.987.61-2.09.61-3.308v-.08c0-1.193-.203-2.295-.61-3.307a7.753 7.753 0 00-1.683-2.607 7.434 7.434 0 00-2.603-1.696c-1.018-.4-2.142-.604-3.367-.604h-4.66zm24.867-5.474h6.026v27.38h-6.025m12.88-27.38h5.562l12.84 16.858V18.316h5.955v27.38h-5.13l-13.278-17.407v17.405h-5.95v-27.38m31.209.002h6.03v27.38h-6.03m12.886-27.38h5.56l12.84 16.858V18.316h5.955v27.38h-5.13l-13.276-17.407v17.405h-5.95v-27.38m44.129 27.849c-2.142 0-4.092-.35-5.853-1.057-1.765-.704-3.277-1.68-4.543-2.933-1.265-1.252-2.25-2.737-2.956-4.46-.706-1.718-1.06-3.596-1.06-5.63v-.08c0-1.955.36-3.786 1.08-5.495a14.002 14.002 0 012.998-4.497c1.277-1.29 2.79-2.308 4.54-3.05s3.665-1.114 5.758-1.114c1.222 0 2.338.084 3.345.253 1.005.168 1.938.41 2.797.72.865.316 1.673.708 2.43 1.176.76.47 1.49 1.003 2.195 1.603l-3.8 4.575a15.526 15.526 0 00-1.567-1.17 10.189 10.189 0 00-1.626-.863 9.26 9.26 0 00-1.82-.547 11.04 11.04 0 00-2.154-.194 6.996 6.996 0 00-3.075.687 8.296 8.296 0 00-2.502 1.836 8.404 8.404 0 00-1.688 2.7 9.035 9.035 0 00-.604 3.304v.077c0 1.253.203 2.404.604 3.463a8.24 8.24 0 001.725 2.757 7.82 7.82 0 002.624 1.817c1.006.433 2.12.647 3.35.647 2.242 0 4.137-.546 5.68-1.643v-3.91h-6.074V29.93h11.905v11.893c-1.408 1.198-3.085 2.222-5.033 3.07-1.944.845-4.17 1.27-6.677 1.27zM149.635 84.645c-2.09 0-4.138-.356-6.15-1.074-2.006-.716-3.835-1.818-5.478-3.304l3.56-4.262c1.254 1.017 2.538 1.826 3.86 2.423 1.316.602 2.76.9 4.325.9 1.253 0 2.227-.23 2.917-.686.69-.453 1.037-1.086 1.037-1.894v-.077a2.4 2.4 0 00-.215-1.04c-.143-.3-.418-.577-.823-.84-.402-.26-.966-.52-1.684-.784-.72-.258-1.652-.534-2.8-.82a34.417 34.417 0 01-3.76-1.133c-1.123-.415-2.075-.933-2.858-1.545a6.266 6.266 0 01-1.82-2.287c-.43-.913-.647-2.047-.647-3.402v-.08c0-1.25.237-2.377.703-3.384a7.71 7.71 0 011.962-2.6c.844-.73 1.85-1.29 3.023-1.683 1.17-.39 2.457-.584 3.87-.584 2.007 0 3.856.298 5.54.898a16.248 16.248 0 014.64 2.583l-3.132 4.536c-1.23-.832-2.43-1.49-3.606-1.976-1.172-.48-2.35-.723-3.52-.723-1.176 0-2.057.23-2.645.686-.59.457-.88 1.023-.88 1.702v.08c0 .443.083.827.253 1.15.168.33.477.62.92.88.446.263 1.05.51 1.82.744.77.236 1.744.508 2.917.824 1.383.362 2.62.772 3.705 1.23 1.08.456 1.993 1.004 2.74 1.642a6.33 6.33 0 011.683 2.248c.378.864.568 1.892.568 3.092v.08c0 1.354-.246 2.56-.735 3.617a7.499 7.499 0 01-2.066 2.66c-.88.716-1.937 1.264-3.157 1.64-1.224.376-2.58.565-4.068.565zm15.313-27.768h20.637v5.355H170.9v5.556h12.923v5.36H170.9v5.748h14.877v5.36h-20.83v-27.38m26.239.001h12.527c3.473 0 6.133.924 7.988 2.776 1.57 1.564 2.353 3.65 2.353 6.26v.075c0 2.218-.544 4.024-1.627 5.416-1.082 1.4-2.496 2.423-4.244 3.07l6.695 9.78h-7.05l-5.873-8.762h-4.737v8.762h-6.03V56.877zm12.138 13.297c1.485 0 2.63-.35 3.423-1.05.8-.7 1.196-1.637 1.196-2.803v-.075c0-1.298-.417-2.273-1.25-2.92-.838-.65-1.996-.974-3.486-.974h-5.99v7.824h6.107zm13.042-13.297h6.655l7.164 19.282 7.166-19.283h6.5L232.77 84.45h-5.325m20.911-27.573h6.03v27.378h-6.03m25.724.47c-2.005 0-3.877-.366-5.596-1.097-1.722-.73-3.213-1.727-4.465-2.99-1.256-1.266-2.232-2.76-2.937-4.48-.705-1.72-1.06-3.56-1.06-5.514v-.08c0-1.955.354-3.786 1.06-5.495a14.111 14.111 0 012.936-4.5c1.25-1.29 2.753-2.307 4.502-3.05 1.748-.74 3.68-1.113 5.794-1.113 1.277 0 2.446.103 3.504.313 1.06.207 2.02.495 2.88.86.86.364 1.655.808 2.392 1.328a17.053 17.053 0 012.035 1.72l-3.84 4.422c-1.07-.962-2.163-1.72-3.267-2.27-1.112-.548-2.358-.818-3.74-.818-1.153 0-2.216.22-3.193.664a7.497 7.497 0 00-2.525 1.837 8.586 8.586 0 00-1.648 2.72 9.246 9.246 0 00-.583 3.304v.077c0 1.175.195 2.283.584 3.326a8.759 8.759 0 001.627 2.738c.694.78 1.53 1.4 2.506 1.86.978.456 2.06.684 3.234.684 1.567 0 2.887-.287 3.97-.86 1.084-.575 2.16-1.358 3.233-2.35l3.84 3.875c-.71.755-1.44 1.433-2.197 2.033a13.173 13.173 0 01-2.483 1.543c-.904.43-1.89.758-2.958.98-1.067.22-2.273.332-3.604.332zm16.055-27.848h20.636v5.355h-14.68v5.556h12.92v5.36h-12.92v5.748h14.88v5.36h-20.836v-27.38m35.99 27.769a18.17 18.17 0 01-6.15-1.074c-2.01-.716-3.84-1.818-5.48-3.304l3.56-4.262c1.253 1.017 2.542 1.826 3.858 2.423 1.318.602 2.764.9 4.328.9 1.254 0 2.23-.23 2.92-.686.69-.453 1.036-1.086 1.036-1.894v-.077c0-.395-.074-.74-.217-1.04-.145-.3-.416-.577-.82-.84-.41-.26-.968-.52-1.686-.784-.718-.258-1.65-.534-2.797-.82a33.89 33.89 0 01-3.76-1.133c-1.125-.415-2.078-.933-2.862-1.545a6.255 6.255 0 01-1.82-2.287c-.43-.913-.644-2.047-.644-3.402v-.08c0-1.25.232-2.377.703-3.384a7.716 7.716 0 011.96-2.6c.845-.73 1.85-1.29 3.02-1.683 1.173-.39 2.462-.584 3.873-.584 2.006 0 3.854.298 5.54.898a16.158 16.158 0 014.638 2.583l-3.136 4.536c-1.222-.832-2.423-1.49-3.6-1.976-1.17-.48-2.348-.723-3.518-.723-1.178 0-2.06.23-2.645.686-.588.457-.88 1.023-.88 1.702v.08c0 .443.08.827.248 1.15.17.33.482.62.92.88.443.263 1.053.51 1.824.744.77.236 1.742.508 2.914.824 1.386.362 2.622.772 3.707 1.23 1.082.456 1.993 1.004 2.742 1.642.74.64 1.3 1.39 1.68 2.248.378.864.57 1.892.57 3.092v.08c0 1.354-.25 2.56-.744 3.617a7.444 7.444 0 01-2.058 2.66c-.882.716-1.937 1.264-3.16 1.64-1.22.376-2.576.565-4.063.565z" fill="#000"/><path d="M79.24 27.175c.896 4.914-1.02 9.54-4.834 10.956-4.434 1.642-7.94-1.166-7.94-3.307 0-2.802.79-4.61 1.07-6.114.432-.798 2.603-14.473-9.286-24.767 0 0 4.337 12.536-4.362 19.747l-.08.084S37.822 38.488 40.124 53.22a6.861 6.861 0 01-6.413-3.88 6.134 6.134 0 01-.328-.836c-2.163 10.226 1.845 21.208 11.012 27.48 1.644 1.125 12.69 8.972 12.69 8.972s5.306-4.24 5.033-2.052c0 0 12.18-4.318 18.91-13.062-.002.073.118-.117.034-.035 0 .002 14-14.172-1.82-42.632z" fill="#FFF"/><path d="M59.316.3C34.304.3 12.418 7.71.416 18.78c4.587-2.245 9.625-4.17 15.018-5.78l1.452 8.86c.32 2.418.704 4.744 1.14 6.983l.218 1.33c.017-.003.032-.01.047-.014 4.187 20.13 12.755 32.972 20.962 41.025a26.643 26.643 0 01-5.758-22.726c.09.28.196.56.33.835 1.214 2.526 3.776 3.963 6.412 3.88-2.303-14.73 13.681-29.443 13.681-29.443l.082-.085c8.7-7.213 4.363-19.748 4.363-19.748C70.25 14.19 68.08 27.867 67.65 28.663c-.28 1.506-1.075 3.312-1.075 6.116 0 2.14 3.507 4.95 7.944 3.304 3.812-1.416 5.726-6.04 4.83-10.955 11.986 21.557 6.86 34.91 3.668 40.123 8.235-9.57 16.12-24.325 18.872-46.8l1.287-7.46c5.403 1.61 10.447 3.538 15.038 5.787C106.218 7.71 84.332.3 59.315.3z" fill="#000"/><path d="M76.472 68.99c.293-6.842-4.13-18.578-7.155-25.735l-1.567-.378c1.145 8.49 2.538 23.25-.64 28.86a.394.394 0 01-.062.053l-.057.046c-.715.554-2.005 1.19-4.215 1.355.226-7.864-.84-21.294-1.867-31.957 0 0-.854-.24-1.593-.24-.74 0-1.496.22-1.496.22-1.03 10.667-2.102 24.115-1.87 31.988-2.27-.153-3.58-.8-4.31-1.364l-.056-.046a.713.713 0 01-.06-.053c-3.177-5.61-1.785-20.37-.64-28.86l-1.566.378c-3.027 7.157-7.443 18.884-7.155 25.73-.473 5.39 6.716 10.91 11.872 14.15 4.02 3.593 5.008 12.473 5.25 16.356h.076c.24-3.89 1.23-12.786 5.264-16.372 5.15-3.24 12.31-8.75 11.848-14.13z" fill="#E31837"/></g></svg>