<svg width="532" height="100" xmlns="http://www.w3.org/2000/svg"><g fill="none"><path d="M91.183 12.35c-4.956 0-9.518.886-13.687 2.656-4.17 1.77-7.777 4.287-10.826 7.55-3.048 3.266-5.417 7.218-7.108 11.86-1.692 4.64-2.537 9.85-2.537 15.633 0 5.78.924 10.99 2.773 15.632 1.848 4.64 4.365 8.594 7.55 11.858 3.187 3.264 6.943 5.782 11.27 7.55 4.325 1.77 8.966 2.656 13.922 2.656 3.618 0 6.882-.492 9.793-1.475 2.91-.982 5.506-2.378 7.787-4.187v-28.85H94.604V48.34h29.32V84.5a70.584 70.584 0 01-7.256 3.423c-2.438.983-5.063 1.82-7.875 2.507-2.813.69-5.92 1.2-9.322 1.534-3.4.335-7.245.502-11.532.502-4.523 0-8.84-.512-12.95-1.534-4.11-1.023-7.905-2.458-11.385-4.307a44.89 44.89 0 01-9.44-6.666c-2.81-2.597-5.2-5.468-7.167-8.614a40.81 40.81 0 01-4.543-10.118 39.297 39.297 0 01-1.593-11.18c0-3.854.512-7.61 1.534-11.267a43.577 43.577 0 014.366-10.323 42.785 42.785 0 016.932-8.88 44.25 44.25 0 019.232-6.96c3.422-1.947 7.148-3.46 11.18-4.543 4.03-1.082 8.328-1.622 12.89-1.622 4.366 0 8.387.59 12.064 1.77 3.678 1.18 7.04 2.743 10.09 4.69 3.047 1.946 5.75 4.198 8.11 6.754 2.36 2.557 4.386 5.212 6.077 7.965l-5.96 4.012c-3.46-6.646-7.314-11.523-11.562-14.63-4.247-3.107-9.124-4.66-14.63-4.66zm51.915-4.01h28.435c4.956 0 9.292.53 13.01 1.592 3.715 1.062 6.812 2.547 9.29 4.454 2.478 1.908 4.346 4.17 5.605 6.785 1.258 2.616 1.888 5.477 1.888 8.584 0 2.557-.482 4.946-1.446 7.168-.963 2.222-2.33 4.228-4.1 6.018-1.77 1.79-3.894 3.343-6.37 4.66-2.48 1.318-5.213 2.33-8.202 3.04l29.91 39.88h-15.987L166.58 51.876h-9.675V90.52H143.1V8.34zm13.805 39.408h7.964c3.107 0 5.968-.413 8.584-1.24 2.616-.825 4.887-1.995 6.814-3.51a16.077 16.077 0 004.514-5.515c1.08-2.163 1.622-4.582 1.622-7.257 0-2.438-.433-4.69-1.298-6.754-.865-2.065-2.065-3.835-3.6-5.31-1.533-1.475-3.36-2.625-5.485-3.45-2.124-.827-4.444-1.24-6.96-1.24h-12.154v34.276zM254.42 6.452l38.7 84.067h-14.04l-12.566-27.434h-35.22L218.317 90.52h-6.902L251 6.45h3.42zm-20.706 51.325h30.264L249.052 25.27l-15.338 32.507zm92.503 29.438c2.045 0 4.06-.275 6.047-.826 1.986-.55 3.756-1.377 5.31-2.48a13.088 13.088 0 003.746-4.04c.943-1.593 1.415-3.43 1.415-5.516 0-2.517-.648-4.75-1.946-6.696-1.3-1.946-3-3.746-5.104-5.398-2.105-1.65-4.513-3.195-7.227-4.63-2.715-1.436-5.478-2.88-8.29-4.337a179.132 179.132 0 01-8.29-4.572c-2.712-1.592-5.12-3.36-7.226-5.308-2.104-1.947-3.805-4.13-5.103-6.55-1.296-2.417-1.945-5.2-1.945-8.346 0-3.147.59-6.067 1.77-8.76 1.18-2.695 2.91-5.025 5.19-6.992 2.282-1.966 5.084-3.51 8.408-4.63 3.323-1.122 7.148-1.682 11.474-1.682 7.787 0 13.933 1.632 18.436 4.896 4.503 3.265 7.758 7.984 9.764 14.16l-7.08 3.244c-.826-2.518-1.878-4.818-3.156-6.903-1.277-2.085-2.81-3.875-4.6-5.37-1.79-1.494-3.845-2.644-6.166-3.45-2.32-.807-4.935-1.21-7.846-1.21-2.596 0-4.867.364-6.814 1.092-1.947.727-3.56 1.67-4.837 2.83-1.278 1.162-2.242 2.48-2.89 3.954-.65 1.475-.974 2.98-.974 4.513 0 2.162.668 4.138 2.005 5.928 1.338 1.79 3.088 3.49 5.25 5.103 2.164 1.613 4.642 3.157 7.434 4.632 2.793 1.475 5.634 2.98 8.525 4.513a210.567 210.567 0 018.525 4.78c2.792 1.65 5.27 3.46 7.433 5.426 2.163 1.968 3.913 4.12 5.25 6.46 1.338 2.34 2.006 4.947 2.006 7.818 0 3.264-.618 6.322-1.857 9.174-1.24 2.85-3.097 5.348-5.575 7.492-2.478 2.143-5.555 3.834-9.233 5.073-3.677 1.24-7.954 1.86-12.83 1.86-3.934 0-7.454-.434-10.56-1.3-3.108-.864-5.85-2.123-8.23-3.775a24.567 24.567 0 01-6.107-6.076c-1.69-2.4-3.087-5.113-4.188-8.142l7.433-3.067c.865 2.674 2.026 5.073 3.48 7.197 1.456 2.124 3.157 3.923 5.104 5.398a21.668 21.668 0 006.49 3.363c2.38.767 4.906 1.15 7.58 1.15zm77.047-80.763l38.7 84.067h-14.04l-12.566-27.434h-35.22l-12.98 27.433h-6.9L399.84 6.45h3.422zm-20.707 51.325h30.264L397.896 25.27l-15.338 32.507zm82.65-8.082c0 5.78.866 10.953 2.597 15.515 1.73 4.562 4.11 8.427 7.138 11.593 3.03 3.166 6.617 5.584 10.767 7.256 4.148 1.67 8.64 2.506 13.48 2.506 2.87 0 5.643-.56 8.317-1.68a32.703 32.703 0 007.463-4.367 36.855 36.855 0 006.165-6.077c1.81-2.262 3.304-4.553 4.484-6.873l5.78 3.717c-1.69 2.753-3.687 5.407-5.988 7.964-2.3 2.557-4.965 4.81-7.994 6.756-3.028 1.947-6.45 3.51-10.265 4.69-3.815 1.18-8.082 1.77-12.802 1.77-4.522 0-8.79-.52-12.8-1.564-4.012-1.042-7.7-2.497-11.062-4.365a41.02 41.02 0 01-9.026-6.755 41.361 41.361 0 01-6.725-8.702 42.595 42.595 0 01-4.22-10.176 42.617 42.617 0 01-1.473-11.21c0-3.854.5-7.6 1.504-11.238a42.937 42.937 0 014.307-10.265 42.265 42.265 0 016.872-8.82 42.854 42.854 0 019.174-6.87c3.403-1.91 7.13-3.394 11.18-4.456 4.052-1.06 8.378-1.592 12.98-1.592 4.365 0 8.386.59 12.064 1.77 3.677 1.18 7.04 2.743 10.088 4.69 3.048 1.946 5.752 4.198 8.112 6.754 2.36 2.557 4.385 5.212 6.076 7.965l-5.958 4.012c-3.462-6.646-7.316-11.523-11.563-14.63-4.25-3.107-9.126-4.66-14.632-4.66-4.76 0-9.203.864-13.333 2.595a31.576 31.576 0 00-10.796 7.433c-3.07 3.225-5.487 7.138-7.257 11.74-1.77 4.602-2.655 9.793-2.655 15.575z" fill="#51070F"/><circle fill="#F8C52B" cx="9.677" cy="9.677" r="9.677"/><circle fill="#F8C52B" cx="9.677" cy="36.559" r="9.677"/><circle fill="#F8C52B" cx="9.677" cy="63.441" r="9.677"/><circle fill="#F8C52B" cx="9.677" cy="90.323" r="9.677"/></g></svg>