<svg width="452" height="100" xmlns="http://www.w3.org/2000/svg"><g fill="none"><path d="M95.315 26.772h-8.843v-7.229h25.85v7.229h-8.842v22.535h-8.165V26.772zm20.583-7.229h8.165v11.142h10.48V19.543h8.166v29.764h-8.166V38h-10.48v11.307h-8.165zm32.032 0h23.7v7.016h-15.622v4.504h14.142v6.504h-14.142v4.716h15.827V49.3H147.92V19.543zm39.731 0h12.63c7.45 0 12.252 3.866 12.252 10.457v.087c0 7.015-5.346 10.716-12.669 10.716h-4.04v8.504h-8.165V19.543h-.008zM199.71 34.34c2.905 0 4.669-1.528 4.669-3.874v-.087c0-2.551-1.772-3.913-4.717-3.913h-3.834v7.866h3.882v.008zm16.282-14.797h13.937c4.504 0 7.622 1.19 9.599 3.229 1.724 1.7 2.606 4 2.606 6.929v.086c0 4.552-2.402 7.567-6.063 9.142l7.031 10.378h-9.433l-5.937-9.016h-3.575v9.016h-8.165V19.543zm13.56 14.284c2.779 0 4.377-1.362 4.377-3.528v-.086c0-2.339-1.685-3.528-4.417-3.528h-5.347v7.142h5.386zm16.873-14.284h8.213v29.764h-8.213zm13.599 0h7.622l12.126 15.733V19.543h8.086v29.764h-7.157l-12.59-16.33v16.33h-8.087zm40.244 7.229h-8.843v-7.229h25.85v7.229h-8.842v22.535h-8.165V26.772zm30.008 18.11l4.543-5.488c2.905 2.338 6.15 3.575 9.559 3.575 2.189 0 3.37-.764 3.37-2.04v-.086c0-1.237-.968-1.914-4.968-2.85-6.276-1.45-11.119-3.23-11.119-9.355v-.087c0-5.527 4.339-9.527 11.41-9.527 5.008 0 8.921 1.362 12.126 3.952l-4.087 5.827c-2.693-1.913-5.645-2.937-8.252-2.937-1.976 0-2.945.85-2.945 1.914v.086c0 1.362 1.008 1.953 5.095 2.89 6.78 1.488 10.992 3.7 10.992 9.268v.086c0 6.079-4.756 9.693-11.913 9.693-5.22.016-10.19-1.646-13.811-4.921zm29.677-25.339h8.165v11.142h10.48V19.543h8.166v29.764h-8.166V38h-10.48v11.307h-8.165zm31.023 14.969v-.087c0-8.543 6.82-15.48 15.914-15.48s15.827 6.842 15.827 15.394v.086c0 8.544-6.82 15.48-15.914 15.48s-15.827-6.85-15.827-15.393zm23.41 0v-.087c0-4.291-3.071-8.04-7.583-8.04-4.464 0-7.449 3.654-7.449 7.954v.086c0 4.292 3.071 8.04 7.536 8.04 4.504 0 7.496-3.662 7.496-7.953zm12.583-14.969h12.63c7.448 0 12.251 3.866 12.251 10.457v.087c0 7.015-5.346 10.716-12.669 10.716h-4.04v8.504h-8.165V19.543h-.007zm12.039 14.796c2.905 0 4.67-1.528 4.67-3.874v-.087c0-2.551-1.772-3.913-4.717-3.913h-3.835v7.866h3.882v.008z" fill="#CE0E2D"/><path d="M36.496.78C26.976.858 10.764 2.945.22 4.772.134 23.827.134 44.717.134 44.717.464 57.669 3.457 68.63 11.087 78.74c7.007 9.087 15.189 15.236 25.488 20.654 10.622-5.48 18.315-11.56 25.338-20.654 7.63-10.118 10.575-20.464 10.953-34.023 0 0-.094-23.41-.181-40.166C61.961 2.528 45.465.693 36.496.78z" fill="#FFF"/><path d="M36.496 3.126c-9.07.079-24.504 2.063-34.551 3.803-.079 18.15-.079 38.047-.079 38.047.315 12.339 3.165 22.772 10.433 32.402 6.677 8.653 14.473 14.512 24.268 19.67 10.118-5.221 17.44-11.009 24.134-19.67 7.268-9.638 10.07-19.488 10.433-32.402 0 0-.095-22.299-.173-38.252-10.213-1.937-25.922-3.677-34.465-3.598z" fill="#000"/><path d="M60.866 43.843L47.52 20.575a1.147 1.147 0 00-1.992 0l-1.662 2.905.882 1.536c3.504 6.11 1.646 13.819-4.079 17.716l7.118 12.41c2.378 4.141 2.937 8.81 1.977 13.134a16.351 16.351 0 005-1.867c7.905-4.543 10.645-14.645 6.102-22.566" fill="#00AEEF"/><path d="M32.189 60.283c-2.795-4.881-2.819-10.598-.575-15.33a13.362 13.362 0 01-7.771-3.654l-7.93 13.827c-3.118 5.465-3.354 12.417 0 18.268 5.048 8.795 16.268 11.842 25.071 6.795 4.654-2.67 7.685-7.079 8.764-11.937-6.764 1.362-13.937-1.646-17.559-7.969" fill="#EC008C"/><path d="M47.78 55.134l-7.119-12.41c-.283.19-.567.386-.874.56a13.282 13.282 0 01-8.173 1.677c-2.244 4.724-2.22 10.448.575 15.33 3.622 6.323 10.787 9.323 17.559 7.977.976-4.323.41-8.992-1.968-13.134" fill="#2E3192"/><path d="M32.953 29.276l3.795 6.614 7.118-12.418-9.929-17.315a.931.931 0 00-1.614 0L21.52 25.007c-2.268 3.985-2.45 9.056 0 13.316a13.4 13.4 0 002.33 2.976l6.898-12.031c.488-.843 1.717-.843 2.205.008" fill="#FFF200"/><path d="M40.67 42.724c5.732-3.897 7.582-11.606 4.078-17.716l-.882-1.536-7.118 12.418 3.921 6.834z" fill="#00A651"/><path d="M31.614 44.96c.181-.377.37-.747.575-1.117l4.559-7.953-3.795-6.614a1.278 1.278 0 00-2.213 0l-6.897 12.031a13.481 13.481 0 007.771 3.654" fill="#ED1C24"/><path d="M32.189 43.843c-.205.362-.394.74-.575 1.118 2.74.315 5.599-.197 8.173-1.678.3-.173.591-.37.874-.559l-3.913-6.826-4.559 7.945z" fill="#363639"/><path d="M100.874 75.78c-.488.377-1.016.7-1.583.968a9.015 9.015 0 01-1.819.63c-.645.15-1.37.228-2.173.228-1.268 0-2.425-.236-3.488-.708a8.687 8.687 0 01-2.772-1.93 8.882 8.882 0 01-1.834-2.881c-.441-1.103-.662-2.3-.662-3.575 0-1.26.22-2.441.662-3.551a9.198 9.198 0 011.834-2.914 8.52 8.52 0 012.796-1.968c1.078-.48 2.26-.717 3.543-.717.795 0 1.52.071 2.157.205a8.95 8.95 0 011.788.567 7.82 7.82 0 011.52.882c.464.346.913.724 1.346 1.15l-1.346 1.464a11.002 11.002 0 00-2.41-1.74c-.858-.457-1.882-.677-3.079-.677a6.63 6.63 0 00-2.685.55 6.6 6.6 0 00-2.141 1.536 7.093 7.093 0 00-1.418 2.307 7.909 7.909 0 00-.512 2.859c0 1.023.174 1.984.512 2.874.339.89.811 1.661 1.418 2.315a6.765 6.765 0 002.141 1.55 6.363 6.363 0 002.685.568c1.197 0 2.229-.22 3.095-.67.866-.448 1.716-1.07 2.543-1.874l1.3 1.284c-.457.464-.93.89-1.418 1.268zm24.26 1.527h-2.118l-2.047-4.661h-9.504l-2.071 4.661h-2.024l7.96-17.764h1.843l7.96 17.764zm-8.906-15.425l-3.992 8.992h7.96l-3.968-8.992zm27.512 15.425l-5.063-6.85h-4.992v6.85h-1.968V59.67h7.511c.961 0 1.835.126 2.607.378.771.252 1.433.607 1.984 1.071a4.774 4.774 0 011.275 1.662c.3.645.45 1.362.45 2.157 0 .74-.119 1.402-.347 1.976a4.445 4.445 0 01-.984 1.512 5.59 5.59 0 01-1.512 1.071 7.045 7.045 0 01-1.898.606l5.362 7.205h-2.425zm-1.346-14.874c-.788-.614-1.882-.921-3.3-.921h-5.401v7.18h5.378a6.25 6.25 0 001.803-.251 4.27 4.27 0 001.425-.724c.402-.315.709-.693.937-1.15.229-.457.339-.969.339-1.543-.008-1.11-.402-1.977-1.181-2.59zm10.504-2.763h1.968v15.795h9.827v1.842H152.89V59.67zm31.204 1.81H173.45v6.024h9.527v1.811h-9.527v6.173h10.78V77.3h-12.75V59.661h12.622v1.82zm13.819 15.827h-1.968V61.512h-5.859v-1.843h13.693v1.843h-5.858v15.795zm27.914-5.354a9.193 9.193 0 01-1.82 2.913 8.538 8.538 0 01-2.818 2c-1.095.488-2.315.74-3.646.74-1.33 0-2.543-.244-3.63-.732a8.727 8.727 0 01-2.803-1.976 8.88 8.88 0 01-1.81-2.898 9.618 9.618 0 01-.639-3.488 9.43 9.43 0 01.646-3.488 9.193 9.193 0 011.819-2.914c.78-.842 1.724-1.504 2.819-2 1.094-.496 2.315-.74 3.645-.74 1.331 0 2.544.244 3.63.732a8.727 8.727 0 012.803 1.977 8.88 8.88 0 011.812 2.897 9.618 9.618 0 01.637 3.489 9.46 9.46 0 01-.645 3.488zm-1.906-6.292a6.955 6.955 0 00-1.433-2.315 6.99 6.99 0 00-2.181-1.559 6.524 6.524 0 00-2.756-.582c-1 0-1.913.189-2.756.567a6.494 6.494 0 00-2.157 1.55 7.211 7.211 0 00-1.41 2.308 7.843 7.843 0 00-.512 2.835c0 1.007.174 1.96.512 2.85.339.89.82 1.661 1.433 2.315a6.99 6.99 0 002.181 1.559c.835.386 1.756.583 2.756.583 1 0 1.914-.19 2.756-.567a6.494 6.494 0 002.158-1.551 7.211 7.211 0 001.41-2.308 7.843 7.843 0 00.51-2.834 7.99 7.99 0 00-.51-2.85zm22.709-5.991h1.921v17.637h-1.575L235.71 62.843v14.464h-1.922V59.67h1.843l11 14.134V59.67zm34.897 10.102c0 1.291-.173 2.425-.527 3.401-.347.977-.843 1.788-1.48 2.441a6.074 6.074 0 01-2.3 1.473c-.89.322-1.882.488-2.984.488-1.079 0-2.07-.166-2.953-.488a6.317 6.317 0 01-2.299-1.465c-.638-.646-1.134-1.449-1.48-2.41-.347-.96-.528-2.055-.528-3.299V59.661h1.969v10.126c0 1.914.472 3.386 1.41 4.41.936 1.023 2.251 1.535 3.928 1.535 1.615 0 2.89-.488 3.843-1.464.945-.977 1.425-2.425 1.425-4.362V59.654h1.969v10.118h.007zm20.654-10.102h1.921v17.637h-1.575L291.26 62.843v14.464h-1.921V59.67h1.842l11 14.134V59.67zm12.15 0v17.637h-1.969V59.67zm21.401 0h2.118l-7.512 17.763h-1.748l-7.511-17.764h2.196l6.213 15.197zm21.33 1.81h-10.653v6.024h9.528v1.811h-9.528v6.173h10.78V77.3h-12.748V59.661h12.622zm19.26 15.827l-5.062-6.85h-4.992v6.85h-1.969V59.67h7.512c.96 0 1.835.126 2.606.378.772.252 1.433.607 1.984 1.071a4.774 4.774 0 011.276 1.662c.3.645.449 1.362.449 2.157 0 .74-.118 1.402-.347 1.976a4.445 4.445 0 01-.984 1.512 5.56 5.56 0 01-1.512 1.071 7.045 7.045 0 01-1.897.606l5.362 7.205h-2.425zm-1.354-14.874c-.787-.614-1.882-.921-3.299-.921h-5.401v7.18h5.378a6.25 6.25 0 001.803-.251 4.27 4.27 0 001.425-.724c.401-.315.716-.693.937-1.15.228-.457.338-.969.338-1.543-.007-1.11-.393-1.977-1.18-2.59zm12.229 2.756c.134.339.378.646.724.921.347.276.835.528 1.449.756.614.228 1.41.441 2.37.646 1.945.44 3.378 1.047 4.3 1.819.92.771 1.385 1.842 1.385 3.204 0 .756-.15 1.45-.44 2.071-.3.622-.702 1.15-1.221 1.59-.52.442-1.142.773-1.874 1.009a7.747 7.747 0 01-2.394.354c-1.394 0-2.677-.228-3.827-.685-1.157-.457-2.26-1.157-3.307-2.11l1.22-1.465c.914.843 1.835 1.465 2.772 1.874.93.41 2 .614 3.22.614 1.182 0 2.127-.275 2.835-.834.709-.56 1.063-1.284 1.063-2.197a2.99 2.99 0 00-.197-1.126c-.133-.33-.37-.63-.7-.898-.331-.267-.796-.512-1.386-.732-.59-.22-1.347-.425-2.26-.63-1-.22-1.874-.472-2.614-.756-.74-.283-1.354-.63-1.835-1.031a3.866 3.866 0 01-1.079-1.41c-.236-.535-.346-1.18-.346-1.921 0-.709.142-1.354.425-1.945a4.586 4.586 0 011.197-1.527c.512-.434 1.126-.764 1.819-1.008.7-.244 1.465-.363 2.3-.363 1.283 0 2.4.182 3.353.536.953.354 1.882.89 2.78 1.606l-1.15 1.536c-.818-.67-1.637-1.158-2.456-1.465a7.527 7.527 0 00-2.583-.457c-.567 0-1.079.08-1.535.229a3.86 3.86 0 00-1.174.606c-.322.252-.574.56-.748.906-.173.354-.26.732-.26 1.133-.031.441.04.82.174 1.15zm19.527-5.519v17.637h-1.968V59.67zm14.843 17.637h-1.969V61.512h-5.858v-1.843h13.693v1.843h-5.858v15.795zm20.157 0h-1.968v-6.976l-7.26-10.662h2.394l5.874 8.82 5.92-8.82h2.3l-7.26 10.63v7.008z" fill="#6D6E71"/></g></svg>