<svg width="90" height="100" xmlns="http://www.w3.org/2000/svg"><path d="M44.827 42.275V8.002c-3.93 7.823-11.602 14.28-21.488 18.51 11.48 4.876 20.697 21.473 21.487 37.72.79-16.247 10.006-32.844 21.49-37.72-9.716 3.053-17.525 8.785-21.49 15.763M28.718 9.518a5.343 5.343 0 01-3.685 1.473 5.386 5.386 0 01-4.89-7.632l3.96-.74L18.165.153a8.747 8.747 0 00-1.895 5.442c0 4.852 3.925 8.784 8.765 8.784 2.853 0 5.382-1.374 6.98-3.493l-3.297-1.37M11.73 89.357c0-1.236-.418-2.317-1.21-3.132-.96-.94-2.377-1.437-4.104-1.437H.1v14.134h2.958V87.54h3.165c.937 0 2.508.253 2.508 1.99 0 1.22-.952 1.974-2.488 1.974H3.696l5.215 7.418h3.516L8.68 93.657c1.97-.7 3.05-2.202 3.05-4.3m60.24 3.503l-9.442-8.9v14.962h2.92v-8.268l9.442 8.896V84.79h-2.92v8.07m-35.187.463l-3.85-8.535h-3.272l7.123 15.02 7.124-15.02h-3.275l-3.85 8.535m13.835-2.883V87.5h7.645v-2.71H47.66v5.652h-3.08l3.08 2.553v5.93h10.7v-2.714h-7.74v-3.057h6.777V90.44H50.62m34.667.046c-2.687-.643-2.983-1.075-2.983-1.883 0-.787.768-1.315 1.912-1.315 1.15 0 2.292.437 3.492 1.336l.24.18 1.607-2.27-.214-.172c-1.477-1.19-3.142-1.768-5.087-1.768-2.888 0-4.906 1.736-4.906 4.26 0 2.665 1.73 3.605 4.725 4.33 2.622.608 2.826 1.125 2.826 1.827 0 .86-.826 1.412-2.104 1.412-1.494 0-2.712-.505-4.077-1.69l-.224-.194-1.8 2.148.21.19c1.64 1.466 3.656 2.24 5.832 2.24 3.11 0 5.12-1.702 5.12-4.375 0-2.76-2.195-3.675-4.568-4.254M24.172 93.74h-3.558l1.778-3.615 1.78 3.616zm-6.645 0h-3.682l2.435 2.472-1.37 2.71h3.154l1.22-2.474h6.22l1.22 2.475h3.23l-7.522-14.897-4.905 9.715z" fill="#FFF" fill-rule="evenodd"/></svg>