<svg width="469" height="100" xmlns="http://www.w3.org/2000/svg"><g fill="none"><path d="M464.71 85.994c-.532-1.502-1.897-2.797-5.897-2.797-2.216 0-4.458.553-4.458 2.103 0 .719.412 1.481 3.764 1.895l3.98.603c3.768.579 5.984 2.033 5.984 4.855 0 3.978-3.79 5.458-8.275 5.458-7.214 0-8.97-3.561-9.367-4.833l3.17-.995c.601 1.225 1.848 3.008 6.289 3.008 2.681 0 4.903-.88 4.903-2.338 0-1.083-1.251-1.805-3.655-2.105l-4.021-.554c-3.885-.531-6.061-2.219-6.061-4.785 0-5.04 6.545-5.04 7.839-5.04 7.239 0 8.489 3.351 8.903 4.508l-3.097 1.017zm-21.3 0c-.53-1.502-1.893-2.797-5.896-2.797-2.216 0-4.456.553-4.456 2.103 0 .719.41 1.481 3.764 1.895l3.976.603c3.77.579 5.99 2.033 5.99 4.855 0 3.978-3.791 5.458-8.279 5.458-7.21 0-8.971-3.561-9.364-4.833l3.168-.995c.6 1.225 1.85 3.008 6.292 3.008 2.678 0 4.9-.88 4.9-2.338 0-1.083-1.252-1.805-3.657-2.105l-4.02-.554c-3.886-.531-6.06-2.219-6.06-4.785 0-5.04 6.548-5.04 7.841-5.04 7.236 0 8.485 3.351 8.9 4.508l-3.098 1.017zm-33.11-5.111h15.075v2.82h-11.79v3.911h10.15v2.82h-10.15v4.44h12.071v2.82H410.3V80.883zm-23.866 0h3.47l11.238 12.14v-12.14h3.149v16.81h-3.01l-11.703-12.577v12.578h-3.144V80.883zm-9.503 0h3.286v16.81h-3.286zm-8.419 5.111c-.526-1.502-1.895-2.797-5.895-2.797-2.219 0-4.46.553-4.46 2.103 0 .719.415 1.481 3.771 1.895l3.975.603c3.77.579 5.99 2.033 5.99 4.855 0 3.978-3.795 5.458-8.28 5.458-7.213 0-8.97-3.561-9.363-4.833l3.169-.995c.598 1.225 1.845 3.008 6.287 3.008 2.68 0 4.902-.88 4.902-2.338 0-1.083-1.252-1.805-3.656-2.105l-4.02-.554c-3.882-.531-6.059-2.219-6.059-4.785 0-5.04 6.544-5.04 7.84-5.04 7.239 0 8.485 3.351 8.898 4.508l-3.099 1.017zm-19.096 4.486c0 5.41-3.447 7.63-8.928 7.63-5.483 0-8.927-2.22-8.927-7.63v-9.597h3.286v9.365c0 2.775.995 5.044 5.64 5.044 4.649 0 5.646-2.267 5.646-5.044v-9.365h3.283v9.597zm-40.446-9.597h10.13c3.953 0 6.59 1.11 6.59 4.3 0 2.126-1.042 2.915-1.943 3.492 1.176.51 2.586 1.94 2.586 4.14 0 3.168-2.517 4.879-6.611 4.879H308.97V80.883zm10.335 6.636c2.153 0 3.101-.53 3.101-1.942 0-1.43-.948-1.965-3.101-1.965h-7.05v3.907h7.05zm.095 7.45c2.08 0 3.655-.419 3.655-2.406 0-1.758-1.435-2.315-3.655-2.315h-7.144v4.72h7.144zm-40.837-14.086h15.47v2.82h-12.186v3.911h10.476v2.82h-10.476v7.26h-3.284zm-14.94-.414c7.4 0 10.014 4.347 10.014 8.951 0 3.486-2.057 8.69-10.014 8.69-7.953 0-10.012-5.204-10.012-8.69.002-4.604 2.612-8.951 10.012-8.951zm6.729 8.764c0-4.05-2.888-5.947-6.729-5.947-3.835 0-6.726 1.897-6.726 5.947 0 4.764 3.583 6.058 6.726 6.058 3.146 0 6.729-1.294 6.729-6.058zm-46.062-8.35h3.283V94.78h12.186v2.913h-15.47zm-14.94-.414c7.402 0 10.014 4.347 10.014 8.951 0 3.486-2.06 8.69-10.014 8.69-7.952 0-10.012-5.204-10.012-8.69 0-4.604 2.614-8.951 10.012-8.951zm6.731 8.764c0-4.05-2.889-5.947-6.731-5.947-3.836 0-6.727 1.897-6.727 5.947 0 4.764 3.583 6.058 6.727 6.058 3.145 0 6.731-1.294 6.731-6.058zm-30.595-8.764c7.401 0 10.014 4.347 10.014 8.951 0 3.486-2.058 8.69-10.014 8.69-7.953 0-10.011-5.204-10.011-8.69 0-4.604 2.613-8.951 10.01-8.951zm6.73 8.764c0-4.05-2.89-5.947-6.728-5.947-3.836 0-6.727 1.897-6.727 5.947 0 4.764 3.583 6.058 6.727 6.058 3.145 0 6.728-1.294 6.728-6.058zm-39.519-8.35h3.284v6.658h11.286v-6.658h3.285v16.81h-3.285v-7.237h-11.286v7.238h-3.284zm-4.925 10.825c-.325 1.872-1.664 6.403-9.388 6.403-5.318 0-9.506-2.961-9.506-9.088 0-4.901 3.078-8.554 9.763-8.554 7.515 0 8.625 4.878 8.878 5.778h-3.28c-.187-.578-1.48-2.961-5.412-2.961-4.65 0-6.593 2.616-6.593 6.106 0 3.863 2.8 5.897 6.408 5.897 3.84 0 5.525-2.289 5.849-3.583h3.28v.002zm-25.878-5.714c-.53-1.502-1.894-2.797-5.896-2.797-2.217 0-4.459.553-4.459 2.103 0 .719.414 1.481 3.766 1.895l3.978.603c3.77.579 5.989 2.033 5.989 4.855 0 3.978-3.79 5.458-8.278 5.458-7.213 0-8.972-3.561-9.366-4.833l3.169-.995c.601 1.225 1.85 3.008 6.292 3.008 2.677 0 4.902-.88 4.902-2.338 0-1.083-1.254-1.805-3.657-2.105l-4.02-.554c-3.886-.531-6.06-2.219-6.06-4.785 0-5.04 6.544-5.04 7.84-5.04 7.236 0 8.484 3.351 8.9 4.508l-3.1 1.017zm319.772-54.808h-18.849v-7.078h45.933v7.078h-18.848v35.087h-8.236zm-61.597 0h-18.847v-7.078h45.934v7.078h-18.85v35.087h-8.236V31.186zm-59.274-8.122c18.557 0 25.11 10.905 25.11 22.445 0 8.758-5.16 21.81-25.11 21.81-19.954 0-25.118-13.052-25.118-21.81 0-11.54 6.554-22.445 25.118-22.445zm16.875 21.984c0-10.15-7.251-14.906-16.876-14.906-9.631 0-16.881 4.756-16.881 14.906 0 11.947 8.989 15.196 16.88 15.196 7.887 0 16.877-3.249 16.877-15.196zm-104.167-20.94h25.345c9.979 0 17.168 2.264 17.168 12.587 0 7.77-5.57 12.063-11.774 12.41l12.933 17.167h-10.15l-12.234-16.585h-13.052v16.586h-8.236V24.108zm24.127 18.736c6.73 0 10.153-.988 10.153-5.975 0-4.928-3.42-5.916-10.153-5.916h-15.89v11.89h15.89zm-85.78-18.736h23.488c7.135 0 18.851 0 18.851 12.934 0 12.877-11.716 12.877-18.851 12.877h-15.254v16.354h-8.234V24.108zm25.29 18.736c4.696 0 8.815-.407 8.815-5.858 0-5.397-4.118-5.8-8.814-5.8h-17.057v11.658h17.057zm-54.115-5.919c-1.334-3.769-4.756-7.017-14.787-7.017-5.57 0-11.196 1.389-11.196 5.278 0 1.8 1.042 3.71 9.455 4.758l9.973 1.506c9.453 1.448 15.022 5.105 15.022 12.18 0 9.975-9.51 13.687-20.762 13.687-18.097 0-22.503-8.931-23.49-12.122l7.946-2.495c1.51 3.075 4.64 7.542 15.776 7.542 6.727 0 12.294-2.204 12.294-5.86 0-2.724-3.13-4.521-9.16-5.277l-10.094-1.392c-9.743-1.336-15.199-5.566-15.199-12.005 0-12.645 16.416-12.645 19.664-12.645 18.153 0 21.286 8.412 22.331 11.312l-7.773 2.55zM39.881 66.658l39.772 25.2.053-66.599L39.881 0h.01L0 25.325l.123 66.533 39.768-25.2z" fill="#005596"/><path fill="#96C0E6" d="M39.881 66.658l31.93 31.93-.278-66.936L39.88 0h.01L7.983 31.9l-.024 66.688 31.932-31.93z"/></g></svg>